<svg width="9" height="15" viewBox="0 0 9 15" fill="none" xmlns="http://www.w3.org/2000/svg">
<path d="M1.66959 0.0821079C1.9308 0.245741 2.14419 0.488465 2.35918 0.709477C2.39788 0.749084 2.39788 0.749084 2.43735 0.789491C2.50813 0.861939 2.57882 0.934476 2.64949 1.00703C2.72604 1.08559 2.80267 1.16406 2.87929 1.24254C3.04635 1.41371 3.2133 1.58498 3.38023 1.75627C3.48457 1.86334 3.58893 1.97039 3.6933 2.07744C3.98265 2.37422 4.27197 2.67104 4.5612 2.96796C4.58889 2.99639 4.58889 2.99639 4.61715 3.02539C4.63565 3.04439 4.65416 3.06339 4.67322 3.08296C4.71072 3.12145 4.74821 3.15993 4.7857 3.19842C4.8043 3.21751 4.82289 3.23661 4.84205 3.25628C5.14374 3.56597 5.44563 3.87548 5.74759 4.18489C6.05811 4.50308 6.36847 4.82144 6.67868 5.13996C6.85265 5.3186 7.02669 5.49716 7.20091 5.67554C7.34915 5.82731 7.49724 5.97924 7.64513 6.13136C7.72053 6.2089 7.79599 6.28637 7.87164 6.36364C7.95377 6.44754 8.03556 6.53178 8.11733 6.61606C8.15299 6.65232 8.15299 6.65232 8.18937 6.68932C8.41231 6.92021 8.59674 7.14739 8.61111 7.48445C8.60361 7.71161 8.55474 7.88223 8.40239 8.05091C8.3794 8.0764 8.35641 8.1019 8.33272 8.12816C8.21851 8.25135 8.1026 8.37261 7.98552 8.49292C7.95872 8.52056 7.93193 8.5482 7.90514 8.57585C7.83232 8.65098 7.75942 8.72601 7.6865 8.80103C7.60756 8.88227 7.5287 8.96359 7.44983 9.0449C7.25991 9.24065 7.06985 9.43625 6.87977 9.63183C6.82604 9.68711 6.77232 9.7424 6.7186 9.79769C6.38445 10.1416 6.05026 10.4854 5.71593 10.8291C5.63873 10.9085 5.56152 10.9878 5.48432 11.0672C5.45554 11.0968 5.45554 11.0968 5.42618 11.127C5.11487 11.447 4.80384 11.7674 4.49294 12.0879C4.1733 12.4174 3.85339 12.7466 3.53321 13.0756C3.35362 13.2601 3.17415 13.4447 2.99499 13.6297C2.84256 13.787 2.68989 13.9441 2.5369 14.1009C2.4589 14.1809 2.38103 14.2609 2.30346 14.3413C2.21929 14.4285 2.13458 14.5152 2.04981 14.6017C2.02549 14.6271 2.00118 14.6525 1.97612 14.6786C1.77703 14.8804 1.59345 15.0003 1.30687 15C0.958719 14.9886 0.763759 14.8165 0.522748 14.5746C0.495537 14.5481 0.468326 14.5216 0.44029 14.4943C0.201712 14.2594 0.0188981 14.0433 0 13.6908C0.0116108 13.2791 0.283566 13.0334 0.549519 12.7614C0.571413 12.7389 0.593307 12.7164 0.615865 12.6932C0.688698 12.6184 0.761632 12.5436 0.834567 12.4689C0.887015 12.4151 0.939456 12.3612 0.991892 12.3073C1.10451 12.1917 1.21718 12.0761 1.32989 11.9605C1.49284 11.7934 1.65572 11.6262 1.81857 11.459C2.08284 11.1877 2.34718 10.9164 2.61155 10.6452C2.86825 10.3818 3.12493 10.1185 3.38156 9.85504C3.40532 9.83066 3.40532 9.83066 3.42955 9.80578C3.50901 9.72421 3.58848 9.64265 3.66794 9.56109C4.32638 8.88521 4.98493 8.20945 5.64354 7.53375C5.60506 7.44557 5.56222 7.38462 5.49562 7.31664C5.47677 7.29725 5.45791 7.27786 5.43849 7.25788C5.41772 7.23683 5.39695 7.21577 5.37555 7.19407C5.35353 7.17151 5.33151 7.14895 5.30882 7.12571C5.23477 7.0499 5.16051 6.97431 5.08625 6.89871C5.03321 6.84449 4.98018 6.79026 4.92716 6.73602C4.81284 6.61908 4.69842 6.50225 4.58394 6.38547C4.40289 6.20077 4.22212 6.01578 4.04138 5.83075C3.97952 5.76742 3.91765 5.70409 3.85579 5.64077C3.84033 5.62494 3.82486 5.60912 3.80893 5.59281C3.63293 5.41267 3.45687 5.2326 3.28078 5.05255C3.26468 5.03609 3.24859 5.01963 3.232 5.00267C2.97137 4.73619 2.71056 4.46987 2.44972 4.20359C2.18176 3.93004 1.91408 3.65621 1.64663 3.38214C1.48175 3.21321 1.31666 3.04451 1.15126 2.87611C1.03783 2.76058 0.924654 2.64479 0.81168 2.52878C0.746562 2.46193 0.681296 2.39525 0.615788 2.3288C0.544621 2.25658 0.473909 2.18391 0.403289 2.11112C0.372422 2.08012 0.372422 2.08012 0.34093 2.0485C0.152121 1.85208 0.0228918 1.6337 0.00877914 1.35307C0.0186565 0.980157 0.226877 0.751745 0.473879 0.499277C0.515566 0.456496 0.556608 0.413128 0.597648 0.369693C0.892824 0.0624851 1.25116 -0.113088 1.66959 0.0821079Z" fill="black"/>
</svg>
