<svg width="20" height="20" viewBox="0 0 20 20" fill="none" xmlns="http://www.w3.org/2000/svg">
<path d="M7.0386 10.5493C8.25348 11.351 9.80585 11.561 11.2229 11.2706C11.881 11.1258 12.6325 10.8713 13.1476 10.4195C13.2422 10.3516 13.2422 10.3516 13.3364 10.3452C13.4622 10.3707 13.5865 10.3982 13.711 10.4297C13.7394 10.4369 13.7678 10.444 13.797 10.4514C15.3168 10.8455 16.6055 11.815 17.4073 13.1665C17.7306 13.7295 17.956 14.3254 18.086 14.9609C18.0991 15.0196 18.0991 15.0196 18.1125 15.0795C18.2136 15.605 18.2979 16.3102 18.0005 16.7818C17.9771 16.8125 17.9538 16.8433 17.9297 16.875C17.8971 16.9205 17.8971 16.9205 17.8638 16.967C16.7606 18.3484 14.28 18.6997 12.6514 18.8861C11.7797 18.9819 10.9087 19.0319 10.0318 19.0308C9.99637 19.0307 9.96098 19.0307 9.92451 19.0307C7.5237 19.0264 4.16308 18.8655 2.30471 17.1484C1.96429 16.7926 1.80714 16.4622 1.81643 15.9692C1.8169 15.9285 1.81737 15.8878 1.81786 15.8458C1.84063 14.9319 2.0998 14.0778 2.53908 13.2812C2.55273 13.2562 2.56638 13.2312 2.58044 13.2054C2.78778 12.8295 3.02832 12.5019 3.32033 12.1875C3.34114 12.165 3.36194 12.1425 3.38337 12.1193C4.17674 11.2703 5.16445 10.7147 6.28908 10.4272C6.322 10.4188 6.35492 10.4104 6.38884 10.4016C6.67316 10.334 6.79803 10.3845 7.0386 10.5493Z" fill="#062146"/>
<path d="M12.6308 1.82832C13.5738 2.60885 14.2407 3.60364 14.375 4.84376C14.45 6.36409 14.0438 7.72248 13.0274 8.87453C12.969 8.93745 12.9105 9.00012 12.8516 9.06251C12.8248 9.09177 12.7981 9.12103 12.7705 9.15117C12.2468 9.70394 11.5572 10.0902 10.8203 10.2735C10.7875 10.2822 10.7547 10.291 10.7208 10.3C9.79741 10.5093 8.81313 10.2762 8.01944 9.78595C6.85507 9.03926 6.10753 7.88126 5.7422 6.56251C5.73475 6.53666 5.72731 6.51081 5.71963 6.48418C5.42198 5.40904 5.62151 4.22629 6.12794 3.25197C6.53984 2.5298 7.12578 1.92783 7.85157 1.52345C7.88979 1.50215 7.92801 1.48085 7.96739 1.45891C9.42544 0.689757 11.3154 0.819504 12.6308 1.82832Z" fill="#062146"/>
</svg>
