<svg width="10" height="10" viewBox="0 0 10 10" fill="none" xmlns="http://www.w3.org/2000/svg">
<path d="M6.25 8C5.9 8 5.60417 7.87917 5.3625 7.6375C5.12083 7.39583 5 7.1 5 6.75C5 6.4 5.12083 6.10417 5.3625 5.8625C5.60417 5.62083 5.9 5.5 6.25 5.5C6.6 5.5 6.89583 5.62083 7.1375 5.8625C7.37917 6.10417 7.5 6.4 7.5 6.75C7.5 7.1 7.37917 7.39583 7.1375 7.6375C6.89583 7.87917 6.6 8 6.25 8ZM1.5 10C1.225 10 0.989583 9.90208 0.79375 9.70625C0.597917 9.51042 0.5 9.275 0.5 9V2C0.5 1.725 0.597917 1.48958 0.79375 1.29375C0.989583 1.09792 1.225 1 1.5 1H2V0H3V1H7V0H8V1H8.5C8.775 1 9.01042 1.09792 9.20625 1.29375C9.40208 1.48958 9.5 1.725 9.5 2V9C9.5 9.275 9.40208 9.51042 9.20625 9.70625C9.01042 9.90208 8.775 10 8.5 10H1.5ZM1.5 9H8.5V4H1.5V9ZM1.5 3H8.5V2H1.5V3Z" fill="#D9D9D9"/>
</svg>
