<svg width="50" height="50" viewBox="0 0 50 50" fill="none" xmlns="http://www.w3.org/2000/svg">
<circle cx="25" cy="25" r="24.5" stroke="#D9D9D9"/>
<path d="M27.5 31C26.8 31 26.2083 30.7583 25.725 30.275C25.2417 29.7917 25 29.2 25 28.5C25 27.8 25.2417 27.2083 25.725 26.725C26.2083 26.2417 26.8 26 27.5 26C28.2 26 28.7917 26.2417 29.275 26.725C29.7583 27.2083 30 27.8 30 28.5C30 29.2 29.7583 29.7917 29.275 30.275C28.7917 30.7583 28.2 31 27.5 31ZM18 35C17.45 35 16.9792 34.8042 16.5875 34.4125C16.1958 34.0208 16 33.55 16 33V19C16 18.45 16.1958 17.9792 16.5875 17.5875C16.9792 17.1958 17.45 17 18 17H19V15H21V17H29V15H31V17H32C32.55 17 33.0208 17.1958 33.4125 17.5875C33.8042 17.9792 34 18.45 34 19V33C34 33.55 33.8042 34.0208 33.4125 34.4125C33.0208 34.8042 32.55 35 32 35H18ZM18 33H32V23H18V33ZM18 21H32V19H18V21Z" fill="#D9D9D9"/>
</svg>
