<svg width="16" height="16" viewBox="0 0 16 16" fill="none" xmlns="http://www.w3.org/2000/svg">
<path d="M7.53279 5.98288e-05C7.56261 0.000122968 7.59243 0.000186107 7.62315 0.00025116C8.05115 0.00170636 8.47104 0.00905684 8.89143 0.0971057C8.91999 0.102926 8.94855 0.108747 8.97797 0.114744C10.1222 0.354103 11.1897 0.811887 12.1141 1.53265C12.14 1.55237 12.1659 1.57208 12.1926 1.59239C12.6493 1.94699 13.0774 2.36591 13.4324 2.82172C13.466 2.86284 13.466 2.86284 13.5003 2.9048C14.5148 4.17172 15.0566 5.79767 15.053 7.41334C15.0529 7.49946 15.0536 7.58555 15.0544 7.67166C15.0557 8.06346 15.0203 8.44127 14.9559 8.82757C14.9476 8.87754 14.9476 8.87754 14.9392 8.92852C14.7334 10.0744 14.2358 11.1637 13.5203 12.0795C13.4981 12.108 13.4758 12.1365 13.4529 12.1658C13.0916 12.6164 12.6872 13.0427 12.2313 13.3979C12.2039 13.4203 12.1764 13.4427 12.1482 13.4658C11.2121 14.2154 10.0646 14.699 8.89143 14.9213C8.86772 14.9261 8.844 14.9309 8.81957 14.9359C7.93946 15.1079 6.92454 15.0758 6.04963 14.892C6.00501 14.8828 6.00501 14.8828 5.9595 14.8735C4.8713 14.6423 3.84989 14.1705 2.97346 13.4858C2.94498 13.4635 2.91651 13.4413 2.88717 13.4184C2.4366 13.057 2.01025 12.6527 1.6551 12.1967C1.62151 12.1556 1.62151 12.1556 1.58724 12.1136C0.837622 11.1775 0.353938 10.0301 0.131663 8.85687C0.126867 8.83316 0.12207 8.80945 0.117129 8.78502C-0.0431134 7.9651 -0.0395708 6.97911 0.131663 6.16156C0.137483 6.133 0.143304 6.10444 0.149301 6.07501C0.450932 4.63306 1.10825 3.3607 2.12385 2.29437C2.14056 2.27682 2.15726 2.25928 2.17448 2.2412C2.40878 1.99694 2.64942 1.77296 2.9214 1.57131C2.97506 1.53146 3.02823 1.49101 3.08138 1.45048C3.32827 1.26391 3.58305 1.09892 3.85237 0.946715C3.87083 0.936079 3.8893 0.925444 3.90833 0.914486C5.01423 0.281382 6.26723 -0.00475917 7.53279 5.98288e-05ZM2.97346 2.82172C2.95889 2.83549 2.94431 2.84927 2.9293 2.86346C2.69475 3.08603 2.49277 3.32443 2.29963 3.58343C2.28717 3.59981 2.27472 3.6162 2.26188 3.63307C2.0493 3.91308 1.87545 4.20909 1.71369 4.52093C1.70225 4.54287 1.6908 4.56481 1.679 4.58741C1.21428 5.48936 0.997233 6.47838 0.999583 7.48907C0.999609 7.51613 0.999634 7.54318 0.999661 7.57105C1.00504 9.29463 1.69811 10.8726 2.88557 12.1088C2.91065 12.1351 2.93572 12.1614 2.96156 12.1885C3.13052 12.3617 3.30865 12.5185 3.5008 12.6655C3.51969 12.6799 3.53858 12.6944 3.55804 12.7093C3.87539 12.9503 4.2009 13.1577 4.55549 13.3393C4.57726 13.3506 4.59903 13.3619 4.62145 13.3736C6.14661 14.1597 7.94249 14.2632 9.56875 13.7479C10.5495 13.425 11.4023 12.8792 12.1434 12.1674C12.1828 12.1298 12.1828 12.1298 12.223 12.0914C12.3963 11.9225 12.5531 11.7443 12.7 11.5522C12.7145 11.5333 12.729 11.5144 12.7439 11.4949C12.9849 11.1776 13.1922 10.8521 13.3738 10.4975C13.3852 10.4757 13.3965 10.454 13.4082 10.4315C13.8762 9.52349 14.0904 8.53011 14.088 7.51288C14.0879 7.48659 14.0879 7.46031 14.0879 7.43323C14.0824 5.71475 13.3835 4.14211 12.202 2.90961C12.1758 2.88185 12.1496 2.85409 12.1226 2.82549C11.9203 2.6164 11.7019 2.43885 11.4696 2.26507C11.4531 2.25257 11.4367 2.24007 11.4198 2.22719C11.1398 2.01467 10.8438 1.84086 10.5321 1.67914C10.5101 1.66769 10.4882 1.65624 10.4656 1.64445C8.02225 0.385537 4.98694 0.898955 2.97346 2.82172Z" fill="#D9D9D9"/>
<path d="M7.84088 3.47918C7.94787 3.56886 8.0048 3.67056 8.02269 3.80765C8.02585 3.90275 8.02526 3.99719 8.02342 4.09233C8.02321 4.12842 8.023 4.1645 8.02277 4.20169C8.02226 4.27988 8.02155 4.35805 8.02051 4.43624C8.01893 4.56015 8.01847 4.68405 8.01822 4.80796C8.01737 5.16022 8.01547 5.51246 8.01145 5.8647C8.00924 6.0595 8.00819 6.25426 8.00841 6.44907C8.00847 6.55196 8.00793 6.65476 8.00593 6.75763C7.97246 7.23171 7.97246 7.23171 8.15422 7.6463C8.2196 7.70539 8.29069 7.75366 8.36411 7.80219C8.42548 7.86727 8.42548 7.86727 8.47214 7.92487C8.57639 8.04674 8.68912 8.15869 8.80356 8.27094C8.91954 8.38469 9.03356 8.49838 9.13956 8.62158C9.25067 8.75059 9.37062 8.86947 9.49204 8.98871C9.63204 9.12621 9.76659 9.26527 9.89458 9.41403C9.98522 9.51613 10.0831 9.61092 10.1805 9.70648C10.2965 9.82023 10.4105 9.93389 10.5164 10.0571C10.6474 10.2092 10.7916 10.3474 10.9355 10.4871C11.3258 10.8714 11.3258 10.8714 11.3322 11.1201C11.3307 11.2692 11.3084 11.3507 11.2059 11.4643C11.0758 11.5817 10.9781 11.6221 10.8005 11.6187C10.571 11.59 10.4234 11.4253 10.2776 11.261C10.2366 11.2162 10.1957 11.1714 10.1547 11.1267C10.1243 11.0935 10.1243 11.0935 10.0934 11.0595C9.99318 10.9515 9.88831 10.8483 9.78281 10.7454C9.70322 10.6672 9.62816 10.5868 9.55532 10.5022C9.44277 10.3721 9.32175 10.2518 9.19907 10.1313C9.05906 9.99379 8.92451 9.85473 8.79652 9.70597C8.70589 9.60387 8.60802 9.50908 8.51059 9.41352C8.39462 9.29976 8.2806 9.18607 8.17459 9.06287C8.06348 8.93387 7.94353 8.81498 7.82212 8.69574C7.67989 8.55606 7.54289 8.41478 7.41289 8.26361C7.3411 8.1816 7.26233 8.10748 7.18342 8.03244C7.08442 7.92411 7.06769 7.8365 7.06721 7.69125C7.06696 7.65662 7.06671 7.622 7.06645 7.58633C7.06648 7.54845 7.06651 7.51056 7.06653 7.47153C7.06636 7.43115 7.06616 7.39077 7.06594 7.35039C7.06542 7.24076 7.06528 7.13114 7.06525 7.02151C7.0652 6.95298 7.06508 6.88445 7.06492 6.81592C7.06438 6.57672 7.06414 6.33752 7.06419 6.09831C7.06422 5.87554 7.06361 5.65278 7.06268 5.43002C7.06191 5.23861 7.0616 5.0472 7.06164 4.85579C7.06165 4.74154 7.06149 4.62729 7.06086 4.51304C7.0603 4.40552 7.06029 4.29802 7.06072 4.1905C7.06081 4.13243 7.06032 4.07436 7.05981 4.01629C7.06122 3.81712 7.07007 3.68548 7.19223 3.52484C7.39161 3.35771 7.6183 3.37571 7.84088 3.47918Z" fill="#D9D9D9"/>
</svg>
