<svg width="297" height="247" viewBox="0 0 297 247" fill="none" xmlns="http://www.w3.org/2000/svg">
<g clip-path="url(#clip0_21_156)">
<path d="M195.384 0H109.081C95.6582 0 84.7769 10.8908 84.7769 24.3253V221.71C84.7769 235.144 95.6582 246.035 109.081 246.035H195.384C208.807 246.035 219.688 235.144 219.688 221.71V24.3253C219.688 10.8908 208.807 0 195.384 0Z" fill="#3F3D56"/>
<path d="M217.413 24.327V221.71C217.406 227.556 215.083 233.16 210.953 237.293C206.823 241.426 201.224 243.751 195.384 243.758H109.082C103.242 243.751 97.6424 241.426 93.5127 237.293C89.383 233.16 87.06 227.556 87.0532 221.71V24.327C87.06 18.4816 89.383 12.8775 93.5127 8.74423C97.6424 4.61091 103.242 2.28584 109.082 2.27907H120.367V6.18084C120.367 7.94725 121.069 9.64127 122.316 10.8903C123.564 12.1393 125.257 12.8411 127.022 12.8412H177.444C179.209 12.8411 180.901 12.1393 182.149 10.8903C183.397 9.64127 184.098 7.94725 184.099 6.18084V2.27907H195.384C201.224 2.28584 206.823 4.61091 210.953 8.74423C215.083 12.8775 217.406 18.4816 217.413 24.327Z" fill="white"/>
<path d="M84.1561 49.9112C83.7172 49.9107 83.2965 49.736 82.9861 49.4254C82.6758 49.1148 82.5012 48.6936 82.5007 48.2544V44.9408C82.5007 44.5014 82.6751 44.08 82.9856 43.7692C83.296 43.4585 83.7171 43.284 84.1561 43.284C84.5951 43.284 85.0162 43.4585 85.3266 43.7692C85.637 44.08 85.8114 44.5014 85.8114 44.9408V48.2544C85.8109 48.6936 85.6364 49.1148 85.326 49.4254C85.0157 49.736 84.595 49.9107 84.1561 49.9112Z" fill="#3F3D56"/>
<path d="M84.1561 66.9023C83.7172 66.9018 83.2965 66.7271 82.9861 66.4165C82.6758 66.1059 82.5012 65.6848 82.5007 65.2455V56.1242C82.5007 55.6848 82.6751 55.2634 82.9856 54.9527C83.296 54.642 83.7171 54.4674 84.1561 54.4674C84.5951 54.4674 85.0162 54.642 85.3266 54.9527C85.637 55.2634 85.8114 55.6848 85.8114 56.1242V65.2455C85.8109 65.6848 85.6364 66.1059 85.326 66.4165C85.0157 66.7271 84.595 66.9018 84.1561 66.9023Z" fill="#3F3D56"/>
<path d="M84.1561 80.562C83.7172 80.5615 83.2965 80.3868 82.9861 80.0762C82.6758 79.7656 82.5012 79.3445 82.5007 78.9052V69.7839C82.5007 69.3445 82.6751 68.9231 82.9856 68.6124C83.296 68.3017 83.7171 68.1271 84.1561 68.1271C84.5951 68.1271 85.0162 68.3017 85.3266 68.6124C85.637 68.9231 85.8114 69.3445 85.8114 69.7839V78.9052C85.8109 79.3445 85.6364 79.7656 85.326 80.0762C85.0157 80.3868 84.595 80.5615 84.1561 80.562Z" fill="#3F3D56"/>
<path d="M219.895 73.1064C219.456 73.1059 219.036 72.9312 218.725 72.6206C218.415 72.31 218.24 71.8889 218.24 71.4496V49.1932C218.24 48.7538 218.414 48.3324 218.725 48.0217C219.035 47.711 219.456 47.5364 219.895 47.5364C220.334 47.5364 220.755 47.711 221.066 48.0217C221.376 48.3324 221.551 48.7538 221.551 49.1932V71.4496C221.55 71.8889 221.376 72.31 221.065 72.6206C220.755 72.9312 220.334 73.1059 219.895 73.1064Z" fill="#3F3D56"/>
<path d="M155.789 7.59884H142.96C142.685 7.59884 142.422 7.48974 142.228 7.29554C142.034 7.10135 141.925 6.83797 141.925 6.56333C141.925 6.2887 142.034 6.02532 142.228 5.83113C142.422 5.63693 142.685 5.52783 142.96 5.52783H155.789C156.063 5.52783 156.326 5.63693 156.52 5.83113C156.714 6.02532 156.823 6.2887 156.823 6.56333C156.823 6.83797 156.714 7.10135 156.52 7.29554C156.326 7.48974 156.063 7.59884 155.789 7.59884Z" fill="white"/>
<path d="M162.41 7.39174C162.867 7.39174 163.238 7.02085 163.238 6.56334C163.238 6.10583 162.867 5.73494 162.41 5.73494C161.953 5.73494 161.583 6.10583 161.583 6.56334C161.583 7.02085 161.953 7.39174 162.41 7.39174Z" fill="white"/>
<path d="M261.858 235.687C262.16 235.698 262.458 235.616 262.712 235.452C262.966 235.287 263.163 235.049 263.277 234.769C263.391 234.488 263.417 234.18 263.349 233.885C263.282 233.589 263.126 233.322 262.902 233.119C262.864 232.971 262.836 232.865 262.797 232.718C263.079 231.98 263.575 231.343 264.221 230.889C264.867 230.435 265.634 230.185 266.423 230.17C267.212 230.155 267.988 230.376 268.65 230.805C269.313 231.234 269.833 231.852 270.142 232.578C271.929 236.656 274.232 240.874 273.15 245.395C280.431 229.561 277.717 209.977 266.607 196.602C263.555 194.957 261.066 192.007 260.393 188.56C261.9 189.056 263.762 187.815 262.617 186.242C262.122 185.641 261.622 185.045 261.126 184.444C266.775 178.307 273.666 187.802 267.462 196.073C269.542 198.632 271.348 201.401 272.852 204.336C272.482 201.208 272.858 198.036 273.951 195.082C275.061 192.328 277.169 189.998 279.021 187.608C281.274 184.697 285.979 185.985 286.321 189.649C284.223 190.362 283.979 193.406 286.39 193.8C285.824 200.627 281.431 206.939 275.327 209.989C277.652 216.327 278.601 223.089 278.11 229.823C279.118 221.948 287.534 219.96 293.399 216.778C293.772 216.533 294.208 216.403 294.654 216.402C295.1 216.402 295.536 216.531 295.91 216.774C296.283 217.017 296.578 217.364 296.758 217.772C296.938 218.18 296.996 218.632 296.923 219.072C296.113 219.411 295.338 219.83 294.61 220.322C294.269 220.556 294.009 220.89 293.865 221.278C293.721 221.667 293.701 222.09 293.807 222.49C293.913 222.89 294.139 223.248 294.456 223.514C294.773 223.78 295.164 223.941 295.576 223.976C292.675 231.365 285.039 236.381 277.149 236.428C276.422 239.733 275.354 242.954 273.962 246.038L262.251 246.15C262.207 246.02 262.168 245.886 262.129 245.756C263.214 245.814 264.302 245.739 265.368 245.532C262.468 242.161 260.234 240.448 261.858 235.687Z" fill="#F2F2F2"/>
<path d="M35.1749 235.687C34.8727 235.698 34.5744 235.616 34.3205 235.452C34.0665 235.287 33.8692 235.049 33.7552 234.769C33.6412 234.488 33.616 234.18 33.6831 233.885C33.7503 233.589 33.9064 233.322 34.1304 233.119C34.169 232.971 34.1967 232.865 34.2353 232.718C33.9532 231.98 33.4574 231.343 32.8114 230.889C32.1655 230.435 31.3988 230.185 30.6097 230.17C29.8206 230.155 29.045 230.376 28.3823 230.805C27.7196 231.234 27.2001 231.852 26.8902 232.578C25.1034 236.656 22.8009 240.874 23.883 245.395C16.6019 229.561 19.3156 209.977 30.4259 196.602C33.4774 194.957 35.9661 192.007 36.6395 188.56C35.1323 189.056 33.2709 187.815 34.4155 186.242C34.9109 185.641 35.411 185.045 35.9063 184.444C30.2573 178.307 23.3667 187.802 29.5702 196.073C27.4908 198.632 25.6844 201.401 24.1804 204.336C24.551 201.208 24.1744 198.036 23.0814 195.082C21.9714 192.328 19.8639 189.998 18.0112 187.608C15.7587 184.697 11.0533 185.985 10.7116 189.649C12.8092 190.362 13.0536 193.406 10.6427 193.8C11.2082 200.627 15.6012 206.939 21.7054 209.989C19.3802 216.327 18.4314 223.089 18.9224 229.823C17.9147 221.948 9.49871 219.96 3.63334 216.778C3.26044 216.533 2.82452 216.403 2.37877 216.402C1.93303 216.402 1.49672 216.531 1.12307 216.774C0.749429 217.017 0.454597 217.364 0.274545 217.772C0.0944922 218.18 0.0370013 218.632 0.109087 219.072C0.919578 219.411 1.69443 219.83 2.42223 220.322C2.76323 220.556 3.0235 220.89 3.16738 221.278C3.31125 221.667 3.33169 222.09 3.22588 222.49C3.12007 222.89 2.89319 223.248 2.57635 223.514C2.25952 223.78 1.86822 223.941 1.45611 223.976C4.35758 231.365 11.9931 236.381 19.8838 236.428C20.6107 239.733 21.6788 242.954 23.0709 246.038L34.7819 246.15C34.8251 246.02 34.8642 245.886 34.9032 245.756C33.8186 245.814 32.7309 245.739 31.6646 245.532C34.5648 242.161 36.7993 240.448 35.1753 235.688L35.1749 235.687Z" fill="#F2F2F2"/>
<path d="M115.436 12.0421H104.263C103.714 12.0421 103.188 11.8239 102.8 11.4355C102.412 11.0471 102.194 10.5203 102.194 9.97107C102.194 9.42181 102.412 8.89504 102.8 8.50665C103.188 8.11826 103.714 7.90007 104.263 7.90007H115.436C115.985 7.90007 116.512 8.11826 116.9 8.50665C117.288 8.89504 117.506 9.42181 117.506 9.97107C117.506 10.5203 117.288 11.0471 116.9 11.4355C116.512 11.8239 115.985 12.0421 115.436 12.0421Z" fill="#E6E6E6"/>
<path d="M188.686 11.835C189.715 11.835 190.548 11.0005 190.548 9.97108C190.548 8.94168 189.715 8.10718 188.686 8.10718C187.658 8.10718 186.824 8.94168 186.824 9.97108C186.824 11.0005 187.658 11.835 188.686 11.835Z" fill="#E6E6E6"/>
<path d="M194.48 11.835C195.508 11.835 196.342 11.0005 196.342 9.97108C196.342 8.94168 195.508 8.10718 194.48 8.10718C193.451 8.10718 192.618 8.94168 192.618 9.97108C192.618 11.0005 193.451 11.835 194.48 11.835Z" fill="#E6E6E6"/>
<path d="M200.274 11.835C201.302 11.835 202.136 11.0005 202.136 9.97108C202.136 8.94168 201.302 8.10718 200.274 8.10718C199.245 8.10718 198.411 8.94168 198.411 9.97108C198.411 11.0005 199.245 11.835 200.274 11.835Z" fill="#E6E6E6"/>
<path d="M187.384 40.9881H117.156C115.795 40.99 114.491 41.5317 113.529 42.4945C112.567 43.4573 112.026 44.7626 112.024 46.1242V91.8147C112.026 93.1763 112.567 94.4816 113.529 95.4444C114.491 96.4072 115.795 96.9489 117.156 96.9508H187.384C188.745 96.9496 190.049 96.4081 191.011 95.4452C191.973 94.4822 192.514 93.1765 192.516 91.8147V46.1242C192.514 44.7624 191.973 43.4567 191.011 42.4937C190.049 41.5308 188.745 40.9893 187.384 40.9881Z" fill="#F2F2F2"/>
<path d="M165.398 60.4936C159.051 71.7244 152.048 82.5705 144.424 92.9751H133.411C140.624 84.1793 147.843 75.3836 155.068 66.5879C157.14 64.0553 159.389 61.4021 162.498 60.373L165.398 60.4936Z" fill="#3F3D56"/>
<path d="M150.762 58.6926C149.613 59.8906 148.513 61.1368 147.476 62.4312C145.195 65.1809 142.946 67.9547 140.689 70.7204C139.283 72.441 137.877 74.1615 136.487 75.8821C136.046 75.5984 135.627 75.2812 135.234 74.9334C133.015 73.0051 131.638 70.2834 131.399 67.3515C131.16 64.4195 132.078 61.5105 133.957 59.2479C135.835 56.9853 138.524 55.549 141.447 55.2468C144.371 54.9446 147.297 55.8006 149.597 57.6313C150.012 57.955 150.401 58.3098 150.762 58.6926Z" fill="#05A0DD"/>
<path d="M192.516 57.3863V59.0555L191.771 58.7822L181.288 54.9467C177.874 53.6999 174.468 52.2751 170.942 51.3763C167.875 50.498 164.617 50.5397 161.573 51.4964C158.859 52.5012 156.376 54.0438 154.273 56.0319C153.342 56.8934 152.439 57.7757 151.566 58.691C151.281 58.9934 150.995 59.2958 150.714 59.5981C149.869 60.5177 149.054 61.4579 148.28 62.4313C146 65.1816 143.749 67.9567 141.493 70.7194C140.086 72.4425 138.679 74.1614 137.289 75.8804C132.645 81.5673 128.03 87.2654 123.442 92.9744C122.824 92.9675 122.209 92.8897 121.608 92.7425C126.289 86.923 130.991 81.1186 135.716 75.3295C135.824 75.1969 135.931 75.0644 136.039 74.9318C136.594 74.2401 137.16 73.5443 137.723 72.8526C140.078 69.9656 142.434 67.0814 144.792 64.1999C146.505 62.104 148.206 59.9999 150.052 58.0117C150.163 57.8833 150.279 57.7591 150.399 57.6307C150.577 57.4402 150.755 57.2538 150.937 57.0591C154.947 52.9129 159.951 49.2473 165.943 49.1478C169.469 49.094 172.875 50.2123 176.152 51.3928C179.682 52.6727 183.2 53.9733 186.726 55.2656L192.516 57.3863Z" fill="#3F3D56"/>
<path d="M194.167 197.83H110.299C108.938 197.828 107.634 197.287 106.672 196.324C105.71 195.361 105.169 194.056 105.167 192.694V181.381C105.169 180.019 105.71 178.714 106.672 177.751C107.634 176.789 108.938 176.247 110.299 176.245H194.167C195.527 176.247 196.832 176.789 197.793 177.751C198.755 178.714 199.297 180.019 199.298 181.381V192.694C199.297 194.056 198.755 195.361 197.793 196.324C196.832 197.287 195.527 197.828 194.167 197.83Z" fill="#F2F2F2"/>
<path d="M194.167 139.842H110.299C108.938 139.84 107.634 139.299 106.672 138.336C105.71 137.373 105.169 136.068 105.167 134.706V123.393C105.169 122.031 105.71 120.726 106.672 119.763C107.634 118.8 108.938 118.259 110.299 118.257H194.167C195.527 118.259 196.832 118.8 197.793 119.763C198.755 120.726 199.297 122.031 199.298 123.393V134.706C199.297 136.068 198.755 137.373 197.793 138.336C196.832 139.299 195.527 139.84 194.167 139.842Z" fill="#F2F2F2"/>
<path d="M194.167 168.836H110.299C108.938 168.834 107.634 168.293 106.672 167.33C105.71 166.367 105.169 165.062 105.167 163.7V152.387C105.169 151.025 105.71 149.72 106.672 148.757C107.634 147.794 108.938 147.253 110.299 147.251H194.167C195.527 147.253 196.832 147.794 197.793 148.757C198.755 149.72 199.297 151.025 199.298 152.387V163.7C199.297 165.062 198.755 166.367 197.793 167.33C196.832 168.293 195.527 168.834 194.167 168.836Z" fill="#F2F2F2"/>
<path d="M162.422 185.101H137.711C137.418 185.101 137.137 184.985 136.929 184.777C136.722 184.57 136.606 184.288 136.606 183.995C136.606 183.702 136.722 183.42 136.929 183.213C137.137 183.005 137.418 182.889 137.711 182.889H162.422C162.715 182.889 162.997 183.005 163.204 183.213C163.411 183.42 163.528 183.702 163.528 183.995C163.528 184.288 163.411 184.57 163.204 184.777C162.997 184.985 162.715 185.101 162.422 185.101Z" fill="white"/>
<path d="M186.189 191.187H137.435C137.142 191.187 136.86 191.07 136.653 190.863C136.446 190.655 136.329 190.374 136.329 190.08C136.329 189.787 136.446 189.505 136.653 189.298C136.86 189.09 137.142 188.974 137.435 188.974H186.189C186.482 188.974 186.763 189.09 186.971 189.298C187.178 189.505 187.294 189.787 187.294 190.08C187.294 190.374 187.178 190.655 186.971 190.863C186.763 191.07 186.482 191.187 186.189 191.187Z" fill="white"/>
<path d="M124.583 194.456C128.676 194.456 131.995 191.134 131.995 187.038C131.995 182.941 128.676 179.619 124.583 179.619C120.49 179.619 117.171 182.941 117.171 187.038C117.171 191.134 120.49 194.456 124.583 194.456Z" fill="white"/>
<path d="M122.932 197.058C122.175 196.704 121.311 196.66 120.522 196.934C119.734 197.208 119.083 197.78 118.709 198.527C118.636 198.68 118.575 198.839 118.527 199.002L107.367 199.669L105.712 205.457L120.903 202.888C121.594 203.032 122.313 202.944 122.948 202.636C123.584 202.329 124.099 201.819 124.415 201.187C124.591 200.826 124.694 200.433 124.719 200.032C124.744 199.631 124.689 199.229 124.558 198.849C124.428 198.468 124.223 198.118 123.957 197.817C123.691 197.516 123.369 197.27 123.008 197.094C122.982 197.081 122.957 197.069 122.932 197.058Z" fill="#FFB6B6"/>
<path d="M98.2961 168.511C97.5607 168.21 96.7691 168.071 95.9751 168.103C95.1811 168.135 94.4034 168.339 93.6949 168.699C92.9863 169.059 92.3636 169.567 91.869 170.19C91.3743 170.812 91.0195 171.534 90.8285 172.306L87.76 184.709L88.3372 206.406C88.3372 206.406 104.354 209.482 107.042 207.505C109.731 205.527 109.479 204.056 109.731 205.527C109.984 206.999 111.138 207.617 111.154 207.031C111.17 206.446 111.3 206.546 111.97 206.37C112.64 206.193 115.598 205.102 115.598 205.102L115.73 198.916C115.73 198.916 110.841 197.061 109.655 197.615C108.469 198.168 109.907 199.086 108.469 198.168C107.03 197.25 106.873 194.351 106.627 196.963C106.381 199.576 105.661 200.062 104.583 198.9C103.504 197.739 98.5072 198.481 98.5072 198.481L101.687 174.362C101.847 173.149 101.601 171.917 100.987 170.858C100.374 169.8 99.4277 168.974 98.2961 168.511Z" fill="#05A0DD"/>
<path d="M206.157 232.855L206.325 228.286L188.798 225.461L188.55 232.204L206.157 232.855Z" fill="#FFB6B6"/>
<path d="M202.975 234.23L202.809 226.915L205.934 227.03L210.978 220.268C211.227 219.934 211.576 219.688 211.975 219.567C212.373 219.446 212.8 219.455 213.192 219.594C213.585 219.732 213.923 219.993 214.158 220.337C214.392 220.682 214.51 221.093 214.495 221.509L214.174 230.199L211.028 231.583L214.097 232.282L213.977 235.558L202.975 234.23Z" fill="#2F2E41"/>
<path d="M107.514 243.332L163.028 236.871C163.028 236.871 187.001 238.256 192.625 234.594L198.557 233.845L198.878 225.125C198.878 225.125 195.251 225.152 193.166 224.179C191.08 223.207 192.53 222.017 190.542 223.187C188.553 224.357 188.763 224.497 187.226 223.96C185.689 223.422 115.197 220.538 115.197 220.538L107.514 243.332Z" fill="#2F2E41"/>
<path d="M180.667 239.548L183.895 236.313L172.965 222.311L168.201 227.086L180.667 239.548Z" fill="#FFB6B6"/>
<path d="M177.4 238.39L182.249 232.914L184.461 235.126L192.754 233.602C193.164 233.527 193.587 233.584 193.961 233.767C194.336 233.949 194.642 234.246 194.836 234.615C195.03 234.984 195.1 235.406 195.038 235.818C194.975 236.23 194.783 236.611 194.489 236.906L188.349 243.058L185.102 241.931L186.877 244.533L184.562 246.853L177.4 238.39Z" fill="#2F2E41"/>
<path d="M85.6128 212.902L86.1647 225.742C86.8144 240.858 103.446 250.006 116.343 242.114C116.581 241.969 116.819 241.818 117.059 241.662C117.059 241.662 121.948 240.348 121.799 238.267C121.651 236.186 122.845 235.173 123.902 235.74C124.959 236.308 138.799 216.65 138.799 216.65C138.799 216.65 167.553 231.005 173.897 234.385L180.59 232.559C180.59 232.559 183.109 233.75 182.201 232.028C181.294 230.306 181.131 231.131 180.853 229.254C180.574 227.378 179.861 225.051 179.428 225.149C178.996 225.247 143.856 200.631 143.856 200.631C143.856 200.631 138.131 194.832 131.03 198.661C130.882 199.223 131.008 199.243 131.008 199.243L107.55 218.374L104.236 212.074L85.6128 212.902Z" fill="#2F2E41"/>
<path d="M101.38 165.724L91.3217 161.006L88.3105 166.25C88.3105 166.25 80.2234 177.8 80.1061 186.133C79.9887 194.466 81.424 196.944 81.424 196.944C81.424 196.944 77.9371 199.553 79.6805 201.148C81.424 202.743 85.2837 203.431 82.3193 204.123C79.3548 204.814 80.1061 211.814 83.4168 213.056C86.7275 214.299 104.508 214.288 104.508 214.288C104.348 213.745 104.336 213.17 104.474 212.621C104.611 212.072 104.893 211.57 105.29 211.167C106.668 209.784 107.91 210.777 106.668 208.624C105.427 206.471 103.357 207.713 105.013 204.814C106.668 201.915 106.668 201.048 106.668 201.048C106.668 201.048 110.042 194.62 104.959 187.647C104.649 187.222 104.91 187.205 104.91 187.205L100.805 173.439L101.38 165.724Z" fill="#05A0DD"/>
<path d="M85.1707 145.886C85.2558 148.012 83.9169 151.025 83.2576 152.842C82.5527 154.784 85.6079 157.362 87.5634 157.926C87.6652 157.253 88.0005 156.638 88.5106 156.188C88.3696 156.829 88.3573 157.492 88.4744 158.138L105.006 161.905C107.981 158.458 110.971 153.502 110.319 147.525C110.475 146.39 110.293 145.235 109.795 144.203C109.297 143.171 108.506 142.31 107.521 141.726L99.163 136.785C95.6081 135.975 91.1312 135.486 88.5635 137.687C87.4163 138.709 86.5151 139.977 85.9275 141.397C85.3399 142.817 85.0812 144.352 85.1707 145.886Z" fill="#2F2E41"/>
<path d="M99.948 160.084C105.205 160.084 109.466 155.819 109.466 150.557C109.466 145.296 105.205 141.031 99.948 141.031C94.6912 141.031 90.4297 145.296 90.4297 150.557C90.4297 155.819 94.6912 160.084 99.948 160.084Z" fill="#FFB6B6"/>
<path d="M88.7972 145.468L88.3379 147.487L96.3678 149.317C96.375 148.908 96.4664 148.506 96.6363 148.134C96.8062 147.763 97.051 147.431 97.3553 147.159C97.1821 147.95 97.2019 148.772 97.4129 149.555C101.744 151.987 105.647 152.849 109.147 152.228C109.621 152.336 110.119 152.252 110.53 151.992C110.942 151.733 111.234 151.321 111.342 150.846C112.75 144.655 109.061 138.327 102.905 136.79C101.409 136.416 99.8531 136.344 98.3288 136.58C96.8045 136.815 95.3425 137.352 94.0285 138.161C92.7145 138.969 91.575 140.031 90.6767 141.286C89.7784 142.541 89.1394 143.963 88.7972 145.468Z" fill="#2F2E41"/>
<path d="M93.4921 132.145C94.5509 131.915 95.6714 131.97 96.6288 131.252L96.0009 132.695C97.7416 132.218 99.5973 132.403 101.209 133.216C101.689 133.431 102.097 133.777 102.388 134.215C102.545 134.479 102.64 134.775 102.667 135.081C102.694 135.387 102.651 135.695 102.543 135.983C102.441 136.23 102.287 136.452 102.094 136.636C101.9 136.82 101.67 136.962 101.419 137.052C100.973 137.186 100.506 137.235 100.042 137.196C98.088 137.151 96.1338 137.105 94.1797 137.06C93.4349 137.106 92.6907 136.961 92.0175 136.639C91.6596 136.418 91.374 136.097 91.1958 135.715C91.0176 135.334 90.9546 134.909 91.0144 134.492C91.2008 133.181 92.4333 132.375 93.4921 132.145Z" fill="#2F2E41"/>
<path d="M145.124 206.809C145.102 206.781 145.076 206.757 145.047 206.737C144.975 206.654 144.889 206.587 144.792 206.537L144.095 206.164L139.471 201.026C139.203 200.886 138.892 200.857 138.603 200.943L138.591 200.946L136.61 201.56L134.907 202.089L132.527 202.827L116.318 207.85L105.664 211.152C105.376 211.243 105.135 211.444 104.994 211.711C104.852 211.978 104.821 212.29 104.907 212.58C104.957 212.74 105.04 212.887 105.15 213.013L105.489 213.39L106.2 214.183L107.848 217.6L108.305 218.111C108.451 218.274 108.64 218.391 108.85 218.45C109.06 218.509 109.282 218.507 109.491 218.444L144.591 208.675C144.773 208.616 144.938 208.513 145.071 208.375C145.204 208.237 145.302 208.069 145.354 207.884C145.407 207.7 145.414 207.505 145.374 207.318C145.334 207.13 145.248 206.955 145.124 206.809Z" fill="#CCCCCC"/>
<path d="M143.041 155.984L142.361 156.094C142.175 156.125 142.008 156.229 141.898 156.382L141.598 156.801L138.897 163.562C138.787 163.716 138.743 163.908 138.774 164.095L139.091 166.021L137.895 200.402C137.925 200.58 138.02 200.74 138.162 200.851L143.407 207.873L143.529 207.97L143.793 208.177C143.929 208.282 144.097 208.336 144.268 208.328L144.713 208.307C144.815 208.302 144.914 208.276 145.004 208.23C145.094 208.184 145.174 208.119 145.237 208.04C145.301 207.962 145.348 207.87 145.373 207.772C145.399 207.674 145.403 207.572 145.386 207.472L143.864 156.572C143.834 156.385 143.73 156.218 143.576 156.108C143.422 155.997 143.231 155.953 143.044 155.983L143.041 155.984Z" fill="#CCCCCC"/>
<path d="M141.903 158.655L139.51 165.951L138.584 195.091L142.309 198.405L141.903 158.655Z" fill="#05A0DD"/>
<path d="M123.398 203.106C122.642 202.752 121.778 202.708 120.989 202.982C120.201 203.257 119.55 203.828 119.176 204.575C119.102 204.728 119.042 204.887 118.994 205.05L107.833 205.718L106.179 211.505L121.369 208.936C122.06 209.081 122.78 208.992 123.415 208.685C124.05 208.377 124.566 207.867 124.882 207.236C125.238 206.506 125.289 205.665 125.025 204.897C124.761 204.129 124.203 203.498 123.474 203.142C123.449 203.13 123.424 203.118 123.398 203.106Z" fill="#FFB6B6"/>
<path d="M98.7629 174.559C98.0275 174.258 97.2359 174.119 96.4419 174.151C95.6479 174.184 94.8702 174.387 94.1617 174.747C93.4531 175.107 92.8304 175.616 92.3357 176.238C91.8411 176.861 91.4863 177.582 91.2953 178.354L88.2268 190.757L88.804 212.454C88.804 212.454 104.82 215.53 107.509 213.553C110.198 211.576 109.945 210.104 110.198 211.576C110.45 213.048 111.604 213.665 111.62 213.08C111.636 212.494 111.767 212.594 112.437 212.418C113.107 212.242 116.064 211.151 116.064 211.151L116.197 204.964C116.197 204.964 111.308 203.109 110.122 203.663C108.936 204.216 110.374 205.135 108.936 204.216C107.497 203.298 107.34 200.399 107.094 203.012C106.848 205.624 106.128 206.11 105.049 204.949C103.971 203.787 98.974 204.529 98.974 204.529L102.154 180.41C102.314 179.197 102.068 177.965 101.454 176.907C100.841 175.848 99.8945 175.023 98.7629 174.559Z" fill="#05A0DD"/>
<path d="M2.1797e-06 246.507C-0.000190698 246.572 0.0124189 246.636 0.037101 246.696C0.0617831 246.756 0.0980544 246.81 0.143825 246.856C0.189596 246.902 0.243963 246.938 0.303802 246.963C0.363641 246.988 0.427769 247 0.492497 247H296.508C296.638 247 296.763 246.948 296.856 246.856C296.948 246.763 297 246.638 297 246.507C297 246.376 296.948 246.251 296.856 246.159C296.763 246.066 296.638 246.014 296.508 246.014H0.492472C0.427746 246.014 0.363624 246.027 0.303789 246.051C0.243954 246.076 0.189587 246.112 0.143819 246.158C0.0980512 246.204 0.0617823 246.258 0.037101 246.318C0.0124196 246.378 -0.000188485 246.442 2.1797e-06 246.507Z" fill="#CCCCCC"/>
<path d="M261.209 139.842H177.341C175.98 139.84 174.676 139.299 173.714 138.336C172.752 137.373 172.211 136.068 172.209 134.706V123.393C172.211 122.031 172.752 120.726 173.714 119.763C174.676 118.8 175.98 118.259 177.341 118.257H261.209C262.569 118.259 263.873 118.8 264.835 119.763C265.797 120.726 266.339 122.031 266.34 123.393V134.706C266.339 136.068 265.797 137.373 264.835 138.336C263.873 139.299 262.569 139.84 261.209 139.842Z" fill="#E6E6E6"/>
<path d="M229.464 127.113H204.753C204.46 127.113 204.179 126.997 203.971 126.789C203.764 126.582 203.648 126.3 203.648 126.007C203.648 125.713 203.764 125.432 203.971 125.225C204.179 125.017 204.46 124.9 204.753 124.9H229.464C229.757 124.9 230.039 125.017 230.246 125.225C230.453 125.432 230.57 125.713 230.57 126.007C230.57 126.3 230.453 126.582 230.246 126.789C230.039 126.997 229.757 127.113 229.464 127.113Z" fill="white"/>
<path d="M253.231 133.199H204.477C204.184 133.199 203.902 133.082 203.695 132.874C203.488 132.667 203.371 132.386 203.371 132.092C203.371 131.799 203.488 131.517 203.695 131.31C203.902 131.102 204.184 130.986 204.477 130.986H253.231C253.524 130.986 253.805 131.102 254.013 131.31C254.22 131.517 254.336 131.799 254.336 132.092C254.336 132.386 254.22 132.667 254.013 132.874C253.805 133.082 253.524 133.199 253.231 133.199Z" fill="white"/>
<path d="M191.625 136.468C195.718 136.468 199.037 133.146 199.037 129.049C199.037 124.953 195.718 121.631 191.625 121.631C187.532 121.631 184.213 124.953 184.213 129.049C184.213 133.146 187.532 136.468 191.625 136.468Z" fill="white"/>
<path d="M234.309 168.836H150.441C149.081 168.834 147.777 168.293 146.815 167.33C145.853 166.367 145.312 165.062 145.31 163.7V152.387C145.312 151.025 145.853 149.72 146.815 148.757C147.777 147.794 149.081 147.253 150.441 147.251H234.309C235.67 147.253 236.974 147.794 237.936 148.757C238.898 149.72 239.439 151.025 239.441 152.387V163.7C239.439 165.062 238.898 166.367 237.936 167.33C236.974 168.293 235.67 168.834 234.309 168.836Z" fill="#E6E6E6"/>
<path d="M202.565 156.107H177.853C177.56 156.107 177.279 155.991 177.072 155.783C176.865 155.576 176.748 155.294 176.748 155.001C176.748 154.708 176.865 154.426 177.072 154.219C177.279 154.011 177.56 153.895 177.853 153.895H202.565C202.858 153.895 203.139 154.011 203.346 154.219C203.553 154.426 203.67 154.708 203.67 155.001C203.67 155.294 203.553 155.576 203.346 155.783C203.139 155.991 202.858 156.107 202.565 156.107Z" fill="white"/>
<path d="M226.331 162.193H177.577C177.284 162.193 177.003 162.076 176.795 161.868C176.588 161.661 176.472 161.38 176.472 161.086C176.472 160.793 176.588 160.511 176.795 160.304C177.003 160.096 177.284 159.98 177.577 159.98H226.331C226.625 159.98 226.906 160.096 227.113 160.304C227.32 160.511 227.437 160.793 227.437 161.086C227.437 161.38 227.32 161.661 227.113 161.868C226.906 162.076 226.625 162.193 226.331 162.193Z" fill="white"/>
<path d="M164.725 165.462C168.819 165.462 172.137 162.14 172.137 158.044C172.137 153.947 168.819 150.625 164.725 150.625C160.632 150.625 157.314 153.947 157.314 158.044C157.314 162.14 160.632 165.462 164.725 165.462Z" fill="white"/>
</g>
<defs>
<clipPath id="clip0_21_156">
<rect width="297" height="247" fill="white"/>
</clipPath>
</defs>
</svg>
