<svg width="15" height="15" viewBox="0 0 15 15" fill="none" xmlns="http://www.w3.org/2000/svg">
<path d="M6.28049 0.198666C6.31017 0.215425 6.33985 0.232184 6.37043 0.24945C6.53871 0.34516 6.70438 0.444778 6.86936 0.546042C6.90386 0.567027 6.93837 0.588013 6.97392 0.609634C7.04093 0.650589 7.1076 0.692101 7.17389 0.734216C7.20444 0.752941 7.23498 0.771666 7.26646 0.790959C7.30659 0.816199 7.30659 0.816199 7.34753 0.841949C7.46027 0.884771 7.52592 0.870042 7.64151 0.838627C7.7354 0.795597 7.7354 0.795597 7.82643 0.738907C7.87809 0.708238 7.87809 0.708238 7.93079 0.67695C7.96696 0.655086 8.00312 0.633222 8.04039 0.610696C8.11594 0.565979 8.19151 0.521278 8.26708 0.476594C8.36884 0.415982 8.47053 0.355261 8.57201 0.294191C8.64657 0.249449 8.72148 0.205366 8.7965 0.161408C8.81734 0.14857 8.83817 0.135732 8.85963 0.122506C9.05092 0.0113118 9.24258 -0.0186757 9.45989 0.0104579C9.48687 0.0190464 9.51386 0.0276349 9.54166 0.0364837C9.56892 0.0445298 9.59618 0.0525759 9.62426 0.0608658C9.91214 0.199086 10.0254 0.436478 10.1751 0.707128C10.2411 0.824507 10.3072 0.941613 10.3755 1.05763C10.4299 1.15283 10.4707 1.24834 10.5097 1.35075C10.5799 1.51918 10.6495 1.67254 10.7975 1.78542C11.088 1.88409 11.4122 1.84633 11.7136 1.83144C11.8384 1.82771 11.9632 1.82484 12.0881 1.8226C12.1654 1.82096 12.2428 1.81832 12.3201 1.81454C12.5862 1.80526 12.765 1.84303 12.9724 2.02198C12.9881 2.04155 13.0037 2.06113 13.0198 2.08129C13.0441 2.11052 13.0441 2.11052 13.0688 2.14033C13.1598 2.2796 13.1911 2.39518 13.1787 2.56049C13.1765 2.5953 13.1743 2.63011 13.172 2.66598C13.1695 2.70329 13.167 2.74061 13.1645 2.77906C13.0785 3.59013 13.0785 3.59013 13.2983 4.33657C13.5048 4.52452 13.7483 4.61348 14.0126 4.69338C14.1795 4.74742 14.3221 4.82973 14.4707 4.92167C14.4946 4.93578 14.5186 4.94989 14.5432 4.96443C14.76 5.09493 14.8882 5.21419 14.965 5.45547C15.0558 5.8506 14.899 6.11546 14.7052 6.45144C14.6833 6.49015 14.6614 6.52885 14.6388 6.56874C14.5423 6.73839 14.4446 6.90682 14.3406 7.07195C14.3257 7.09572 14.3108 7.1195 14.2954 7.14399C14.2566 7.20516 14.2169 7.26577 14.1771 7.32632C14.1178 7.45483 14.1308 7.50569 14.1639 7.6415C14.2069 7.7354 14.2069 7.7354 14.2636 7.82642C14.2942 7.87809 14.2942 7.87809 14.3255 7.93079C14.3474 7.96696 14.3693 8.00312 14.3918 8.04038C14.4365 8.11594 14.4812 8.19151 14.5259 8.26708C14.5865 8.36884 14.6472 8.47053 14.7083 8.57201C14.753 8.64657 14.7971 8.72148 14.8411 8.7965C14.8539 8.81734 14.8667 8.83817 14.88 8.85963C14.9912 9.05092 15.0212 9.24257 14.992 9.45989C14.9791 9.50037 14.9791 9.50037 14.966 9.54166C14.9579 9.56892 14.9499 9.59618 14.9416 9.62426C14.8034 9.91214 14.566 10.0254 14.2954 10.175C14.178 10.2411 14.0609 10.3072 13.9448 10.3755C13.8496 10.4299 13.7541 10.4707 13.6517 10.5097C13.4833 10.5799 13.3299 10.6495 13.2171 10.7975C13.1184 11.088 13.1561 11.4122 13.171 11.7136C13.1748 11.8384 13.1776 11.9632 13.1799 12.0881C13.1815 12.1654 13.1842 12.2428 13.1879 12.3201C13.1972 12.5862 13.1594 12.765 12.9805 12.9724C12.9609 12.9881 12.9414 13.0037 12.9212 13.0198C12.9017 13.036 12.8822 13.0522 12.8621 13.0688C12.7229 13.1598 12.6073 13.1911 12.442 13.1787C12.4072 13.1765 12.3724 13.1743 12.3365 13.172C12.2992 13.1695 12.2619 13.167 12.2234 13.1645C11.4123 13.0785 11.4123 13.0785 10.6659 13.2983C10.478 13.5048 10.389 13.7483 10.3091 14.0126C10.2551 14.1795 10.1728 14.3221 10.0808 14.4707C10.0667 14.4946 10.0526 14.5186 10.038 14.5432C9.90755 14.76 9.78829 14.8881 9.54701 14.965C9.16721 15.0523 8.91256 14.9134 8.59049 14.7249C8.53764 14.6947 8.53764 14.6947 8.48372 14.6638C8.31752 14.5683 8.1527 14.471 7.9897 14.3701C7.9629 14.3537 7.93609 14.3373 7.90847 14.3204C7.85894 14.2899 7.80972 14.2589 7.76089 14.2273C7.6582 14.164 7.59231 14.1272 7.47022 14.1364C7.35596 14.1651 7.27441 14.2044 7.17359 14.2648C7.13879 14.2854 7.10399 14.3061 7.06813 14.3273C7.03169 14.3493 6.99525 14.3713 6.95771 14.394C6.90136 14.4273 6.90136 14.4273 6.84386 14.4613C6.68443 14.5557 6.52558 14.6509 6.36734 14.7472C6.09091 14.9137 5.84479 15.0406 5.51561 14.9879C5.1509 14.8785 4.99675 14.6137 4.82304 14.2932C4.75807 14.1764 4.693 14.0598 4.62581 13.9443C4.57221 13.8493 4.53179 13.7538 4.49305 13.6519C4.42283 13.4833 4.3531 13.33 4.205 13.2171C3.91451 13.1184 3.59028 13.1561 3.28889 13.171C3.16407 13.1748 3.03928 13.1776 2.91442 13.1799C2.83703 13.1815 2.75966 13.1842 2.68235 13.1879C2.4163 13.1972 2.23744 13.1594 2.03006 12.9805C2.01442 12.9609 1.99878 12.9414 1.98267 12.9212C1.96649 12.9017 1.9503 12.8822 1.93363 12.8621C1.84271 12.7229 1.81137 12.6073 1.82377 12.442C1.82598 12.4072 1.82819 12.3724 1.83046 12.3365C1.83295 12.2992 1.83545 12.2619 1.83802 12.2234C1.92396 11.4123 1.92396 11.4123 1.70419 10.6659C1.49768 10.478 1.25419 10.389 0.989919 10.3091C0.822933 10.2551 0.680407 10.1727 0.531796 10.0808C0.507859 10.0667 0.483921 10.0526 0.459258 10.038C0.24246 9.90755 0.114328 9.78829 0.0374425 9.54701C-0.0533233 9.15188 0.103434 8.88702 0.29729 8.55104C0.319193 8.51233 0.341097 8.47362 0.363664 8.43374C0.460136 8.26409 0.557878 8.09566 0.661925 7.93053C0.676817 7.90675 0.691708 7.88298 0.707051 7.85849C0.745861 7.79731 0.785566 7.73671 0.82534 7.67616C0.88464 7.54765 0.87164 7.49679 0.838627 7.36097C0.795597 7.26708 0.795597 7.26708 0.738907 7.17605C0.708238 7.12439 0.708238 7.12439 0.67695 7.07168C0.655086 7.03552 0.633222 6.99935 0.610696 6.96209C0.565979 6.88654 0.521278 6.81097 0.476594 6.73539C0.415982 6.63364 0.355261 6.53195 0.294191 6.43046C0.249449 6.35591 0.205366 6.281 0.161408 6.20597C0.14857 6.18514 0.135733 6.16431 0.122506 6.14284C0.0113118 5.95155 -0.0186757 5.7599 0.0104579 5.54259C0.0190464 5.5156 0.0276349 5.48862 0.0364837 5.46081C0.0445298 5.43356 0.0525759 5.4063 0.0608658 5.37822C0.199086 5.09033 0.436478 4.97706 0.707128 4.82743C0.824507 4.76142 0.941613 4.69532 1.05763 4.62694C1.15283 4.57256 1.24834 4.53175 1.35075 4.49274C1.51918 4.42255 1.67254 4.35299 1.78542 4.205C1.88409 3.91451 1.84633 3.59028 1.83144 3.28889C1.82772 3.16407 1.82484 3.03928 1.8226 2.91442C1.82096 2.83703 1.81832 2.75966 1.81454 2.68235C1.80526 2.4163 1.84303 2.23744 2.02198 2.03006C2.04155 2.01442 2.06113 1.99878 2.08129 1.98267C2.10077 1.96649 2.12026 1.9503 2.14033 1.93363C2.2796 1.84271 2.39518 1.81137 2.56049 1.82377C2.5953 1.82598 2.63011 1.82819 2.66598 1.83046C2.70329 1.83295 2.74061 1.83545 2.77906 1.83802C3.59013 1.92396 3.59013 1.92396 4.33657 1.70419C4.52452 1.49768 4.61348 1.25419 4.69338 0.989919C4.74743 0.82292 4.82976 0.680436 4.92167 0.531796C4.9357 0.507859 4.94974 0.483921 4.9642 0.459258C5.10122 0.230608 5.24687 0.0967258 5.50026 0.0167588C5.79968 -0.0355441 6.02454 0.0484369 6.28049 0.198666ZM6.76485 3.04781C6.76485 3.31396 6.76485 3.58012 6.76485 3.85434C6.6607 3.86591 6.55655 3.87748 6.44925 3.8894C6.36068 3.90984 6.36068 3.90984 6.28624 3.93789C6.24563 3.95243 6.24563 3.95243 6.20419 3.96726C6.17657 3.97773 6.14895 3.9882 6.1205 3.99898C6.07681 4.01544 6.07681 4.01544 6.03223 4.03222C5.42931 4.26694 4.94863 4.69094 4.66525 5.27672C4.45317 5.78085 4.48111 6.30664 4.65662 6.81991C4.87636 7.34766 5.26782 7.72168 5.78299 7.9571C6.3958 8.2073 7.05206 8.24018 7.70633 8.25844C8.09195 8.27104 8.46512 8.30813 8.7987 8.51816C8.96441 8.69663 8.98725 8.81432 8.9832 9.05279C8.9697 9.19487 8.93365 9.25749 8.83376 9.35976C8.41549 9.66464 8.00377 9.71716 7.49905 9.71919C7.43277 9.72027 7.43277 9.72027 7.36515 9.72138C6.93073 9.72317 6.55726 9.65859 6.20378 9.39482C6.07338 9.26442 6.05523 9.19464 5.99339 9.00909C5.50737 9.00909 5.02135 9.00909 4.5206 9.00909C4.5824 9.62716 4.78941 10.0409 5.22192 10.4819C5.24979 10.511 5.24979 10.511 5.27822 10.5408C5.67274 10.916 6.23961 11.0956 6.76485 11.1481C6.76485 11.4259 6.76485 11.7036 6.76485 11.9897C7.25087 11.9897 7.73689 11.9897 8.23763 11.9897C8.23763 11.712 8.23763 11.4343 8.23763 11.1481C8.34178 11.1366 8.44593 11.125 8.55323 11.1131C9.1767 10.9394 9.82436 10.6048 10.1692 10.0332C10.32 9.76585 10.4592 9.49482 10.4819 9.18442C10.4843 9.15224 10.4867 9.12006 10.4891 9.0869C10.5087 8.53722 10.3541 8.01901 9.99095 7.60644C9.97084 7.58262 9.95072 7.55879 9.93 7.53425C9.41872 6.97261 8.6109 6.81657 7.88697 6.76484C7.7765 6.76037 7.66606 6.75739 7.55553 6.75467C6.5542 6.72895 6.5542 6.72895 6.16872 6.48431C6.01913 6.32508 6.0161 6.15808 6.01886 5.94859C6.03789 5.75915 6.13603 5.67132 6.27392 5.55067C6.62041 5.31818 7.03407 5.28463 7.43768 5.2811C7.47577 5.28008 7.51385 5.27906 7.55309 5.27802C7.85518 5.27566 8.08368 5.33733 8.34064 5.49588C8.47731 5.64083 8.51486 5.80151 8.55323 5.99338C9.03925 5.99338 9.52527 5.99338 10.026 5.99338C10.026 5.39156 9.77714 4.86355 9.35592 4.43855C9.04223 4.14986 8.65866 3.94955 8.23763 3.8894C8.23763 3.61168 8.23763 3.33395 8.23763 3.04781C7.75161 3.04781 7.26559 3.04781 6.76485 3.04781Z" fill="#C76E31"/>
</svg>
