<svg width="460" height="514" viewBox="0 0 460 514" fill="none" xmlns="http://www.w3.org/2000/svg">
<path d="M57.0872 0.732589C58.1954 0.728058 59.3036 0.723527 60.4455 0.718858C64.1547 0.70621 67.8637 0.707835 71.573 0.709487C74.2343 0.703502 76.8956 0.696753 79.557 0.689132C86.0338 0.672544 92.5105 0.667024 98.9874 0.665907C104.255 0.664956 109.523 0.66084 114.79 0.654506C129.74 0.636899 144.69 0.627666 159.639 0.629167C160.445 0.629247 161.25 0.629327 162.08 0.629409C162.886 0.629491 163.692 0.629573 164.523 0.629657C177.584 0.630469 190.644 0.611341 203.704 0.583132C217.129 0.554367 230.554 0.540594 243.979 0.54232C251.51 0.542983 259.041 0.537543 266.572 0.515964C272.986 0.497703 279.399 0.493444 285.813 0.506983C289.081 0.513489 292.349 0.51152 295.618 0.496276C299.171 0.48078 302.724 0.490162 306.278 0.505538C307.806 0.490108 307.806 0.490108 309.365 0.474365C325.268 0.625621 338.054 7.92694 349 19C358.832 29.7297 363.308 42.2937 363.29 56.7134C363.297 57.5325 363.304 58.3516 363.311 59.1956C363.33 61.8726 363.334 64.5495 363.336 67.2266C363.342 69.1027 363.349 70.9788 363.356 72.8548C363.368 76.7734 363.372 80.6918 363.371 84.6104C363.37 89.6217 363.398 94.6324 363.432 99.6435C363.454 103.513 363.458 107.382 363.457 111.251C363.46 113.098 363.469 114.946 363.484 116.793C363.504 119.378 363.498 121.961 363.486 124.545C363.497 125.301 363.508 126.056 363.52 126.835C363.455 132.303 362.088 135.473 359 140C353.391 145.188 349.207 146.422 341.684 146.242C335.322 145.668 332.097 142.384 328.199 137.719C325.567 133.947 325.855 130.056 325.858 125.658C325.853 124.54 325.853 124.54 325.848 123.4C325.84 121.781 325.835 120.162 325.831 118.543C325.824 115.974 325.808 113.404 325.79 110.835C325.738 103.528 325.69 96.2215 325.674 88.9148C325.664 84.4437 325.634 79.9731 325.593 75.5022C325.58 73.8051 325.575 72.108 325.578 70.4109C325.771 57.1514 325.771 57.1514 321 45C314.997 39.2065 309.358 38.8515 301.243 38.8798C300.349 38.8789 299.456 38.8781 298.535 38.8772C295.535 38.8755 292.534 38.881 289.534 38.8865C287.386 38.8868 285.237 38.8866 283.089 38.886C277.251 38.8858 271.412 38.8916 265.574 38.8986C259.475 38.9049 253.375 38.9055 247.276 38.9066C235.724 38.9098 224.171 38.918 212.618 38.928C199.467 38.9392 186.317 38.9447 173.166 38.9497C146.11 38.9602 119.055 38.9777 92 39C92.6948 39.3878 93.3896 39.7756 94.1054 40.1751C97.3222 41.9711 100.538 43.7688 103.754 45.5664C105.392 46.4808 105.392 46.4808 107.064 47.4137C114.399 51.5156 121.685 55.6919 128.937 59.9375C130.044 60.5846 131.15 61.2317 132.289 61.8985C133.154 62.4063 134.019 62.9142 134.91 63.4375C141.216 67.1321 147.543 70.7882 153.875 74.4375C154.946 75.0557 156.018 75.6739 157.122 76.3108C162.141 79.2052 167.162 82.0948 172.192 84.9709C219.24 111.878 219.24 111.878 225.492 134.551C226.872 141.208 227.141 147.551 227.12 154.333C227.122 155.873 227.122 155.873 227.123 157.444C227.124 160.878 227.119 164.311 227.113 167.744C227.113 170.208 227.113 172.672 227.114 175.136C227.114 180.437 227.111 185.738 227.106 191.039C227.098 198.703 227.095 206.368 227.094 214.032C227.092 226.468 227.085 238.904 227.075 251.34C227.066 263.417 227.059 275.495 227.055 287.573C227.055 288.318 227.054 289.063 227.054 289.83C227.053 293.567 227.052 297.305 227.05 301.042C227.04 332.028 227.022 363.014 227 394C237.962 393.962 248.923 393.903 259.885 393.816C264.975 393.777 270.066 393.744 275.156 393.729C280.071 393.714 284.986 393.679 289.9 393.632C291.773 393.617 293.646 393.609 295.518 393.608C298.147 393.606 300.774 393.579 303.403 393.546C304.172 393.551 304.942 393.556 305.735 393.561C312.281 393.435 316.606 391.394 321.312 386.688C324.612 381.432 325.249 376.073 325.271 369.967C325.276 369.302 325.282 368.638 325.287 367.953C325.297 366.524 325.303 365.094 325.305 363.665C325.309 361.398 325.325 359.132 325.346 356.866C325.401 350.427 325.432 343.987 325.456 337.548C325.472 333.598 325.502 329.648 325.541 325.697C325.553 324.198 325.559 322.698 325.559 321.199C325.559 319.1 325.577 317.003 325.599 314.904C325.604 313.713 325.609 312.521 325.615 311.294C326.231 306.025 328.072 302.887 331.875 299.25C337.466 295.225 342.177 294.079 349 295C355.196 297.018 358.599 300.236 362.083 305.699C363.379 308.953 363.27 311.818 363.29 315.316C363.297 316.047 363.304 316.778 363.311 317.53C363.33 319.946 363.334 322.362 363.336 324.777C363.342 326.467 363.349 328.156 363.356 329.846C363.368 333.392 363.372 336.939 363.371 340.486C363.37 344.998 363.398 349.509 363.432 354.021C363.455 357.515 363.458 361.01 363.457 364.504C363.46 366.165 363.468 367.827 363.484 369.488C363.638 387.597 359.522 403.061 346.73 416.457C335.22 427.177 320.861 432.184 305.332 432.114C304.483 432.114 303.634 432.114 302.758 432.114C299.967 432.113 297.175 432.106 294.383 432.098C292.441 432.096 290.499 432.094 288.557 432.093C283.457 432.09 278.358 432.08 273.258 432.069C268.05 432.058 262.841 432.054 257.633 432.049C247.422 432.038 237.211 432.021 227 432C227.024 433.299 227.024 433.299 227.048 434.624C227.099 437.908 227.137 441.191 227.165 444.476C227.18 445.884 227.2 447.291 227.226 448.699C227.558 466.92 224.376 483.057 211.517 496.764C200.177 508.134 186.47 513.324 170.625 513.563C152.431 513.308 139.424 505.185 124.157 496.069C118.143 492.479 112.073 488.989 106 485.5C103.833 484.25 101.666 483 99.5 481.75C98.4275 481.131 97.355 480.512 96.25 479.875C93 478 89.75 476.125 86.5 474.25C84.8901 473.321 84.8901 473.321 83.2478 472.374C81.0884 471.128 78.929 469.882 76.7697 468.636C70.1115 464.794 63.4511 460.956 56.7893 457.12C53.5108 455.23 50.2357 453.334 46.9609 451.438C43.3139 449.327 39.656 447.241 35.9765 445.188C19.4356 435.883 7.45417 424.826 1.99996 406C1.11199 402.238 0.872223 398.755 0.865745 394.893C0.861287 393.657 0.85683 392.422 0.852237 391.15C0.852326 389.782 0.852514 388.415 0.852794 387.047C0.849493 385.592 0.845766 384.137 0.841651 382.681C0.831645 378.682 0.827918 374.682 0.825263 370.682C0.821356 366.368 0.811778 362.054 0.80305 357.741C0.783297 347.322 0.773222 336.904 0.764324 326.485C0.759938 321.577 0.754573 316.668 0.749336 311.759C0.732324 295.438 0.71783 279.117 0.710586 262.795C0.708676 258.561 0.706755 254.326 0.704799 250.092C0.704315 249.039 0.703832 247.987 0.703334 246.903C0.695036 229.859 0.669702 212.816 0.637218 195.773C0.604125 178.268 0.586136 160.763 0.582942 143.257C0.580779 133.432 0.572056 123.607 0.546478 113.781C0.524741 105.412 0.516737 97.043 0.526447 88.6739C0.530983 84.4069 0.529145 80.1402 0.509685 75.8733C0.49199 71.9596 0.493101 68.0464 0.508582 64.1328C0.510949 62.7242 0.506685 61.3156 0.494754 59.9071C0.348037 41.4272 6.20208 28.0432 19 15C19.5543 14.4212 20.1086 13.8424 20.6797 13.2461C30.5603 3.83243 43.9223 0.692993 57.0872 0.732589Z" fill="black"/>
<path d="M397.408 147.299C404.038 150.71 409.04 156.466 414.234 161.703C415.401 162.867 416.568 164.03 417.736 165.193C420.173 167.624 422.603 170.063 425.028 172.506C428.123 175.624 431.236 178.724 434.355 181.819C436.766 184.216 439.168 186.622 441.566 189.031C442.71 190.177 443.857 191.321 445.006 192.461C457.88 205.253 457.88 205.253 459.566 213.906C459.565 215.19 459.565 215.19 459.563 216.5C459.585 217.356 459.606 218.212 459.629 219.094C457.547 228.713 448.736 235.772 442.051 242.488C440.871 243.68 439.692 244.872 438.512 246.064C436.047 248.552 433.576 251.033 431.101 253.51C427.945 256.672 424.812 259.856 421.685 263.046C419.259 265.512 416.818 267.963 414.372 270.409C413.211 271.576 412.055 272.748 410.905 273.927C398.889 286.219 398.889 286.219 390 287C383.664 286.691 379.001 285.174 374.406 280.699C370.745 276.274 369.452 271.593 369.723 265.969C371.156 255.797 379.878 249.082 386.758 242.227C387.359 241.626 387.961 241.026 388.58 240.407C390.053 238.938 391.527 237.469 393 236C392.301 235.998 391.603 235.997 390.883 235.995C373.864 235.958 356.845 235.899 339.827 235.816C331.597 235.776 323.367 235.744 315.136 235.729C307.961 235.716 300.786 235.689 293.61 235.645C289.813 235.623 286.015 235.607 282.218 235.608C278.639 235.609 275.061 235.591 271.482 235.559C269.551 235.546 267.62 235.553 265.69 235.561C257.982 235.469 251.943 234.817 246.16 229.219C245.617 228.368 245.617 228.368 245.063 227.5C244.492 226.649 244.492 226.649 243.91 225.781C241.408 220.884 241.001 215.099 242.684 209.879C245.353 204.019 248.747 200.257 254.881 197.887C260.499 196.397 266.326 196.691 272.096 196.681C273.404 196.671 274.712 196.661 276.059 196.651C279.629 196.623 283.199 196.608 286.768 196.595C290.505 196.58 294.242 196.553 297.979 196.527C305.048 196.48 312.117 196.444 319.186 196.411C327.236 196.372 335.287 196.323 343.338 196.273C359.892 196.169 376.446 196.08 393 196C392.41 195.431 391.82 194.862 391.212 194.275C388.526 191.673 385.857 189.056 383.188 186.437C382.259 185.542 381.33 184.647 380.373 183.725C375.026 178.455 370.977 174.363 369.602 166.812C369.681 160.64 371.271 156.056 375.313 151.25C382.165 145.513 389.015 144.099 397.408 147.299Z" fill="black"/>
</svg>
