<svg width="16" height="30" viewBox="0 0 16 30" fill="none" xmlns="http://www.w3.org/2000/svg">
<path d="M11.1573 0.00122298C11.2211 0.000982903 11.2849 0.000742827 11.3506 0.000495476C11.5561 -6.18425e-05 11.7616 -6.30274e-05 11.967 7.89925e-05C12.0715 4.44853e-05 12.0715 4.44853e-05 12.1781 9.28056e-06C14.465 0.000917597 14.465 0.000917606 15.5802 0.186778C15.5802 1.77174 15.5802 3.3567 15.5802 4.98969C14.2257 5.01532 14.2257 5.01532 13.8036 5.02297C12.0988 4.98218 12.0988 4.98218 10.6528 5.75113C10.2599 6.22965 10.1876 6.90222 10.1795 7.4997C10.1789 7.53807 10.1784 7.57644 10.1777 7.61597C10.1759 7.73863 10.1745 7.8613 10.173 7.98397C10.1714 8.09734 10.1714 8.09734 10.1697 8.213C10.1657 8.49426 10.1622 8.77553 10.1586 9.0568C10.1502 9.68619 10.1417 10.3156 10.133 10.9641C11.8726 10.9641 13.6122 10.9641 15.4045 10.9641C15.3372 11.9061 15.3372 11.9061 15.2855 12.2965C15.2797 12.3419 15.2739 12.3873 15.2679 12.4341C15.2495 12.5772 15.2308 12.7204 15.2121 12.8635C15.2005 12.9534 15.1889 13.0433 15.1773 13.1332C15.1349 13.462 15.0921 13.7908 15.0494 14.1196C14.9539 14.8565 14.8585 15.5934 14.7602 16.3527C13.2332 16.3527 11.7062 16.3527 10.133 16.3527C10.133 20.8563 10.133 25.3599 10.133 30C8.29674 30 6.46051 30 4.56863 30C4.56863 25.4964 4.56863 20.9928 4.56863 16.3527C3.06098 16.3527 1.55333 16.3527 0 16.3527C0 14.5744 0 12.7962 0 10.9641C1.50765 10.9641 3.01529 10.9641 4.56863 10.9641C4.56401 9.5711 4.56401 9.5711 4.55807 8.17816C4.55178 5.98826 4.67304 3.77622 6.20865 2.06109C6.25546 2.00876 6.30227 1.95644 6.3505 1.90253C7.60055 0.580363 9.36772 0.00331713 11.1573 0.00122298Z" fill="white"/>
</svg>
