<svg width="454" height="333" viewBox="0 0 454 333" fill="none" xmlns="http://www.w3.org/2000/svg">
<path d="M217.192 24.8532C218.374 24.8498 218.374 24.8498 219.579 24.8463C228.701 24.9482 237.753 26.4749 246.165 30.0915C246.165 30.7515 246.165 31.4115 246.165 32.0915C244.708 32.4915 244.708 32.4915 243.222 32.8996C230.929 36.3538 219.041 40.7033 207.103 45.2165C205.176 45.9397 203.25 46.6624 201.323 47.3845C197.798 48.7068 194.273 50.032 190.751 51.3615C189.98 51.6513 189.209 51.9412 188.415 52.2397C186.925 52.8039 185.438 53.3754 183.954 53.9546C180.491 55.2946 177.236 56.4523 173.544 56.9001C172.758 57.0048 171.972 57.1096 171.162 57.2175C170.358 57.3203 169.555 57.4231 168.728 57.529C156.463 59.1316 156.463 59.1316 147.165 66.654C143.783 72.4666 143.302 77.4801 144.165 84.0915C148.252 95.8428 154.843 102.477 165.834 107.804C181.197 114.828 197.099 111.759 213.161 109.228C221.554 107.918 229.843 106.852 238.349 106.752C239.027 106.737 239.705 106.721 240.404 106.706C252.768 106.775 262.309 115.391 271.165 123.092C273.754 125.235 276.365 127.351 278.978 129.467C279.662 130.023 280.346 130.579 281.051 131.153C285.952 135.131 290.901 139.042 295.875 142.927C301.04 146.97 306.123 151.109 311.204 155.256C315.49 158.747 319.808 162.19 324.165 165.592C329.899 170.069 335.552 174.641 341.187 179.242C345.638 182.871 350.136 186.435 354.665 189.967C362.347 195.988 362.347 195.988 365.915 198.967C366.508 199.459 367.101 199.951 367.712 200.459C371.552 204.774 371.603 209.745 371.47 215.248C370.64 222.991 367.111 227.763 361.263 232.681C356.529 235.864 351.888 236.903 346.239 236.775C340.449 235.488 336.329 231.444 331.96 227.64C329.441 225.467 326.851 223.385 324.262 221.296C322.225 219.652 320.196 217.997 318.169 216.342C313.238 212.327 308.252 208.384 303.231 204.482C301.371 203.032 299.521 201.567 297.692 200.076C297.003 199.524 296.313 198.972 295.603 198.404C294.765 197.718 294.765 197.718 293.911 197.017C291.534 195.757 289.815 195.795 287.165 196.092C284.958 197.909 284.958 197.909 284.782 200.459C285.298 204.007 286.573 204.919 289.29 207.217C290.2 207.991 291.11 208.766 292.048 209.564C298.646 214.954 305.363 220.197 312.142 225.357C317.767 229.705 321.866 233.194 324.165 240.092C324.971 247.949 323.389 253.88 318.915 260.342C313.58 265.677 309.121 267.45 301.79 268.306C295.353 267.779 290.575 264.196 285.728 260.217C285.141 259.745 284.554 259.274 283.949 258.789C282.014 257.232 280.089 255.663 278.165 254.092C276.712 252.91 275.259 251.729 273.806 250.549C271.67 248.813 269.536 247.077 267.407 245.332C266.767 244.808 266.126 244.284 265.466 243.744C264.9 243.28 264.335 242.816 263.752 242.337C260.35 239.666 258.479 238.649 254.165 239.092C251.754 241.048 251.754 241.048 252.04 244.717C252.081 245.83 252.123 246.944 252.165 248.092C252.749 248.362 253.333 248.633 253.935 248.913C256.15 250.084 257.912 251.366 259.845 252.955C260.527 253.512 261.209 254.07 261.911 254.644C262.965 255.515 262.965 255.515 264.04 256.404C264.735 256.973 265.43 257.542 266.146 258.129C267.514 259.251 268.879 260.376 270.242 261.505C271.468 262.516 272.701 263.519 273.944 264.51C278.445 268.13 280.686 271.398 281.446 277.259C281.747 284.544 279.806 291.232 274.798 296.705C269.395 301.293 262.866 304.179 255.72 303.756C250.305 302.348 246.353 298.647 242.165 295.092C241.005 294.121 239.845 293.151 238.685 292.181C236.413 290.275 234.159 288.35 231.915 286.412C228.21 283.13 228.21 283.13 223.603 281.842C220.985 281.851 220.985 281.851 219.165 284.092C219.121 287.443 219.213 289.983 221.471 292.612C223.206 294.084 224.99 295.41 226.853 296.717C228.086 297.625 229.319 298.533 230.552 299.443C231.154 299.88 231.757 300.318 232.377 300.768C239.722 306.205 239.722 306.205 241.165 309.092C241.499 316.782 239.29 322.399 234.165 328.092C229.92 331.933 225.347 332.859 219.7 332.595C215.02 331.665 211.81 329.049 208.165 326.092C207.172 325.299 206.18 324.506 205.157 323.689C202.471 321.515 199.81 319.316 197.165 317.092C197.442 316.488 197.719 315.885 198.005 315.263C198.367 314.464 198.729 313.665 199.103 312.842C199.462 312.053 199.822 311.264 200.192 310.451C203.505 302.414 202.496 295.602 199.353 287.701C195.28 278.752 188.774 273.696 179.603 270.217C177.901 269.66 177.901 269.66 176.165 269.092C176.272 268.269 176.379 267.447 176.489 266.599C177.691 255.405 175.965 247.145 169.165 238.092C161.584 229.281 152.673 226.115 141.36 225.24C140.274 225.166 140.274 225.166 139.165 225.092C139.006 224.113 138.848 223.135 138.685 222.127C136.709 210.719 133.611 201.519 124.165 194.092C116.716 189.059 108.985 187.943 100.165 187.092C100.09 186.364 100.016 185.637 99.9385 184.888C98.4459 173.475 94.6502 164.05 85.5127 156.713C77.9521 151.492 69.742 148.992 60.5244 150.533C54.7749 152.076 50.0082 154.669 45.1651 158.092C43.7929 156.713 42.4428 155.313 41.1026 153.904C40.3485 153.127 39.5944 152.349 38.8174 151.549C37.1651 149.092 37.1651 149.092 37.1924 146.576C38.3333 143.662 39.7206 141.881 41.7901 139.529C46.2587 134.263 50.4207 128.822 54.5401 123.279C59.805 116.213 65.1489 109.226 70.6182 102.318C74.4424 97.4867 78.1828 92.5907 81.9312 87.7004C84.006 84.995 86.0858 82.2935 88.1651 79.5915C88.9984 78.5082 89.8317 77.4249 90.6651 76.3415C95.6651 69.8415 95.6651 69.8415 96.9146 68.2172C97.7497 67.1316 98.5846 66.0458 99.4195 64.9599C101.475 62.2866 103.533 59.6154 105.595 56.947C106.196 56.1644 106.196 56.1644 106.809 55.3659C107.634 54.3028 108.47 53.2487 109.318 52.2038C111.738 49.1769 113.666 46.2193 115.407 42.7517C117.952 38.0358 120.549 33.9824 125.165 31.0915C131.167 29.4629 137.339 29.8838 143.503 30.0343C144.54 30.0587 144.54 30.0587 145.599 30.0837C146.319 30.1013 147.039 30.119 147.781 30.1371C160.085 30.3053 172.361 28.513 184.57 27.1676C195.445 25.979 206.243 24.876 217.192 24.8532Z" fill="url(#paint0_linear_49_77)"/>
<path d="M329.165 31.0915C330.866 32.8312 330.866 32.8312 332.563 35.1149C333.2 35.9614 333.837 36.808 334.494 37.6801C335.169 38.5996 335.844 39.5191 336.54 40.4665C337.248 41.4124 337.955 42.3584 338.684 43.333C340.856 46.2438 343.013 49.1655 345.165 52.0915C345.788 52.9379 346.412 53.7844 347.054 54.6564C349.377 57.8135 351.699 60.9713 354.014 64.134C357.974 69.5267 362.037 74.8272 366.165 80.0915C371.499 86.8931 376.67 93.7959 381.772 100.773C386.182 106.792 390.689 112.731 395.228 118.654C397.878 122.129 400.523 125.609 403.165 129.091C403.821 129.954 404.477 130.816 405.153 131.705C407.026 134.178 408.879 136.663 410.728 139.154C411.294 139.898 411.861 140.642 412.445 141.408C412.952 142.099 413.459 142.79 413.981 143.502C414.429 144.101 414.877 144.701 415.339 145.318C416.165 147.091 416.165 147.091 415.963 149.129C414.577 152.536 411.818 154.877 409.228 157.404C408.637 157.984 408.047 158.565 407.438 159.163C396.731 169.496 381.503 179.644 367.165 184.092C363.898 183.611 362.041 182.435 359.548 180.318C358.866 179.746 358.184 179.175 357.481 178.585C356.397 177.66 356.397 177.66 355.29 176.717C353.753 175.427 352.216 174.14 350.677 172.853C349.913 172.213 349.149 171.573 348.362 170.913C345.321 168.392 342.222 165.952 339.103 163.529C334.072 159.611 329.104 155.624 324.165 151.591C319.203 147.542 314.213 143.533 309.165 139.591C304.117 135.65 299.128 131.641 294.165 127.591C265.344 102.563 265.344 102.563 229.049 96.2996C222.982 97.04 216.946 98.0082 210.908 98.9553C178.122 104.045 178.122 104.045 163.985 94.5446C159.636 91.0726 155.384 86.6432 154.165 81.0915C154.125 78.1738 154.507 76.0073 155.165 73.0915C157.947 70.4224 160.314 69.6263 164.075 69.0432C165.051 68.8772 166.027 68.7113 167.032 68.5403C168.087 68.3639 169.141 68.1874 170.228 68.0056C184.494 65.3801 197.649 60.6271 211.165 55.4665C213.479 54.5975 215.795 53.7303 218.11 52.8649C221.362 51.6496 224.613 50.4322 227.858 49.2C244.335 42.9503 244.335 42.9503 250.169 42.2477C251.058 42.1376 251.948 42.0275 252.864 41.914C253.809 41.8076 254.754 41.7012 255.728 41.5915C256.744 41.469 257.761 41.3464 258.808 41.2202C264.947 40.5022 271.093 39.9052 277.251 39.3767C300.118 37.9619 300.118 37.9619 321.849 31.404C325.982 29.7683 325.982 29.7683 329.165 31.0915Z" fill="url(#paint1_linear_49_77)"/>
<path d="M100.165 9.0915C115.273 20.3075 115.273 20.3075 117.165 24.0915C111.319 31.929 105.406 39.7104 99.4312 47.4504C97.3394 50.1617 95.2525 52.8768 93.1651 55.5915C92.3318 56.6749 91.4984 57.7582 90.6651 58.8415C90.2526 59.3777 89.8401 59.914 89.4151 60.4665C85.6651 65.3415 85.6651 65.3415 84.4158 66.9655C83.58 68.0521 82.7442 69.1387 81.9085 70.2253C79.8632 72.8844 77.8174 75.543 75.7705 78.2009C71.0575 84.3225 66.3563 90.4531 61.6651 96.5915C56.1795 103.769 50.6767 110.934 45.1651 118.091C44.3004 119.216 43.4358 120.341 42.5713 121.466C37.7888 127.69 32.9939 133.904 28.1651 140.092C17.029 133.883 4.31785 124.55 0.165081 112.091C-1.88354 90.0268 15.5741 73.4184 28.1651 57.0915C29.1342 55.8301 30.103 54.5684 31.0713 53.3063C32.6679 51.2263 34.2671 49.1485 35.8682 47.072C37.486 44.9727 39.1007 42.8715 40.712 40.7673C76.6894 -6.19857 76.6894 -6.19857 100.165 9.0915Z" fill="url(#paint2_linear_49_77)"/>
<path d="M384.278 7.64229C384.901 8.12053 385.524 8.59878 386.165 9.09151C386.985 9.71155 387.805 10.3316 388.649 10.9704C393.142 14.7581 396.544 19.4909 400.165 24.0915C400.677 24.7396 401.19 25.3877 401.718 26.0554C409.607 36.0505 417.259 46.2031 424.774 56.4821C426.965 59.4735 429.181 62.4418 431.431 65.3884C455.002 96.2611 455.002 96.2611 453.165 111.092C450.071 121.772 442.43 128.128 433.915 134.654C433.205 135.204 432.495 135.753 431.764 136.319C431.087 136.823 430.41 137.327 429.712 137.845C429.102 138.302 428.492 138.76 427.863 139.23C427.303 139.515 426.742 139.799 426.165 140.092C422.806 138.972 422.356 138.355 420.372 135.576C419.833 134.83 419.293 134.084 418.737 133.316C418.157 132.499 417.576 131.683 416.978 130.842C415.715 129.096 414.45 127.351 413.185 125.607C412.525 124.698 411.866 123.788 411.187 122.851C407.912 118.381 404.538 113.988 401.165 109.592C395.511 102.206 389.95 94.7595 384.454 87.2556C380.092 81.3148 375.644 75.444 371.165 69.5915C365.432 62.0996 359.783 54.5527 354.204 46.9458C348.582 39.2836 342.882 31.6824 337.165 24.0915C340.918 15.2387 354.565 7.70613 363.165 4.21651C371.031 1.93971 377.572 3.03076 384.278 7.64229Z" fill="url(#paint3_linear_49_77)"/>
<path d="M155.165 239.092C160.97 242.775 163.993 247.576 166.165 254.092C167.069 259.821 167.04 265.307 163.692 270.287C160.895 273.593 157.805 276.592 154.692 279.599C152.471 281.789 150.43 284.026 148.415 286.404C144.321 291.175 140.331 295.681 133.747 296.33C126.295 296.53 121.08 295.606 115.446 290.549C110.768 285.538 108.504 280.315 107.79 273.529C108.44 267.568 110.366 263.81 114.278 259.424C114.901 258.724 115.524 258.025 116.166 257.305C116.826 256.575 117.485 255.844 118.165 255.092C118.822 254.363 119.478 253.634 120.155 252.884C122.186 250.648 124.235 248.431 126.29 246.217C127.325 245.08 127.325 245.08 128.38 243.92C129.391 242.833 129.391 242.833 130.423 241.724C131.022 241.074 131.622 240.423 132.24 239.752C139.076 233.856 147.585 235.683 155.165 239.092Z" fill="url(#paint4_linear_49_77)"/>
<path d="M72.6221 161.728C79.334 164.255 84.1892 169.054 87.333 175.478C88.2684 178.416 88.5 180.885 88.54 183.966C88.5684 184.954 88.5968 185.941 88.626 186.959C87.6029 193.912 83.2608 198.4 78.3525 203.029C77.2815 204.066 76.2125 205.105 75.1455 206.146C74.6329 206.646 74.1204 207.146 73.5923 207.661C71.1273 210.132 68.8859 212.781 66.665 215.47C63.6438 218.735 60.7239 220.778 56.2197 221.33C49.1601 221.57 43.5734 220.018 38.1494 215.361C33.2757 210.231 30.5018 204.904 30.0049 197.802C30.3818 189.029 36.3964 183.65 42.3838 177.873C44.2332 176.023 45.9134 174.088 47.6025 172.091C48.7827 170.752 49.9703 169.418 51.165 168.091C51.7696 167.411 52.3742 166.73 52.9971 166.029C58.9767 159.989 64.5588 159.639 72.6221 161.728Z" fill="url(#paint5_linear_49_77)"/>
<path d="M114.415 200.591C120.397 204.05 125.079 209.5 127.165 216.091C127.501 218.994 127.501 218.994 127.54 222.029C127.568 223.028 127.597 224.027 127.626 225.056C126.588 231.889 120.957 236.66 116.353 241.466C112.499 245.515 108.731 249.544 105.228 253.904C102.213 257.353 99.822 258.539 95.165 259.091C87.9677 259.257 82.732 257.689 77.165 253.091C72.4118 248.338 69.3302 243.36 69.0674 236.568C69.6038 227.855 74.2418 222.753 80.04 216.654C83.3009 213.191 86.5069 209.748 89.4775 206.029C96.2445 198.633 104.896 196.451 114.415 200.591Z" fill="url(#paint6_linear_49_77)"/>
<path d="M172.915 280.029C179.672 281.323 184.523 284.791 188.665 290.216C191.271 294.557 192.173 298.271 191.876 303.326C190.495 308.698 186.908 312.167 183.165 316.091C182.553 316.884 181.94 317.677 181.31 318.494C178.496 321.908 176.466 323.794 172.087 324.795C165.314 325.141 160.338 324.07 154.974 319.857C150.672 315.657 148.084 310.531 147.61 304.482C148.866 299.069 154.19 295.649 158.165 292.091C159.483 290.657 160.779 289.201 162.04 287.716C162.596 287.081 163.151 286.445 163.724 285.791C164.896 284.408 166.009 282.975 167.103 281.529C169.165 280.091 169.165 280.091 172.915 280.029Z" fill="url(#paint7_linear_49_77)"/>
<defs>
<linearGradient id="paint0_linear_49_77" x1="204.346" y1="24.8463" x2="204.346" y2="332.637" gradientUnits="userSpaceOnUse">
<stop stop-color="#062146"/>
<stop offset="1" stop-color="#05A0DD"/>
</linearGradient>
<linearGradient id="paint1_linear_49_77" x1="285.118" y1="30.135" x2="285.118" y2="184.092" gradientUnits="userSpaceOnUse">
<stop stop-color="#062146"/>
<stop offset="1" stop-color="#05A0DD"/>
</linearGradient>
<linearGradient id="paint2_linear_49_77" x1="58.5825" y1="0" x2="58.5825" y2="140.092" gradientUnits="userSpaceOnUse">
<stop stop-color="#062146"/>
<stop offset="1" stop-color="#05A0DD"/>
</linearGradient>
<linearGradient id="paint3_linear_49_77" x1="395.522" y1="3.06793" x2="395.522" y2="140.092" gradientUnits="userSpaceOnUse">
<stop stop-color="#062146"/>
<stop offset="1" stop-color="#05A0DD"/>
</linearGradient>
<linearGradient id="paint4_linear_49_77" x1="137.23" y1="235.919" x2="137.23" y2="296.355" gradientUnits="userSpaceOnUse">
<stop stop-color="#062146"/>
<stop offset="1" stop-color="#05A0DD"/>
</linearGradient>
<linearGradient id="paint5_linear_49_77" x1="59.3154" y1="160.57" x2="59.3154" y2="221.354" gradientUnits="userSpaceOnUse">
<stop stop-color="#062146"/>
<stop offset="1" stop-color="#05A0DD"/>
</linearGradient>
<linearGradient id="paint6_linear_49_77" x1="98.3467" y1="198.517" x2="98.3467" y2="259.103" gradientUnits="userSpaceOnUse">
<stop stop-color="#062146"/>
<stop offset="1" stop-color="#05A0DD"/>
</linearGradient>
<linearGradient id="paint7_linear_49_77" x1="169.77" y1="280.029" x2="169.77" y2="324.855" gradientUnits="userSpaceOnUse">
<stop stop-color="#062146"/>
<stop offset="1" stop-color="#05A0DD"/>
</linearGradient>
</defs>
</svg>
