<svg width="416" height="436" viewBox="0 0 416 436" fill="none" xmlns="http://www.w3.org/2000/svg">
<path d="M267.836 131.992C270.607 134.342 273.279 136.777 275.922 139.27C276.469 139.765 277.016 140.26 277.58 140.77C289.865 152.316 297.235 167.77 301.797 183.742C302.073 184.665 302.349 185.587 302.634 186.538C306.216 200.85 305.755 218.055 301.797 232.258C301.522 233.252 301.247 234.247 300.963 235.271C295.845 251.973 286.801 265.441 274.797 277.934C257.203 296.728 254.366 315.862 252.473 341.418C223.121 341.418 193.769 341.418 163.527 341.418C162.727 330.611 162.727 330.611 161.91 319.586C158.603 302.562 151.803 290.187 140.078 277.539C127.765 264.035 119.08 249.967 114.203 232.258C113.928 231.269 113.653 230.279 113.369 229.26C107.734 204.762 112.532 178.382 125.523 157.059C132.86 145.367 142.68 134.231 154.633 127.141C155.484 126.614 156.336 126.088 157.213 125.546C191.562 104.757 236.325 106.764 267.836 131.992Z" fill="url(#paint0_linear_49_63)"/>
<path d="M170.805 355.164C195.354 355.164 219.903 355.164 245.195 355.164C245.195 381.039 245.195 381.039 241.961 385.082C239.101 386.035 236.51 386.016 233.534 386.021C232.621 386.027 232.621 386.027 231.689 386.033C229.674 386.045 227.659 386.05 225.644 386.055C224.243 386.06 222.842 386.064 221.441 386.069C218.503 386.077 215.566 386.082 212.628 386.085C208.865 386.089 205.103 386.109 201.341 386.132C198.447 386.147 195.553 386.151 192.659 386.152C191.272 386.155 189.885 386.161 188.499 386.172C186.557 386.186 184.616 386.184 182.675 386.179C181.818 386.19 181.818 386.19 180.943 386.201C177.423 386.172 175.214 385.632 172.422 383.465C167.181 375.603 170.805 364.613 170.805 355.164Z" fill="url(#paint1_linear_49_63)"/>
<path d="M370.268 192.394C371.179 192.39 372.091 192.387 373.029 192.383C374.953 192.378 376.876 192.378 378.799 192.381C381.731 192.384 384.662 192.365 387.593 192.345C389.466 192.343 391.339 192.342 393.212 192.343C394.083 192.336 394.954 192.328 395.852 192.32C401.457 192.355 406.521 192.709 411.004 196.452C411.372 196.928 411.74 197.403 412.119 197.893C412.502 198.368 412.884 198.843 413.279 199.333C415.893 203.313 415.425 208.293 415 212.852C413.712 216.801 411.19 219.517 407.723 221.746C403.064 223.826 398.432 223.611 393.427 223.606C392.516 223.61 391.605 223.613 390.666 223.617C388.743 223.622 386.819 223.622 384.896 223.619C381.965 223.616 379.034 223.635 376.102 223.655C374.229 223.657 372.356 223.658 370.483 223.657C369.612 223.664 368.741 223.672 367.843 223.68C362.246 223.645 357.265 223.257 352.719 219.633C349.293 215.325 347.66 212.003 347.988 206.383C348.596 201.676 350.416 198.922 353.85 195.669C359.05 192.202 364.229 192.388 370.268 192.394Z" fill="url(#paint2_linear_49_63)"/>
<path d="M22.573 192.394C23.4841 192.39 24.3951 192.387 25.3338 192.383C27.2572 192.378 29.1805 192.378 31.1039 192.381C34.0354 192.384 36.9663 192.365 39.8977 192.345C41.7708 192.343 43.6438 192.342 45.5168 192.343C46.388 192.336 47.2591 192.328 48.1566 192.32C53.7536 192.355 58.7349 192.743 63.2806 196.367C66.7072 200.675 68.3398 203.997 68.0122 209.617C67.4043 214.324 65.5838 217.078 62.1499 220.331C56.9497 223.798 51.7711 223.612 45.7316 223.606C44.8206 223.61 43.9095 223.613 42.9708 223.617C41.0475 223.622 39.1241 223.622 37.2007 223.619C34.2692 223.616 31.3383 223.635 28.4069 223.655C26.5338 223.657 24.6608 223.658 22.7878 223.657C21.9167 223.664 21.0455 223.672 20.148 223.68C14.5434 223.645 9.47877 223.291 4.99555 219.548C4.62761 219.072 4.25967 218.597 3.88058 218.107C3.49804 217.632 3.11551 217.157 2.72138 216.667C0.107282 212.687 0.574831 207.707 0.999961 203.148C2.28843 199.199 4.81008 196.483 8.27731 194.254C12.9362 192.174 17.5684 192.389 22.573 192.394Z" fill="url(#paint3_linear_49_63)"/>
<path d="M214.633 1.58119C218.431 3.62854 220.882 6.34148 222.625 10.2455C223.679 14.363 223.61 18.3386 223.607 22.573C223.61 23.4841 223.613 24.3952 223.617 25.3338C223.622 27.2572 223.622 29.1806 223.619 31.1039C223.616 34.0355 223.635 36.9663 223.655 39.8978C223.657 41.7708 223.658 43.6439 223.657 45.5169C223.665 46.388 223.672 47.2591 223.68 48.1566C223.645 53.7536 223.257 58.7349 219.633 63.2807C215.325 66.7072 212.003 68.3398 206.383 68.0122C201.676 67.4044 198.922 65.5838 195.669 62.1499C192.202 56.9497 192.388 51.7712 192.394 45.7317C192.39 44.8206 192.387 43.9095 192.383 42.9709C192.378 41.0475 192.378 39.1241 192.381 37.2008C192.384 34.2692 192.365 31.3384 192.345 28.4069C192.343 26.5339 192.342 24.6608 192.343 22.7878C192.336 21.9167 192.328 21.0456 192.32 20.1481C192.355 14.5434 192.709 9.47881 196.452 4.9956C196.928 4.62766 197.403 4.25972 197.893 3.88062C198.606 3.30682 198.606 3.30682 199.333 2.72143C203.503 -0.0174197 210 0.0696219 214.633 1.58119Z" fill="url(#paint4_linear_49_63)"/>
<path d="M322.264 307.255C323.012 307.234 323.759 307.213 324.529 307.192C330.743 307.898 334.493 312.306 338.676 316.522C339.656 317.499 339.656 317.499 340.656 318.495C342.032 319.869 343.405 321.246 344.774 322.626C346.872 324.736 348.981 326.833 351.093 328.929C352.43 330.267 353.766 331.607 355.101 332.947C355.732 333.573 356.363 334.199 357.013 334.843C357.887 335.73 357.887 335.73 358.78 336.634C359.293 337.149 359.806 337.664 360.335 338.195C363.512 342.126 363.652 346.235 363.55 351.112C363.01 355.497 361.25 358.388 357.811 361.127C353.498 363.683 348.741 364.033 343.844 363.25C338.898 361.344 335.692 357.875 332.031 354.185C331.377 353.534 330.724 352.883 330.051 352.212C328.675 350.838 327.303 349.461 325.933 348.081C323.836 345.971 321.726 343.874 319.614 341.778C318.278 340.44 316.941 339.1 315.606 337.76C314.975 337.134 314.344 336.508 313.695 335.864C312.82 334.977 312.82 334.977 311.927 334.073C311.414 333.558 310.901 333.043 310.372 332.512C306.855 328.16 306.969 323.309 307.457 317.969C308.87 313.563 311.818 310.865 315.543 308.266C317.969 307.457 319.724 307.297 322.264 307.255Z" fill="url(#paint5_linear_49_63)"/>
<path d="M100.71 308.316C104.241 310.862 107.152 313.797 108.543 317.969C108.66 319.397 108.721 320.831 108.745 322.264C108.766 323.012 108.787 323.759 108.808 324.529C108.102 330.743 103.694 334.493 99.4779 338.676C98.8269 339.33 98.1758 339.983 97.5051 340.656C96.131 342.032 94.7539 343.405 93.374 344.774C91.2638 346.871 89.1669 348.981 87.071 351.093C85.7326 352.43 84.3934 353.766 83.0533 355.101C82.1144 356.047 82.1144 356.047 81.1566 357.013C80.2703 357.887 80.2703 357.887 79.3661 358.78C78.8509 359.293 78.3357 359.806 77.8049 360.335C74.0287 363.387 70.2001 363.61 65.5138 363.496C61.3506 363.041 58.4385 361.685 55.498 358.702C52.5508 354.75 52.3198 351.04 52.371 346.213C53.3684 339.979 57.5232 336.289 61.8151 332.031C62.7917 331.051 62.7917 331.051 63.788 330.051C65.162 328.675 66.5391 327.302 67.9191 325.933C70.0292 323.836 72.1261 321.726 74.222 319.614C75.5604 318.278 76.8997 316.941 78.2397 315.606C78.8656 314.975 79.4916 314.344 80.1365 313.694C81.0228 312.82 81.0228 312.82 81.9269 311.927C82.4421 311.414 82.9573 310.901 83.4881 310.372C88.3694 306.427 94.9446 306.467 100.71 308.316Z" fill="url(#paint6_linear_49_63)"/>
<path d="M355.502 53.4575C359.195 55.5641 362.048 58.2791 363.25 62.4531C363.901 68.0183 363.706 72.1275 360.824 77.0078C358.799 79.3809 356.604 81.5679 354.39 83.764C353.759 84.3975 353.128 85.031 352.478 85.6837C351.145 87.0179 349.809 88.3491 348.471 89.6774C346.428 91.7071 344.399 93.7495 342.37 95.7934C341.071 97.0908 339.772 98.3874 338.471 99.6832C337.565 100.597 337.565 100.597 336.64 101.529C333.034 105.087 329.82 108.119 324.614 108.865C319.443 108.821 315.623 108.617 311.778 104.781C308.551 101.181 307.336 98.6484 307.255 93.7356C307.224 92.6146 307.224 92.6146 307.192 91.4709C307.898 85.2566 312.305 81.5073 316.522 77.3237C317.499 76.3436 317.499 76.3436 318.495 75.3438C319.869 73.9681 321.246 72.5954 322.626 71.2257C324.736 69.1285 326.833 67.0187 328.929 64.9073C330.267 63.5705 331.607 62.2344 332.947 60.8991C333.573 60.2683 334.199 59.6374 334.843 58.9874C335.73 58.1126 335.73 58.1126 336.634 57.2202C337.149 56.7069 337.664 56.1936 338.195 55.6648C342.934 51.8352 349.873 51.4205 355.502 53.4575Z" fill="url(#paint7_linear_49_63)"/>
<path d="M74.2967 53.5699C78.0679 55.8038 80.8939 58.7156 83.9693 61.8151C84.9493 62.7917 84.9493 62.7917 85.9491 63.788C87.3248 65.162 88.6975 66.5391 90.0673 67.919C92.1644 70.0292 94.2742 72.1261 96.3856 74.222C97.7224 75.5604 99.0585 76.8996 100.394 78.2397C101.025 78.8656 101.656 79.4915 102.305 80.1365C103.18 81.0227 103.18 81.0227 104.073 81.9269C104.586 82.4421 105.099 82.9573 105.628 83.4881C109.145 87.8404 109.031 92.6908 108.543 98.0313C107.13 102.437 104.182 105.135 100.457 107.734C98.0874 108.524 96.3175 108.755 93.8366 108.846C93.108 108.886 92.3794 108.925 91.6288 108.966C85.1289 107.862 80.3642 102.556 75.9023 98.0565C74.9795 97.1372 74.9795 97.1372 74.0381 96.1994C72.7482 94.9111 71.4613 93.6199 70.1774 92.3257C68.2117 90.347 66.2334 88.3816 64.2535 86.4172C62.9977 85.1598 61.7426 83.9017 60.4884 82.6427C59.898 82.0572 59.3076 81.4717 58.6993 80.8685C58.1537 80.3152 57.6081 79.762 57.046 79.192C56.5663 78.7104 56.0867 78.2288 55.5925 77.7326C52.4737 73.8298 52.3519 69.7046 52.4467 64.8884C53.072 59.8667 55.4408 57.0882 59.2692 53.9629C63.7922 51.7312 69.6502 51.7902 74.2967 53.5699Z" fill="url(#paint8_linear_49_63)"/>
<path d="M186.977 419.637C200.852 419.637 214.727 419.637 229.023 419.637C227.981 424.847 225.935 428.366 221.509 431.434C214.786 435.218 207.772 436.44 200.148 434.419C193.959 431.8 189.898 428.131 186.977 422.062C186.977 421.262 186.977 420.461 186.977 419.637Z" fill="url(#paint9_linear_49_63)"/>
<defs>
<linearGradient id="paint0_linear_49_63" x1="209.924" y1="113.73" x2="209.924" y2="342.801" gradientUnits="userSpaceOnUse">
<stop stop-color="#062146"/>
<stop offset="1" stop-color="#05A0DD"/>
</linearGradient>
<linearGradient id="paint1_linear_49_63" x1="208.119" y1="355.483" x2="208.119" y2="386.388" gradientUnits="userSpaceOnUse">
<stop stop-color="#062146"/>
<stop offset="1" stop-color="#05A0DD"/>
</linearGradient>
<linearGradient id="paint2_linear_49_63" x1="382.289" y1="192.643" x2="382.289" y2="223.868" gradientUnits="userSpaceOnUse">
<stop stop-color="#062146"/>
<stop offset="1" stop-color="#05A0DD"/>
</linearGradient>
<linearGradient id="paint3_linear_49_63" x1="35.0109" y1="192.643" x2="35.0109" y2="223.868" gradientUnits="userSpaceOnUse">
<stop stop-color="#062146"/>
<stop offset="1" stop-color="#05A0DD"/>
</linearGradient>
<linearGradient id="paint4_linear_49_63" x1="208.303" y1="1.22626" x2="208.303" y2="68.4594" gradientUnits="userSpaceOnUse">
<stop stop-color="#062146"/>
<stop offset="1" stop-color="#05A0DD"/>
</linearGradient>
<linearGradient id="paint5_linear_49_63" x1="335.933" y1="307.771" x2="335.933" y2="363.959" gradientUnits="userSpaceOnUse">
<stop stop-color="#062146"/>
<stop offset="1" stop-color="#05A0DD"/>
</linearGradient>
<linearGradient id="paint6_linear_49_63" x1="81.1313" y1="307.684" x2="81.1313" y2="363.858" gradientUnits="userSpaceOnUse">
<stop stop-color="#062146"/>
<stop offset="1" stop-color="#05A0DD"/>
</linearGradient>
<linearGradient id="paint7_linear_49_63" x1="335.918" y1="52.8316" x2="335.918" y2="109.206" gradientUnits="userSpaceOnUse">
<stop stop-color="#062146"/>
<stop offset="1" stop-color="#05A0DD"/>
</linearGradient>
<linearGradient id="paint8_linear_49_63" x1="81.1541" y1="52.8421" x2="81.1541" y2="109.307" gradientUnits="userSpaceOnUse">
<stop stop-color="#062146"/>
<stop offset="1" stop-color="#05A0DD"/>
</linearGradient>
<linearGradient id="paint9_linear_49_63" x1="208.406" y1="419.799" x2="208.406" y2="435.48" gradientUnits="userSpaceOnUse">
<stop stop-color="#062146"/>
<stop offset="1" stop-color="#05A0DD"/>
</linearGradient>
</defs>
</svg>
