<svg width="106" height="156" viewBox="0 0 106 156" fill="none" xmlns="http://www.w3.org/2000/svg">
<rect width="106" height="156" fill="#D9D9D9"/>
<path d="M42 83L48.1144 76.8856C49.1558 75.8442 50.8442 75.8442 51.8856 76.8856L58 83M55.3333 80.3333L57.4477 78.219C58.4891 77.1776 60.1776 77.1776 61.2189 78.219L63.3333 80.3333M55.3333 72.3333H55.3467M44.6667 88.3333H60.6667C62.1394 88.3333 63.3333 87.1394 63.3333 85.6667V69.6667C63.3333 68.1939 62.1394 67 60.6667 67H44.6667C43.1939 67 42 68.1939 42 69.6667V85.6667C42 87.1394 43.1939 88.3333 44.6667 88.3333Z" stroke="#545F71" stroke-width="2" stroke-linecap="round" stroke-linejoin="round"/>
</svg>
