<svg width="30" height="30" viewBox="0 0 30 30" fill="none" xmlns="http://www.w3.org/2000/svg">
<g clip-path="url(#clip0_35_318)">
<path d="M11.9265 -0.0157526C12.2195 -0.0154492 12.5124 -0.0157329 12.8053 -0.0159151C13.2965 -0.0161264 13.7878 -0.0158524 14.279 -0.0152892C14.8414 -0.0146519 15.4037 -0.0148586 15.9661 -0.0155033C16.455 -0.0160406 16.9438 -0.0161074 17.4327 -0.0158034C17.722 -0.0156237 18.0114 -0.0155878 18.3007 -0.0159835C23.5527 -0.0221671 23.5527 -0.022167 25.7226 1.11327C25.7578 1.13155 25.7929 1.14983 25.8292 1.16866C26.3258 1.42954 26.7739 1.72796 27.1874 2.10936C27.2232 2.1423 27.2591 2.17525 27.296 2.20918C28.8803 3.68555 29.6663 5.53961 29.9413 7.67577C29.9495 7.73855 29.9495 7.73855 29.9578 7.8026C30.022 8.39283 30.0091 8.98663 30.0094 9.57951C30.0096 9.70702 30.0099 9.83453 30.0103 9.96204C30.011 10.3072 30.0114 10.6524 30.0117 10.9976C30.0118 11.214 30.0121 11.4304 30.0123 11.6468C30.0131 12.3259 30.0137 13.005 30.0139 13.684C30.014 13.7998 30.014 13.7998 30.014 13.9179C30.014 13.9565 30.014 13.9952 30.014 14.035C30.0143 14.698 30.0155 15.361 30.0169 16.024C30.0182 16.6293 30.0188 17.2346 30.0188 17.84C30.0189 18.2003 30.0192 18.5606 30.0203 18.921C30.0292 22.1285 29.8596 25.1825 27.5024 27.605C25.9099 29.1808 23.7456 29.8092 21.5585 29.9468C21.5189 29.9493 21.4793 29.9518 21.4385 29.9544C20.3526 30.0208 19.2661 30.0172 18.1787 30.0157C17.8841 30.0154 17.5895 30.0157 17.295 30.0159C16.801 30.0161 16.307 30.0158 15.813 30.0153C15.2474 30.0146 14.6819 30.0148 14.1163 30.0155C13.6247 30.016 13.1331 30.0161 12.6415 30.0158C12.3505 30.0156 12.0596 30.0156 11.7686 30.016C10.6972 30.0172 9.6281 30.0141 8.5585 29.9468C8.44739 29.9398 8.44739 29.9398 8.33404 29.9327C6.35938 29.7937 4.34417 29.2184 2.87857 27.8325C2.77085 27.7309 2.66074 27.6386 2.54509 27.5464C0.928574 26.1603 0.28688 23.8335 0.117112 21.7969C0.105016 21.6162 0.0956004 21.4355 0.0868992 21.2546C0.0844282 21.2037 0.0819572 21.1528 0.0794113 21.1003C0.0532974 20.5416 0.0370479 19.983 0.0255588 19.4238C0.0243373 19.3651 0.0231159 19.3064 0.0218574 19.246C-0.0424451 16.0002 -0.067502 12.7366 0.0585178 9.49218C0.0610865 9.42593 0.0610865 9.42593 0.063707 9.35835C0.1812 6.43251 0.877691 4.04993 3.0468 2.00316C3.39157 1.69245 3.75502 1.45524 4.16008 1.23046C4.19456 1.21098 4.22904 1.1915 4.26456 1.17143C6.5885 -0.126614 9.34659 -0.0192804 11.9265 -0.0157526ZM4.41574 4.54284C2.52414 6.51266 2.80301 9.64765 2.80262 12.168C2.80258 12.3237 2.80246 12.4795 2.8023 12.6353C2.80176 13.1829 2.80152 13.7305 2.80157 14.2781C2.8016 14.7818 2.80099 15.2855 2.80006 15.7891C2.79928 16.227 2.79898 16.6649 2.79902 17.1028C2.79903 17.3619 2.79888 17.621 2.79824 17.8801C2.79585 18.9278 2.808 19.9722 2.86568 21.0185C2.86922 21.0841 2.86922 21.0841 2.87282 21.1511C2.96552 22.8285 3.32455 24.3059 4.51164 25.5469C4.56659 25.6084 4.56659 25.6084 4.62265 25.6711C5.8396 26.9854 7.84216 27.1744 9.52215 27.2397C10.2934 27.2639 11.0653 27.2685 11.8368 27.2773C12.0395 27.2796 12.2422 27.2822 12.4449 27.2848C14.1775 27.3068 15.9092 27.3081 17.6418 27.2878C17.8908 27.2849 18.1399 27.2822 18.389 27.28C19.385 27.2709 20.3792 27.257 21.3734 27.1916C21.443 27.187 21.5127 27.1824 21.5844 27.1777C23.1278 27.0649 24.4738 26.6443 25.6054 25.5469C25.6413 25.5153 25.6771 25.4837 25.7141 25.4512C26.9819 24.2966 27.2067 22.3994 27.2853 20.787C27.3236 19.878 27.3143 18.9672 27.3144 18.0576C27.3145 17.8903 27.3146 17.723 27.3147 17.5557C27.3153 16.9685 27.3155 16.3812 27.3155 15.794C27.3154 15.2524 27.316 14.7109 27.317 14.1694C27.3178 13.6997 27.3181 13.23 27.318 12.7603C27.318 12.4819 27.3182 12.2035 27.3188 11.9251C27.321 10.8803 27.3169 9.83831 27.2514 8.7953C27.2443 8.68298 27.2443 8.68298 27.2371 8.56839C27.1218 6.92248 26.6584 5.52314 25.4882 4.33593C25.4304 4.27701 25.4304 4.27701 25.3715 4.21691C23.419 2.37338 20.0651 2.74396 17.599 2.74602C17.3587 2.74618 17.1184 2.74603 16.8782 2.74594C16.4753 2.74584 16.0725 2.74597 15.6696 2.74626C15.2086 2.74657 14.7477 2.74647 14.2867 2.74615C13.8857 2.74588 13.4846 2.74585 13.0836 2.746C12.8464 2.74609 12.6091 2.74611 12.3719 2.74591C8.0855 2.62316 8.0855 2.62316 4.41574 4.54284Z" fill="white"/>
<path d="M20.0226 9.03968C20.1682 9.16773 20.3089 9.29955 20.449 9.43358C20.4957 9.47588 20.5424 9.51818 20.5905 9.56176C21.9679 10.8561 22.7367 12.7867 22.8054 14.6569C22.8552 16.7434 22.1957 18.7161 20.7573 20.2524C20.7136 20.298 20.6699 20.3436 20.6248 20.3906C20.5805 20.4387 20.5361 20.4867 20.4905 20.5362C19.7013 21.3653 18.706 21.9365 17.6365 22.3242C17.5751 22.3466 17.5137 22.3689 17.4504 22.392C15.5041 23.0449 13.3409 22.8211 11.5135 21.9214C10.7227 21.5144 10.0529 20.9683 9.4334 20.332C9.40372 20.305 9.37403 20.2779 9.34345 20.2501C8.1146 19.1024 7.39446 17.2054 7.31673 15.5475C7.25571 13.3699 7.85099 11.3588 9.35947 9.74761C9.4032 9.70199 9.44694 9.65637 9.49199 9.60936C9.53633 9.56133 9.58067 9.51329 9.62635 9.46379C12.3338 6.61944 17.0771 6.57591 20.0226 9.03968ZM11.7186 11.3086C11.6739 11.3476 11.6293 11.3867 11.5833 11.4269C10.6637 12.2859 10.1291 13.5364 10.0685 14.783C10.0352 16.1798 10.5132 17.4333 11.4704 18.4433C11.5137 18.4865 11.5569 18.5297 11.6014 18.5742C11.6422 18.615 11.6829 18.6558 11.725 18.6978C12.6962 19.6123 13.9668 20.0292 15.2877 19.9951C16.4477 19.94 17.5337 19.4519 18.3982 18.6914C18.4429 18.6523 18.4875 18.6133 18.5335 18.5731C19.4568 17.7106 19.9714 16.4506 20.048 15.2023C20.0906 13.8893 19.614 12.6425 18.7498 11.6601C18.7108 11.6155 18.6717 11.5709 18.6315 11.5249C17.769 10.6016 16.509 10.0869 15.2607 10.0104C13.9477 9.96778 12.7009 10.4444 11.7186 11.3086Z" fill="white"/>
<path d="M24.171 5.48997C24.5508 5.80112 24.807 6.19363 24.9023 6.6797C24.9573 7.28253 24.8293 7.79051 24.4397 8.25898C24.0104 8.67637 23.5659 8.80554 22.9844 8.8079C22.5104 8.79999 22.0762 8.66765 21.7382 8.32032C21.3766 7.84622 21.1779 7.37394 21.2212 6.77056C21.3004 6.26081 21.5338 5.84419 21.9287 5.51149C22.6163 5.02314 23.4721 5.01967 24.171 5.48997Z" fill="white"/>
</g>
<defs>
<clipPath id="clip0_35_318">
<rect width="30" height="30" fill="white"/>
</clipPath>
</defs>
</svg>
