<svg width="30" height="30" viewBox="0 0 30 30" fill="none" xmlns="http://www.w3.org/2000/svg">
<path d="M3.4483 0.00806719C3.55202 0.00782296 3.65574 0.00750256 3.75946 0.00711291C4.04346 0.0062692 4.32746 0.00651544 4.61146 0.00694724C4.91815 0.00722416 5.22483 0.00649222 5.53151 0.0058937C6.13195 0.0048888 6.73237 0.00483951 7.33281 0.00514599C7.8209 0.00538243 8.309 0.0052978 8.7971 0.00498529C8.90135 0.00491965 8.90135 0.00491965 9.00771 0.00485268C9.1489 0.00476312 9.2901 0.00467317 9.4313 0.00458282C10.7551 0.00378032 12.0788 0.0040982 13.4026 0.00476907C14.6132 0.00534984 15.8238 0.00459317 17.0344 0.00319413C18.278 0.00176785 19.5216 0.00120611 20.7651 0.00159504C21.4631 0.00179923 22.1611 0.00166878 22.859 0.000644778C23.4532 -0.000216131 24.0473 -0.000253145 24.6415 0.000765872C24.9445 0.00126357 25.2475 0.00138896 25.5506 0.000493879C25.8282 -0.000316124 26.1059 -3.68679e-05 26.3835 0.0010926C26.4837 0.00131238 26.5839 0.00114185 26.6841 0.000530575C27.6347 -0.0048555 28.4129 0.200707 29.1324 0.856677C29.8573 1.63404 29.9958 2.42889 29.9919 3.4483C29.9922 3.55202 29.9925 3.65574 29.9929 3.75946C29.9937 4.04346 29.9935 4.32746 29.9931 4.61146C29.9928 4.91815 29.9935 5.22483 29.9941 5.53151C29.9951 6.13195 29.9952 6.73237 29.9949 7.33281C29.9946 7.8209 29.9947 8.309 29.995 8.7971C29.9951 8.8666 29.9951 8.9361 29.9951 9.00771C29.9952 9.1489 29.9953 9.2901 29.9954 9.4313C29.9962 10.7551 29.9959 12.0788 29.9952 13.4026C29.9946 14.6132 29.9954 15.8238 29.9968 17.0344C29.9982 18.278 29.9988 19.5216 29.9984 20.7651C29.9982 21.4631 29.9983 22.1611 29.9994 22.859C30.0002 23.4532 30.0003 24.0473 29.9992 24.6415C29.9987 24.9445 29.9986 25.2475 29.9995 25.5506C30.0003 25.8282 30 26.1059 29.9989 26.3835C29.9987 26.4837 29.9989 26.5839 29.9995 26.6841C30.0049 27.6347 29.7993 28.4129 29.1433 29.1324C28.366 29.8573 27.5711 29.9958 26.5517 29.9919C26.448 29.9922 26.3443 29.9925 26.2405 29.9929C25.9565 29.9937 25.6725 29.9935 25.3885 29.9931C25.0819 29.9928 24.7752 29.9935 24.4685 29.9941C23.8681 29.9951 23.2676 29.9952 22.6672 29.9949C22.1791 29.9946 21.691 29.9947 21.2029 29.995C21.1334 29.9951 21.0639 29.9951 20.9923 29.9951C20.8511 29.9952 20.7099 29.9953 20.5687 29.9954C19.2449 29.9962 17.9212 29.9959 16.5974 29.9952C15.3868 29.9946 14.1762 29.9954 12.9656 29.9968C11.722 29.9982 10.4784 29.9988 9.23488 29.9984C8.53691 29.9982 7.83895 29.9983 7.14098 29.9994C6.54682 30.0002 5.95266 30.0003 5.3585 29.9992C5.05547 29.9987 4.75246 29.9986 4.44944 29.9995C4.17177 30.0003 3.89413 30 3.61646 29.9989C3.51629 29.9987 3.4161 29.9989 3.31593 29.9995C2.36527 30.0049 1.58709 29.7993 0.867641 29.1433C0.142685 28.366 0.00415735 27.5711 0.00806729 26.5517C0.00782306 26.448 0.00750269 26.3443 0.00711304 26.2405C0.00626933 25.9565 0.0065155 25.6725 0.00694731 25.3885C0.00722422 25.0819 0.00649232 24.7752 0.0058938 24.4685C0.0048889 23.8681 0.00483962 23.2676 0.0051461 22.6672C0.00538254 22.1791 0.00529801 21.691 0.0049855 21.2029C0.00494174 21.1334 0.00489787 21.0639 0.00485278 20.9923C0.00476323 20.8511 0.00467323 20.7099 0.00458288 20.5687C0.00378038 19.2449 0.00409826 17.9212 0.00476913 16.5974C0.00534991 15.3868 0.00459337 14.1762 0.00319433 12.9656C0.00176805 11.722 0.00120629 10.4784 0.00159522 9.23488C0.00179941 8.53691 0.00166877 7.83895 0.000644765 7.14098C-0.000216144 6.54682 -0.000253131 5.95266 0.000765886 5.3585C0.00126358 5.05547 0.00138905 4.75246 0.000493977 4.44944C-0.000316025 4.17177 -3.68042e-05 3.89413 0.00109267 3.61646C0.00131245 3.51628 0.00114205 3.4161 0.000530782 3.31593C-0.0048553 2.36527 0.200707 1.58709 0.856677 0.867641C1.63404 0.142685 2.42889 0.00415725 3.4483 0.00806719ZM4.70018 5.0396C4.17786 5.69827 4.04421 6.46693 4.12389 7.28147C4.21503 7.69382 4.40545 8.05109 4.65016 8.39247C4.69237 8.45157 4.73458 8.51066 4.77807 8.57155C5.2318 9.0903 5.86615 9.3637 6.53959 9.44135C7.33748 9.48024 7.97789 9.23867 8.57886 8.73235C9.13748 8.20929 9.3989 7.57248 9.445 6.81665C9.445 6.18105 9.23372 5.62721 8.86026 5.11795C8.79695 5.03111 8.79695 5.03111 8.73235 4.94253C8.35552 4.50366 7.8158 4.302 7.28147 4.12389C6.25038 4.05545 5.43433 4.27615 4.70018 5.0396ZM17.3974 12.8365C17.3479 12.8734 17.2984 12.9103 17.2474 12.9484C17.0858 13.0869 16.9597 13.2365 16.8273 13.4029C16.5788 13.7136 16.5788 13.7136 16.5203 13.7721C16.501 13.1932 16.4817 12.6143 16.4618 12.0178C14.9953 12.0178 13.5288 12.0178 12.0178 12.0178C12.0178 16.456 12.0178 20.8941 12.0178 25.4668C13.4844 25.4668 14.9509 25.4668 16.4618 25.4668C16.464 24.8882 16.4662 24.3096 16.4685 23.7135C16.4702 23.3463 16.4721 22.9791 16.4741 22.6119C16.4772 22.0294 16.4802 21.4469 16.4821 20.8645C16.4834 20.4402 16.4854 20.0159 16.4881 19.5916C16.4895 19.3672 16.4906 19.1428 16.4909 18.9184C16.4913 18.7066 16.4925 18.4949 16.4943 18.2831C16.495 18.1694 16.4949 18.0557 16.4948 17.9421C16.5032 17.1437 16.6618 16.5566 17.1855 15.9502C17.7612 15.4567 18.3432 15.2793 19.0944 15.3355C19.3929 15.3752 19.6509 15.4992 19.9118 15.6432C19.9513 15.6643 19.9908 15.6854 20.0315 15.7072C20.4837 15.9873 20.7569 16.4915 20.9058 16.9881C20.9522 17.2246 20.972 17.449 20.9736 17.6897C20.9744 17.793 20.9744 17.793 20.9753 17.8984C20.9756 17.9731 20.976 18.0479 20.9763 18.1249C20.9769 18.205 20.9775 18.2851 20.9781 18.3653C20.9797 18.5821 20.9809 18.7989 20.9821 19.0158C20.9833 19.2426 20.9849 19.4695 20.9865 19.6964C20.9894 20.1256 20.992 20.5549 20.9946 20.9842C20.998 21.5645 21.0019 22.1448 21.0057 22.7252C21.0118 23.639 21.0172 24.5529 21.0228 25.4668C22.4893 25.4668 23.9558 25.4668 25.4668 25.4668C25.4702 23.9411 25.4702 23.9411 25.4725 22.4154C25.4732 21.7927 25.474 21.1699 25.4756 20.5472C25.4768 20.0935 25.4775 19.6399 25.4778 19.1862C25.4779 18.9464 25.4783 18.7065 25.4792 18.4667C25.48 18.2401 25.4802 18.0136 25.48 17.7871C25.48 17.7047 25.4803 17.6223 25.4807 17.5399C25.4898 15.8 25.0207 14.4039 23.8021 13.1565C22.9532 12.3503 21.7875 11.8051 20.6135 11.7255C20.5722 11.7225 20.531 11.7194 20.4885 11.7163C19.3254 11.6702 18.3021 12.1462 17.3974 12.8365ZM4.53321 12.0178C4.53321 16.456 4.53321 20.8941 4.53321 25.4668C5.99973 25.4668 7.46625 25.4668 8.97721 25.4668C8.97721 21.0286 8.97721 16.5905 8.97721 12.0178C7.51069 12.0178 6.04417 12.0178 4.53321 12.0178Z" fill="white"/>
</svg>
