<svg width="539" height="80" viewBox="0 0 539 80" fill="none" xmlns="http://www.w3.org/2000/svg">
<path fill-rule="evenodd" clip-rule="evenodd" d="M61.57 26.6949H76.7279C71.3664 11.2714 56.7024 0.201202 39.4528 0.201202C17.6636 0.201202 0 17.8648 0 39.654C0 61.4432 17.6636 79.1068 39.4528 79.1068C56.3787 79.1068 70.8151 68.4481 76.4163 53.4767H61.0394C56.4826 60.5782 48.5172 65.2837 39.4528 65.2837C25.2978 65.2837 13.8229 53.8088 13.8229 39.6538C13.8229 25.4988 25.2978 14.0239 39.4528 14.0239C48.8799 14.0239 57.1183 19.1135 61.57 26.6949Z" fill="url(#paint0_linear_4_155)"/>
<circle cx="39.4525" cy="39.6537" r="16.9906" fill="url(#paint1_linear_4_155)"/>
<path d="M507.965 44.4284C505.821 44.4284 503.978 43.7583 502.437 42.4181C500.896 41.0109 500.125 39.0005 500.125 36.3871V32.0649H507.865V33.4721C507.865 34.6113 508.133 35.3484 508.669 35.6835C509.205 35.9515 510.076 36.0856 511.283 36.0856H538.12L513.293 71.8695L511.283 69.7586H537.718V78.1015H498.316L523.646 41.5135L525.254 44.4284H507.965Z" fill="url(#paint2_linear_4_155)"/>
<path d="M477.53 36.0855H487.682V78.1015H477.53V36.0855ZM477.028 21.008C477.028 19.4668 477.631 18.1601 478.837 17.0879C480.11 16.0157 481.484 15.4796 482.958 15.4796C484.432 15.4796 485.773 16.0157 486.979 17.0879C488.185 18.1601 488.788 19.4668 488.788 21.008C488.788 22.6833 488.185 24.0235 486.979 25.0287C485.773 26.0339 484.432 26.5364 482.958 26.5364C481.484 26.5364 480.11 26.0339 478.837 25.0287C477.631 24.0235 477.028 22.6833 477.028 21.008Z" fill="url(#paint3_linear_4_155)"/>
<path d="M443.49 79.1066C439.603 79.1066 436.253 78.336 433.438 76.7947C430.624 75.1864 428.346 73.1426 426.603 70.6632L427.608 67.7482V78.1014H417.456V0H427.608V45.333L427.307 41.6139C428.982 39.4695 431.328 37.7272 434.343 36.387C437.426 35.0468 440.91 34.3767 444.797 34.3767C448.549 34.3767 451.967 35.2813 455.049 37.0906C458.132 38.8329 460.611 41.3458 462.488 44.6294C464.364 47.9129 465.302 51.8331 465.302 56.3898C465.302 61.1476 464.263 65.2353 462.186 68.6529C460.176 72.0034 457.529 74.5833 454.245 76.3926C450.962 78.2019 447.377 79.1066 443.49 79.1066ZM441.279 70.5627C443.892 70.5627 446.237 69.9596 448.315 68.7534C450.392 67.4802 452 65.7714 453.14 63.627C454.346 61.4827 454.949 59.0703 454.949 56.3898C454.949 53.7094 454.346 51.3305 453.14 49.2532C451.933 47.1758 450.292 45.534 448.214 44.3278C446.204 43.0546 443.892 42.418 441.279 42.418C437.928 42.418 435.013 43.2892 432.534 45.0315C430.054 46.7737 428.413 49.0856 427.608 51.9671V60.8126C428.48 63.627 430.088 65.9724 432.433 67.8487C434.846 69.658 437.794 70.5627 441.279 70.5627Z" fill="url(#paint4_linear_4_155)"/>
<path d="M373.504 79.3077C369.416 79.3077 365.697 78.5036 362.347 76.8953C359.063 75.2201 356.45 72.6736 354.507 69.2561C352.563 65.8385 351.592 61.4828 351.592 56.1889C351.592 51.2301 352.597 46.9414 354.607 43.3228C356.617 39.7042 359.264 36.9232 362.548 34.9799C365.831 32.9696 369.316 31.9644 373.002 31.9644C377.357 31.9644 380.641 32.7015 382.852 34.1758C385.131 35.583 387.007 37.1577 388.481 38.9L387.878 40.6088L389.185 34.1758H402.252V78.1015H388.18V68.5524L389.285 71.5679C389.151 71.5679 388.749 71.97 388.079 72.7741C387.409 73.5113 386.404 74.4159 385.064 75.4881C383.79 76.4933 382.182 77.3644 380.239 78.1015C378.362 78.9057 376.118 79.3077 373.504 79.3077ZM377.525 67.8488C380.071 67.8488 382.216 67.3127 383.958 66.2406C385.7 65.1014 387.107 63.4261 388.18 61.2147V50.4595C387.375 48.3151 385.968 46.6063 383.958 45.3331C382.015 44.0599 379.703 43.4233 377.022 43.4233C375.012 43.4233 373.136 43.9594 371.393 45.0316C369.718 46.0367 368.378 47.444 367.373 49.2533C366.367 51.0626 365.865 53.1399 365.865 55.4853C365.865 57.8307 366.401 59.9415 367.473 61.8178C368.545 63.6941 369.953 65.1684 371.695 66.2406C373.504 67.3127 375.447 67.8488 377.525 67.8488Z" fill="url(#paint5_linear_4_155)"/>
<path d="M319.571 14.8764H333.644V33.9745H344.299V44.9309H333.644V78.1013H319.571V44.9309H312.736V33.9745H319.571V14.8764Z" fill="url(#paint6_linear_4_155)"/>
<path d="M304.643 74.1814C302.7 75.7227 300.254 76.9624 297.306 77.9005C294.424 78.8387 291.576 79.3078 288.762 79.3078C283.736 79.3078 279.347 78.4031 275.594 76.5938C271.908 74.7175 269.027 72.0706 266.95 68.653C264.939 65.1684 263.934 60.9802 263.934 56.0884C263.934 51.1966 265.04 47.0419 267.251 43.6244C269.462 40.1398 272.344 37.4928 275.896 35.6835C279.514 33.8742 283.3 32.9696 287.254 32.9696C291.208 32.9696 294.625 33.5057 297.507 34.5779C300.455 35.65 302.968 37.0573 305.045 38.7995L298.21 47.846C297.272 47.1089 295.965 46.3718 294.29 45.6347C292.682 44.8306 290.772 44.4285 288.561 44.4285C286.617 44.4285 284.842 44.9311 283.233 45.9362C281.625 46.9414 280.352 48.3151 279.414 50.0574C278.475 51.7997 278.006 53.81 278.006 56.0884C278.006 58.2328 278.509 60.2096 279.514 62.0189C280.519 63.8282 281.893 65.2689 283.635 66.3411C285.445 67.3463 287.555 67.8489 289.968 67.8489C291.509 67.8489 292.916 67.6478 294.19 67.2458C295.53 66.7767 296.669 66.1401 297.607 65.336L304.643 74.1814Z" fill="url(#paint7_linear_4_155)"/>
<path d="M233.404 79.3077C228.043 79.3077 223.486 78.3025 219.733 76.2922C216.048 74.2819 213.233 71.5009 211.29 67.9493C209.347 64.3977 208.375 60.3101 208.375 55.6863C208.375 51.2636 209.514 47.2764 211.792 43.7248C214.071 40.1732 217.12 37.3588 220.94 35.2814C224.759 33.1371 229.014 32.0649 233.705 32.0649C240.004 32.0649 245.164 33.9077 249.185 37.5933C253.272 41.2119 255.919 46.4723 257.126 53.3744L222.95 64.2302L219.834 56.591L244.561 48.2481L241.646 49.5548C241.11 47.8125 240.138 46.3048 238.731 45.0315C237.391 43.6913 235.347 43.0212 232.599 43.0212C229.45 43.0212 226.937 44.0934 225.061 46.2377C223.184 48.3821 222.246 51.2636 222.246 54.8822C222.246 58.9699 223.352 62.0859 225.563 64.2302C227.775 66.3076 230.489 67.3462 233.705 67.3462C235.246 67.3462 236.721 67.0782 238.128 66.5421C239.602 66.006 241.043 65.3024 242.45 64.4313L248.682 74.885C246.337 76.2252 243.79 77.2974 241.043 78.1015C238.362 78.9056 235.816 79.3077 233.404 79.3077Z" fill="url(#paint8_linear_4_155)"/>
<path d="M164.876 34.1758L165.982 42.016L165.781 41.3124C167.322 38.565 169.5 36.3536 172.315 34.6783C175.129 32.936 178.58 32.0649 182.668 32.0649C186.823 32.0649 190.274 33.3046 193.021 35.784C195.836 38.1964 197.276 41.3459 197.343 45.2326V78.1015H183.271V50.4594C183.204 48.5161 182.668 46.9749 181.663 45.8357C180.725 44.6295 179.116 44.0264 176.838 44.0264C173.554 44.0264 170.941 45.5676 168.998 48.6501C167.121 51.6656 166.183 55.5188 166.183 60.2096V78.1015H152.111V34.1758H164.876Z" fill="url(#paint9_linear_4_155)"/>
<path d="M91.2688 55.5858C91.2688 51.096 92.3075 47.0754 94.3848 43.5238C96.5292 39.9722 99.5112 37.1912 103.331 35.1809C107.15 33.1036 111.54 32.0649 116.498 32.0649C121.524 32.0649 125.88 33.1036 129.566 35.1809C133.251 37.1912 136.066 39.9722 138.009 43.5238C140.019 47.0754 141.025 51.096 141.025 55.5858C141.025 60.0755 140.019 64.1297 138.009 67.7483C136.066 71.2999 133.251 74.1144 129.566 76.1917C125.88 78.269 121.457 79.3077 116.297 79.3077C111.473 79.3077 107.15 78.3696 103.331 76.4933C99.5782 74.6169 96.6297 71.903 94.4853 68.3514C92.341 64.7998 91.2688 60.5446 91.2688 55.5858ZM105.442 55.6863C105.442 57.9647 105.911 60.042 106.849 61.9183C107.787 63.7276 109.06 65.1684 110.669 66.2405C112.277 67.3127 114.086 67.8488 116.096 67.8488C119.38 67.8488 121.993 66.7096 123.937 64.4313C125.88 62.0859 126.852 59.1709 126.852 55.6863C126.852 52.2017 125.88 49.3203 123.937 47.0419C121.993 44.6965 119.38 43.5238 116.096 43.5238C114.086 43.5238 112.277 44.0599 110.669 45.1321C109.06 46.2042 107.787 47.645 106.849 49.4543C105.911 51.2636 105.442 53.3409 105.442 55.6863Z" fill="url(#paint10_linear_4_155)"/>
<defs>
<linearGradient id="paint0_linear_4_155" x1="76.0258" y1="-13.6217" x2="15.5507" y2="73.3472" gradientUnits="userSpaceOnUse">
<stop offset="1" stop-color="white"/>
</linearGradient>
<linearGradient id="paint1_linear_4_155" x1="56.1322" y1="16.7101" x2="30.3495" y2="54.8404" gradientUnits="userSpaceOnUse">
<stop offset="1" stop-color="white"/>
</linearGradient>
<linearGradient id="paint2_linear_4_155" x1="87.4493" y1="81.7871" x2="576.452" y2="31.4768" gradientUnits="userSpaceOnUse">
<stop stop-color="white"/>
</linearGradient>
<linearGradient id="paint3_linear_4_155" x1="87.4494" y1="81.7871" x2="576.452" y2="31.4768" gradientUnits="userSpaceOnUse">
<stop stop-color="white"/>
</linearGradient>
<linearGradient id="paint4_linear_4_155" x1="87.4499" y1="81.787" x2="576.452" y2="31.4767" gradientUnits="userSpaceOnUse">
<stop stop-color="white"/>
</linearGradient>
<linearGradient id="paint5_linear_4_155" x1="87.4495" y1="81.7871" x2="576.452" y2="31.4768" gradientUnits="userSpaceOnUse">
<stop stop-color="white"/>
</linearGradient>
<linearGradient id="paint6_linear_4_155" x1="87.4494" y1="81.787" x2="576.452" y2="31.4766" gradientUnits="userSpaceOnUse">
<stop stop-color="white"/>
</linearGradient>
<linearGradient id="paint7_linear_4_155" x1="87.4497" y1="81.7872" x2="576.452" y2="31.4769" gradientUnits="userSpaceOnUse">
<stop stop-color="white"/>
</linearGradient>
<linearGradient id="paint8_linear_4_155" x1="87.4495" y1="81.7871" x2="576.452" y2="31.4768" gradientUnits="userSpaceOnUse">
<stop stop-color="white"/>
</linearGradient>
<linearGradient id="paint9_linear_4_155" x1="87.4496" y1="81.7871" x2="576.452" y2="31.4768" gradientUnits="userSpaceOnUse">
<stop stop-color="white"/>
</linearGradient>
<linearGradient id="paint10_linear_4_155" x1="87.4492" y1="81.7871" x2="576.451" y2="31.4768" gradientUnits="userSpaceOnUse">
<stop stop-color="white"/>
</linearGradient>
</defs>
</svg>
