<svg width="140" height="21" viewBox="0 0 140 21" fill="none" xmlns="http://www.w3.org/2000/svg">
<path fill-rule="evenodd" clip-rule="evenodd" d="M16.0183 6.94509H19.9619C18.567 2.93244 14.752 0.0523682 10.2642 0.0523682C4.59545 0.0523682 0 4.64782 0 10.3166C0 15.9854 4.59545 20.5808 10.2642 20.5808C14.6678 20.5808 18.4236 17.8078 19.8808 13.9128H15.8803C14.6948 15.7604 12.6224 16.9846 10.2642 16.9846C6.58158 16.9846 3.59621 13.9992 3.59621 10.3166C3.59621 6.63392 6.58158 3.64856 10.2642 3.64856C12.7168 3.64856 14.8602 4.9727 16.0183 6.94509Z" fill="url(#paint0_linear_4_72)"/>
<circle cx="10.2641" cy="10.3165" r="4.42036" fill="url(#paint1_linear_4_72)"/>
<path d="M132.155 11.5587C131.597 11.5587 131.117 11.3844 130.716 11.0357C130.315 10.6696 130.115 10.1466 130.115 9.46665V8.34216H132.129V8.70828C132.129 9.00465 132.198 9.19643 132.338 9.28359C132.477 9.35333 132.704 9.3882 133.018 9.3882H140L133.541 18.6979L133.018 18.1487H139.895V20.3193H129.644L136.234 10.8003L136.653 11.5587H132.155Z" fill="url(#paint2_linear_4_72)"/>
<path d="M124.237 9.38822H126.878V20.3193H124.237V9.38822ZM124.106 5.46558C124.106 5.0646 124.263 4.72464 124.577 4.4457C124.908 4.16675 125.265 4.02728 125.649 4.02728C126.032 4.02728 126.381 4.16675 126.695 4.4457C127.009 4.72464 127.165 5.0646 127.165 5.46558C127.165 5.90143 127.009 6.25011 126.695 6.51162C126.381 6.77313 126.032 6.90388 125.649 6.90388C125.265 6.90388 124.908 6.77313 124.577 6.51162C124.263 6.25011 124.106 5.90143 124.106 5.46558Z" fill="url(#paint3_linear_4_72)"/>
<path d="M115.381 20.5808C114.369 20.5808 113.498 20.3803 112.765 19.9793C112.033 19.5609 111.44 19.0291 110.987 18.3841L111.249 17.6257V20.3192H108.607V0H111.249V11.7941L111.17 10.8265C111.606 10.2686 112.216 9.8153 113.001 9.46663C113.803 9.11795 114.709 8.94361 115.72 8.94361C116.697 8.94361 117.586 9.17896 118.388 9.64968C119.19 10.103 119.835 10.7567 120.323 11.611C120.811 12.4653 121.055 13.4851 121.055 14.6707C121.055 15.9085 120.785 16.9719 120.245 17.8611C119.722 18.7328 119.033 19.404 118.179 19.8747C117.324 20.3454 116.392 20.5808 115.381 20.5808ZM114.805 18.3579C115.485 18.3579 116.095 18.201 116.636 17.8872C117.176 17.556 117.595 17.1114 117.891 16.5535C118.205 15.9956 118.362 15.368 118.362 14.6707C118.362 13.9733 118.205 13.3544 117.891 12.8139C117.577 12.2735 117.15 11.8464 116.61 11.5325C116.087 11.2013 115.485 11.0357 114.805 11.0357C113.933 11.0357 113.175 11.2623 112.53 11.7156C111.885 12.1689 111.458 12.7704 111.249 13.52V15.8213C111.475 16.5535 111.894 17.1637 112.504 17.6519C113.132 18.1226 113.899 18.3579 114.805 18.3579Z" fill="url(#paint4_linear_4_72)"/>
<path d="M97.1726 20.6331C96.1092 20.6331 95.1416 20.4239 94.2699 20.0055C93.4156 19.5696 92.7357 18.9071 92.2301 18.018C91.7245 17.1289 91.4717 15.9957 91.4717 14.6184C91.4717 13.3283 91.7332 12.2125 92.2563 11.2711C92.7793 10.3296 93.4679 9.60612 94.3222 9.10054C95.1765 8.57752 96.083 8.31601 97.0419 8.31601C98.1751 8.31601 99.0294 8.50778 99.6047 8.89133C100.197 9.25744 100.686 9.66714 101.069 10.1204L100.912 10.565L101.252 8.89133H104.652V20.3193H100.991V17.8349L101.278 18.6195C101.243 18.6195 101.139 18.7241 100.965 18.9333C100.79 19.125 100.529 19.3604 100.18 19.6393C99.8487 19.9009 99.4303 20.1275 98.9247 20.3193C98.4366 20.5285 97.8526 20.6331 97.1726 20.6331ZM98.2187 17.6519C98.8812 17.6519 99.439 17.5124 99.8923 17.2335C100.346 16.9371 100.712 16.5012 100.991 15.9259V13.1278C100.781 12.5699 100.415 12.1253 99.8923 11.7941C99.3867 11.4628 98.7853 11.2972 98.0879 11.2972C97.5649 11.2972 97.0768 11.4367 96.6235 11.7156C96.1876 11.9771 95.8389 12.3432 95.5774 12.814C95.3159 13.2847 95.1852 13.8251 95.1852 14.4353C95.1852 15.0455 95.3246 15.5947 95.6036 16.0828C95.8825 16.571 96.2486 16.9545 96.7019 17.2335C97.1726 17.5124 97.6782 17.6519 98.2187 17.6519Z" fill="url(#paint5_linear_4_72)"/>
<path d="M83.1412 3.8703H86.8024V8.83897H89.5744V11.6894H86.8024V20.3192H83.1412V11.6894H81.363V8.83897H83.1412V3.8703Z" fill="url(#paint6_linear_4_72)"/>
<path d="M79.2575 19.2994C78.7519 19.7004 78.1156 20.0229 77.3485 20.267C76.5988 20.511 75.8579 20.6331 75.1257 20.6331C73.8181 20.6331 72.6762 20.3977 71.6999 19.927C70.741 19.4389 69.9914 18.7502 69.4509 17.8611C68.9279 16.9545 68.6664 15.8649 68.6664 14.5922C68.6664 13.3195 68.954 12.2386 69.5294 11.3495C70.1047 10.4429 70.8543 9.7543 71.7783 9.28359C72.7198 8.81287 73.7048 8.57751 74.7334 8.57751C75.762 8.57751 76.6511 8.71699 77.4008 8.99593C78.1679 9.27487 78.8216 9.64098 79.3621 10.0943L77.5838 12.4478C77.3398 12.2561 76.9998 12.0643 76.564 11.8725C76.1455 11.6633 75.6487 11.5587 75.0734 11.5587C74.5678 11.5587 74.1058 11.6895 73.6874 11.951C73.2689 12.2125 72.9377 12.5699 72.6936 13.0232C72.4495 13.4764 72.3275 13.9995 72.3275 14.5922C72.3275 15.1501 72.4583 15.6644 72.7198 16.1351C72.9813 16.6058 73.3387 16.9807 73.792 17.2596C74.2627 17.5211 74.8118 17.6519 75.4395 17.6519C75.8404 17.6519 76.2066 17.5996 76.5378 17.495C76.8865 17.3729 77.1829 17.2073 77.4269 16.9981L79.2575 19.2994Z" fill="url(#paint7_linear_4_72)"/>
<path d="M60.7234 20.6331C59.3287 20.6331 58.1432 20.3716 57.1669 19.8486C56.208 19.3255 55.4758 18.602 54.9702 17.678C54.4646 16.754 54.2119 15.6906 54.2119 14.4876C54.2119 13.337 54.5082 12.2997 55.101 11.3757C55.6937 10.4517 56.487 9.71944 57.4807 9.17899C58.4744 8.62111 59.5815 8.34216 60.8019 8.34216C62.4407 8.34216 63.7831 8.8216 64.8291 9.78046C65.8926 10.7219 66.5812 12.0905 66.895 13.8862L58.0037 16.7104L57.1931 14.723L63.6262 12.5525L62.8678 12.8924C62.7283 12.4391 62.4755 12.0469 62.1094 11.7156C61.7607 11.367 61.229 11.1926 60.5142 11.1926C59.6948 11.1926 59.041 11.4716 58.5529 12.0294C58.0647 12.5873 57.8207 13.337 57.8207 14.2784C57.8207 15.3419 58.1083 16.1526 58.6837 16.7104C59.259 17.2509 59.965 17.5211 60.8019 17.5211C61.2029 17.5211 61.5864 17.4514 61.9525 17.3119C62.3361 17.1724 62.7109 16.9894 63.077 16.7628L64.6984 19.4824C64.0882 19.8311 63.4257 20.1101 62.7109 20.3193C62.0135 20.5285 61.351 20.6331 60.7234 20.6331Z" fill="url(#paint8_linear_4_72)"/>
<path d="M42.895 8.89133L43.1827 10.9311L43.1304 10.748C43.5314 10.0333 44.098 9.45793 44.8302 9.02209C45.5624 8.5688 46.4603 8.34216 47.5237 8.34216C48.6046 8.34216 49.5025 8.66469 50.2173 9.30975C50.9495 9.93737 51.3243 10.7568 51.3418 11.7679V20.3193H47.6806V13.1278C47.6632 12.6222 47.5237 12.2212 47.2622 11.9248C47.0181 11.611 46.5997 11.4541 46.007 11.4541C45.1527 11.4541 44.4728 11.8551 43.9672 12.6571C43.4791 13.4416 43.235 14.444 43.235 15.6644V20.3193H39.5739V8.89133H42.895Z" fill="url(#paint9_linear_4_72)"/>
<path d="M23.7449 14.4615C23.7449 13.2934 24.0152 12.2474 24.5556 11.3234C25.1135 10.3994 25.8893 9.67586 26.883 9.15284C27.8768 8.61239 29.0187 8.34216 30.3088 8.34216C31.6164 8.34216 32.7496 8.61239 33.7084 9.15284C34.6673 9.67586 35.3995 10.3994 35.9051 11.3234C36.4281 12.2474 36.6896 13.2934 36.6896 14.4615C36.6896 15.6295 36.4281 16.6843 35.9051 17.6257C35.3995 18.5497 34.6673 19.282 33.7084 19.8224C32.7496 20.3629 31.5989 20.6331 30.2565 20.6331C29.0013 20.6331 27.8768 20.389 26.883 19.9009C25.9067 19.4127 25.1396 18.7066 24.5818 17.7826C24.0239 16.8586 23.7449 15.7516 23.7449 14.4615ZM27.4322 14.4876C27.4322 15.0804 27.5542 15.6208 27.7983 16.109C28.0424 16.5797 28.3736 16.9545 28.7921 17.2335C29.2105 17.5124 29.6812 17.6519 30.2042 17.6519C31.0585 17.6519 31.7384 17.3555 32.244 16.7628C32.7496 16.1526 33.0024 15.3942 33.0024 14.4876C33.0024 13.5811 32.7496 12.8314 32.244 12.2386C31.7384 11.6285 31.0585 11.3234 30.2042 11.3234C29.6812 11.3234 29.2105 11.4628 28.7921 11.7418C28.3736 12.0207 28.0424 12.3956 27.7983 12.8663C27.5542 13.337 27.4322 13.8774 27.4322 14.4876Z" fill="url(#paint10_linear_4_72)"/>
<defs>
<linearGradient id="paint0_linear_4_72" x1="19.7792" y1="-3.54386" x2="4.04576" y2="19.0824" gradientUnits="userSpaceOnUse">
<stop stop-color="#05A0DD"/>
<stop offset="1" stop-color="#062146"/>
</linearGradient>
<linearGradient id="paint1_linear_4_72" x1="14.6036" y1="4.34744" x2="7.89582" y2="14.2676" gradientUnits="userSpaceOnUse">
<stop stop-color="#05A0DD"/>
<stop offset="1" stop-color="#062146"/>
</linearGradient>
<linearGradient id="paint2_linear_4_72" x1="22.7512" y1="21.2781" x2="149.972" y2="8.18916" gradientUnits="userSpaceOnUse">
<stop stop-color="#062146"/>
<stop offset="1" stop-color="#05A0DD"/>
</linearGradient>
<linearGradient id="paint3_linear_4_72" x1="22.7513" y1="21.2782" x2="149.972" y2="8.18918" gradientUnits="userSpaceOnUse">
<stop stop-color="#062146"/>
<stop offset="1" stop-color="#05A0DD"/>
</linearGradient>
<linearGradient id="paint4_linear_4_72" x1="22.7514" y1="21.2781" x2="149.973" y2="8.18914" gradientUnits="userSpaceOnUse">
<stop stop-color="#062146"/>
<stop offset="1" stop-color="#05A0DD"/>
</linearGradient>
<linearGradient id="paint5_linear_4_72" x1="22.7513" y1="21.2781" x2="149.972" y2="8.18916" gradientUnits="userSpaceOnUse">
<stop stop-color="#062146"/>
<stop offset="1" stop-color="#05A0DD"/>
</linearGradient>
<linearGradient id="paint6_linear_4_72" x1="22.7513" y1="21.2781" x2="149.972" y2="8.1891" gradientUnits="userSpaceOnUse">
<stop stop-color="#062146"/>
<stop offset="1" stop-color="#05A0DD"/>
</linearGradient>
<linearGradient id="paint7_linear_4_72" x1="22.7513" y1="21.2781" x2="149.973" y2="8.18916" gradientUnits="userSpaceOnUse">
<stop stop-color="#062146"/>
<stop offset="1" stop-color="#05A0DD"/>
</linearGradient>
<linearGradient id="paint8_linear_4_72" x1="22.7513" y1="21.2781" x2="149.973" y2="8.18916" gradientUnits="userSpaceOnUse">
<stop stop-color="#062146"/>
<stop offset="1" stop-color="#05A0DD"/>
</linearGradient>
<linearGradient id="paint9_linear_4_72" x1="22.7513" y1="21.2781" x2="149.972" y2="8.18916" gradientUnits="userSpaceOnUse">
<stop stop-color="#062146"/>
<stop offset="1" stop-color="#05A0DD"/>
</linearGradient>
<linearGradient id="paint10_linear_4_72" x1="22.7512" y1="21.2781" x2="149.972" y2="8.18916" gradientUnits="userSpaceOnUse">
<stop stop-color="#062146"/>
<stop offset="1" stop-color="#05A0DD"/>
</linearGradient>
</defs>
</svg>
