<svg width="452" height="451" viewBox="0 0 452 451" fill="none" xmlns="http://www.w3.org/2000/svg">
<path d="M410.035 39.0664C436.625 65.18 450.566 99.8063 451.25 136.938C450.823 160.202 445.556 182.334 432.984 202.078C427.272 211.076 427.907 221.872 430.076 232.059C433.056 244.335 438.116 254.911 447.18 263.914C450.011 267.159 450.011 267.159 450 270C448.641 272.25 448.641 272.25 446 274C442.887 274.463 439.879 274.237 436.75 274C435.831 273.941 434.913 273.882 433.966 273.821C416.291 272.509 395.73 270.613 380.473 260.75C376.264 258.629 374.5 258.798 370 260C367.825 260.867 365.678 261.809 363.563 262.812C340.06 273.48 311.859 273.743 287 268C285.76 267.733 284.52 267.466 283.242 267.191C247.569 258.671 215.23 235.978 195.996 204.746C176.952 172.8 172.735 136.609 180.961 100.559C186.561 78.521 198.387 59.2963 214 43C214.807 42.1183 215.614 41.2366 216.445 40.3281C239.434 16.0355 273.993 1.83413 307.129 0.0664039C346.32 -0.605889 381.649 11.7593 410.035 39.0664Z" fill="url(#paint0_linear_50_132)"/>
<path d="M167 91C167.882 94.5575 168.012 97.1506 167.258 100.73C167.079 101.617 166.899 102.503 166.715 103.416C166.423 104.788 166.423 104.788 166.125 106.187C158.454 142.931 165.036 182.018 185 214C203.967 242.514 231.413 264.775 264 276C259.052 292.014 248.307 304.975 237 317C236.474 317.59 235.948 318.181 235.406 318.789C217.787 337.756 190.781 349.979 166 356C165.323 356.165 164.647 356.33 163.95 356.5C137.792 362.556 106.874 361.092 82.8242 348.312C79.8021 346.908 78.2747 346.524 75 347C72.2367 348.154 72.2367 348.154 69.4375 349.75C52.6938 358.354 33.8951 360.856 15.25 361.938C13.9382 362.024 13.9382 362.024 12.5999 362.112C6.62355 362.362 6.62355 362.362 3.42189 360.504C2.71806 359.759 2.71806 359.759 2.00001 359C2.48865 354.516 3.93975 352.678 7.12501 349.562C18.9729 336.81 23.8735 319.416 23.3164 302.273C22.7115 296.015 20.736 291.979 17.1875 286.875C0.112066 262.173 -1.81898 227.523 3.39064 198.85C10.3101 163.7 30.3511 132.075 60.1875 111.875C91.8587 91.0839 129.686 83.0428 167 91Z" fill="url(#paint1_linear_50_132)"/>
<path d="M359 280C359.484 282.166 359.962 284.333 360.438 286.5C360.838 288.31 360.838 288.31 361.246 290.156C367.399 321.527 360.232 353.799 343.328 380.656C338.252 389.614 340.565 402.53 343.096 412.074C346.242 422.852 351.16 431.949 359.18 439.914C362.011 443.159 362.011 443.159 362 446C360.641 448.25 360.641 448.25 358 450C354.887 450.463 351.879 450.237 348.75 450C347.831 449.941 346.912 449.882 345.966 449.821C328.291 448.509 307.729 446.613 292.473 436.75C288.264 434.629 286.5 434.798 282 436C279.825 436.867 277.678 437.809 275.562 438.812C246.26 452.096 210.119 449.644 180.438 438.754C160.999 431.239 144.44 420.933 129 407C128.201 406.285 127.402 405.569 126.578 404.832C116.479 395.288 108.596 383.679 103 371C103.914 371.144 104.828 371.289 105.77 371.438C139.584 376.321 173.262 372.064 204 357C204.685 356.672 205.37 356.343 206.076 356.005C239.544 339.824 261.528 313.674 278 281C278.715 281.121 279.431 281.242 280.168 281.367C281.164 281.535 282.161 281.702 283.188 281.875C284.15 282.037 285.113 282.2 286.105 282.367C287.391 282.576 288.676 282.785 290 283C290.939 283.167 291.878 283.334 292.845 283.506C300.839 284.857 308.587 285.35 316.688 285.312C318.511 285.308 318.511 285.308 320.372 285.304C331.737 285.173 342.361 283.7 353.359 280.898C357 280 357 280 359 280Z" fill="url(#paint2_linear_50_132)"/>
<defs>
<linearGradient id="paint0_linear_50_132" x1="314.107" y1="0.0404358" x2="314.107" y2="274.269" gradientUnits="userSpaceOnUse">
<stop stop-color="#062146"/>
<stop offset="1" stop-color="#05A0DD"/>
</linearGradient>
<linearGradient id="paint1_linear_50_132" x1="132.421" y1="87.9797" x2="132.421" y2="362.228" gradientUnits="userSpaceOnUse">
<stop stop-color="#062146"/>
<stop offset="1" stop-color="#05A0DD"/>
</linearGradient>
<linearGradient id="paint2_linear_50_132" x1="233.212" y1="280" x2="233.212" y2="450.269" gradientUnits="userSpaceOnUse">
<stop stop-color="#062146"/>
<stop offset="1" stop-color="#05A0DD"/>
</linearGradient>
</defs>
</svg>
