<svg width="500" height="433" viewBox="0 0 500 433" fill="none" xmlns="http://www.w3.org/2000/svg">
<g clip-path="url(#clip0_35_256)">
<path d="M343.69 133.841C343.673 143.624 340.753 153.183 335.302 161.308C329.85 169.433 322.111 175.76 313.063 179.488C304.014 183.216 294.063 184.177 284.468 182.252C274.873 180.326 266.065 175.599 259.157 168.669C252.249 161.739 247.552 152.916 245.659 143.317C243.767 133.719 244.765 123.774 248.526 114.742C252.287 105.71 258.643 97.9956 266.79 92.5746C274.937 87.1536 284.509 84.2694 294.296 84.2868C300.798 84.2814 307.238 85.5608 313.245 88.0514C319.251 90.542 324.707 94.1947 329.297 98.7996C333.887 103.404 337.521 108.871 339.991 114.884C342.461 120.898 343.718 127.34 343.69 133.841Z" fill="#F2F2F2"/>
<path d="M426.044 162.676L433.001 149.395C426.762 141.864 406.292 132.729 406.292 132.729L378.588 107.52C378.293 106.395 377.706 105.368 376.888 104.542C376.07 103.716 375.048 103.12 373.926 102.814C372.804 102.508 371.621 102.503 370.496 102.799C369.372 103.095 368.345 103.682 367.519 104.501C366.694 105.321 366.099 106.343 365.794 107.465C365.489 108.587 365.485 109.769 365.783 110.893C366.081 112.017 366.669 113.043 367.49 113.867C368.31 114.692 369.333 115.285 370.456 115.589L400.387 151.474L426.044 162.676Z" fill="#9E616A"/>
<path d="M422.673 161.76L432.497 164.886C439.641 167.16 447.34 166.989 454.375 164.4C456.504 163.607 458.368 162.236 459.757 160.44C461.147 158.645 462.006 156.496 462.238 154.238C462.533 151.174 461.652 148.114 459.775 145.674C457.898 143.235 455.165 141.599 452.127 141.098C442.914 139.584 431.044 138.838 426.808 143.876L426.766 143.927L422.673 161.76Z" fill="#3F3D56"/>
<path d="M352.011 202.417C379.339 202.417 401.493 180.27 401.493 152.95C401.493 125.631 379.339 103.484 352.011 103.484C324.683 103.484 302.529 125.631 302.529 152.95C302.529 180.27 324.683 202.417 352.011 202.417Z" fill="white"/>
<path d="M331.816 133.602C331.137 137.249 330.023 140.802 328.499 144.185C319.77 162.645 344.628 156.628 353.511 156.628C363.224 156.628 372.517 161.734 371.098 139.047C370.491 129.357 363.224 121.467 353.511 121.467C345.215 121.467 333.551 125.153 331.816 133.602Z" fill="#2F2E41"/>
<path d="M352.056 156.624C359.949 156.624 366.347 150.228 366.347 142.337C366.347 134.447 359.949 128.051 352.056 128.051C344.164 128.051 337.766 134.447 337.766 142.337C337.766 150.228 344.164 156.624 352.056 156.624Z" fill="#FFB6B6"/>
<path d="M342.351 127.775C344.856 126.248 347.724 125.423 350.657 125.384C353.589 125.346 356.478 126.095 359.022 127.555C361.565 129.014 363.67 131.13 365.116 133.682C366.561 136.233 367.295 139.125 367.239 142.056C359.957 143.884 352.307 145.283 344.542 142.494L342.708 138.007L341.626 142.497C339.261 143.463 336.89 144.281 334.519 142.488C334.423 139.564 335.095 136.667 336.469 134.085C337.844 131.503 339.872 129.327 342.351 127.775Z" fill="#2F2E41"/>
<path d="M390.486 185.842C381.913 195.593 369.848 201.584 356.896 202.519C343.944 203.455 331.143 199.261 321.257 190.844L325.501 179.005C326.46 176.902 327.974 175.1 329.879 173.792C331.785 172.484 334.011 171.719 336.319 171.579L339.019 171.413L345.457 165.862C345.457 165.862 362.805 165.243 362.547 164.946L373.055 171.265L373.046 171.221L377.177 171.474C379.485 171.613 381.711 172.378 383.617 173.686C385.523 174.995 387.036 176.797 387.995 178.9L390.486 185.842Z" fill="#05A0DD"/>
<path d="M347.669 389.673L346.44 372.577C338.386 368.552 329.47 366.554 320.468 366.755C333.133 376.541 332.119 396.101 340.89 409.487C343.657 413.641 347.325 417.119 351.62 419.663C355.915 422.208 360.727 423.754 365.701 424.186L376.241 430.248C377.447 422.281 376.911 414.148 374.67 406.409C372.428 398.67 368.535 391.508 363.259 385.418C360.265 382.03 356.856 379.033 353.113 376.497C350.809 383.11 347.669 389.673 347.669 389.673Z" fill="#F2F2F2"/>
<path d="M27.201 86.6569L25.9715 69.5613C17.9173 65.5364 9.00214 63.5378 0 63.739C12.6648 73.5253 11.6504 93.0848 20.4214 106.471C23.189 110.625 26.8562 114.103 31.1513 116.648C35.4463 119.192 40.2591 120.738 45.233 121.17L55.7732 127.232C56.9789 119.266 56.4426 111.133 54.2014 103.393C51.9601 95.654 48.0671 88.4924 42.7906 82.402C39.7967 79.0146 36.3879 76.0176 32.6448 73.4817C30.341 80.0942 27.201 86.6569 27.201 86.6569Z" fill="#F2F2F2"/>
<path d="M393.778 424.468L385.556 424.467L381.645 392.766H393.779L393.778 424.468Z" fill="#9E616A"/>
<path d="M395.875 432.435L369.365 432.434V432.099C369.365 429.363 370.452 426.74 372.387 424.805C374.322 422.871 376.947 421.784 379.683 421.784H379.684L384.526 418.111L393.561 421.784L395.875 421.785L395.875 432.435Z" fill="#2F2E41"/>
<path d="M466.238 424.468L458.017 424.467L454.105 392.766H466.24L466.238 424.468Z" fill="#9E616A"/>
<path d="M468.335 432.435L441.825 432.434V432.099C441.825 429.363 442.913 426.74 444.848 424.805C446.783 422.871 449.407 421.784 452.144 421.784H452.144L456.987 418.111L466.021 421.785L468.336 421.785L468.335 432.435Z" fill="#2F2E41"/>
<path d="M453.733 254.797L460.649 320.469C460.649 320.469 469.854 386.226 468.125 395.299C466.396 404.373 468.557 405.669 468.557 405.669L452.783 404.546C452.783 404.546 453.215 398.929 450.622 396.337C448.029 393.744 449.326 385.967 449.326 385.967L418.726 278.992L400.142 335.159C400.142 335.159 397.116 396.943 396.684 397.807C396.252 398.671 394.955 410.337 394.955 410.337H378.964C378.964 410.337 381.125 403.424 378.1 401.264C375.074 399.104 372.481 400.832 375.074 396.943C377.667 393.055 378.532 388.302 377.667 386.142C376.803 383.982 376.803 375.341 376.803 375.341C376.803 375.341 378.1 258.686 385.447 254.797C392.794 250.909 453.733 254.797 453.733 254.797Z" fill="#2F2E41"/>
<path d="M420.985 121.827C430.379 121.827 437.993 114.215 437.993 104.824C437.993 95.434 430.379 87.8216 420.985 87.8216C411.592 87.8216 403.977 95.434 403.977 104.824C403.977 114.215 411.592 121.827 420.985 121.827Z" fill="#9E616A"/>
<path d="M459.612 261.955C426.673 268.755 383.023 257.064 383.023 257.064L394.667 206.605L390.527 153.799C390.022 147.341 393.701 141.288 399.425 139.143L407.328 136.183L413.861 126.834L432.521 127.446L439.98 137.262L445.867 140.384L458.629 147.15L458.685 147.178V147.206L454.68 186.042L452.265 209.457C452.265 209.457 459.601 235.793 458.095 239.286C456.59 242.773 457.899 241.088 458.264 242.953C458.629 244.817 459.747 244.935 459.915 248.607C460.089 252.274 459.612 261.955 459.612 261.955Z" fill="#3F3D56"/>
<path d="M499.43 433H244.995C244.844 432.999 244.699 432.939 244.593 432.832C244.487 432.726 244.427 432.581 244.427 432.43C244.427 432.28 244.487 432.135 244.593 432.028C244.699 431.921 244.844 431.861 244.995 431.861H499.43C499.581 431.861 499.726 431.921 499.833 432.027C499.94 432.134 500 432.279 500 432.43C500 432.581 499.94 432.726 499.833 432.833C499.726 432.94 499.581 433 499.43 433Z" fill="#CCCCCC"/>
<path d="M420.158 121.01C423.141 120.98 426.116 120.695 429.051 120.158C431.956 119.489 438.366 114.534 440.113 111.607C441.41 109.432 442.189 106.068 442.614 103.629C443.188 100.402 443.078 97.0894 442.29 93.9071C441.502 90.7249 440.054 87.7436 438.04 85.1562C437.264 84.0723 436.209 83.2182 434.987 82.6845C434.879 82.6454 434.768 82.6112 434.656 82.5823C432.885 82.165 431.279 81.2279 430.044 79.8915C429.804 79.6209 429.545 79.368 429.269 79.1346C427.884 78.026 426.256 77.2608 424.519 76.9016C421.712 76.2277 417.696 77.0722 412.584 79.4137C410.016 80.5902 407.166 80.262 404.969 79.8446C404.846 79.8241 404.719 79.8362 404.602 79.8797C404.485 79.9232 404.381 79.9966 404.302 80.0925C403.395 80.9889 402.182 81.5088 400.907 81.5479C400.127 81.6023 399.335 82.7044 398.382 84.1395C398.165 84.4653 397.913 84.8455 397.729 85.0775L397.693 84.6418L397.263 85.14C396.589 85.9231 396.123 86.864 395.911 87.8753C395.698 88.8865 395.744 89.9352 396.046 90.9236C396.348 91.9121 396.895 92.8081 397.636 93.5283C398.377 94.2485 399.289 94.7695 400.286 95.0426C401.077 95.2313 401.885 95.3388 402.698 95.3633C403.191 95.3948 403.7 95.4274 404.19 95.4994C405.762 95.7792 407.235 96.4618 408.465 97.4805C409.694 98.4993 410.639 99.8194 411.205 101.312C411.339 101.657 411.551 101.966 411.823 102.217C412.096 102.467 412.422 102.651 412.777 102.755C413.132 102.86 413.507 102.881 413.871 102.817C414.236 102.754 414.581 102.608 414.88 102.39C415.378 101.981 415.966 101.7 416.596 101.568C417.226 101.436 417.879 101.459 418.498 101.634C419.037 101.916 419.462 102.374 419.703 102.931C419.994 103.552 420.464 104.072 421.052 104.425C423.058 105.394 423.311 109.909 422.697 113.695C422.106 117.343 420.819 120.005 419.569 120.167C418.606 120.292 418.497 120.363 418.432 120.536L418.373 120.69L418.485 120.83C419.024 121.01 419.594 121.071 420.158 121.01Z" fill="#2F2E41"/>
<path d="M352.011 203.036C342.101 203.036 332.415 200.099 324.176 194.595C315.936 189.092 309.515 181.269 305.723 172.117C301.93 162.965 300.938 152.895 302.871 143.179C304.805 133.463 309.576 124.539 316.583 117.534C323.59 110.529 332.517 105.759 342.236 103.827C351.955 101.894 362.029 102.886 371.184 106.677C380.339 110.468 388.164 116.887 393.669 125.124C399.174 133.361 402.113 143.044 402.113 152.95C402.098 166.229 396.814 178.96 387.421 188.35C378.029 197.739 365.294 203.021 352.011 203.036ZM352.011 104.104C342.347 104.104 332.9 106.968 324.864 112.336C316.829 117.703 310.566 125.332 306.868 134.257C303.17 143.183 302.202 153.004 304.087 162.48C305.973 171.955 310.626 180.659 317.46 187.49C324.293 194.321 333 198.974 342.478 200.858C351.956 202.743 361.781 201.776 370.709 198.079C379.638 194.382 387.269 188.121 392.638 180.088C398.007 172.055 400.873 162.611 400.873 152.95C400.858 140 395.706 127.584 386.545 118.427C377.385 109.269 364.965 104.118 352.011 104.104Z" fill="#3F3D56"/>
<path d="M179.069 99.5524C206.397 99.5524 228.551 77.4055 228.551 50.086C228.551 22.7664 206.397 0.619583 179.069 0.619583C151.741 0.619583 129.587 22.7664 129.587 50.086C129.587 77.4055 151.741 99.5524 179.069 99.5524Z" fill="white"/>
<path d="M181.359 55.1318C190.271 55.1318 197.495 47.9101 197.495 39.0017C197.495 30.0933 190.271 22.8716 181.359 22.8716C172.448 22.8716 165.224 30.0933 165.224 39.0017C165.224 47.9101 172.448 55.1318 181.359 55.1318Z" fill="#FFB8B8"/>
<path d="M195.566 28.3458C195.566 28.3458 199.767 20.3172 190.525 19.5874C190.525 19.5874 182.645 12.4421 174.614 18.2811C174.614 18.2811 170.234 18.2811 167.838 23.2367C167.838 23.2367 164.393 21.9305 163.636 25.4263C163.636 25.4263 161.115 32.7251 163.636 39.2939C166.157 45.8628 166.994 46.5927 166.994 46.5927C166.994 46.5927 165.225 38.4411 175.309 37.7112C185.392 36.9813 194.643 30.6664 195.483 38.695C196.324 46.7236 197.247 43.0968 197.247 43.0968C197.247 43.0968 205.229 31.6303 195.566 28.3458Z" fill="#2F2E41"/>
<path d="M216.282 82.978C207.709 92.7293 195.645 98.7193 182.692 99.6551C169.74 100.591 156.939 96.3972 147.053 87.9796L151.297 76.1406C152.257 74.0379 153.77 72.2358 155.676 70.9275C157.582 69.6193 159.808 68.8543 162.115 68.7146L164.815 68.5489L171.253 62.9979C171.253 62.9979 188.601 62.3786 188.344 62.0821L198.852 68.4006L198.843 68.357L202.974 68.6099C205.281 68.7491 207.508 69.5138 209.413 70.8221C211.319 72.1304 212.833 73.9329 213.791 76.036L216.282 82.978Z" fill="#05A0DD"/>
<path d="M179.069 100.172C169.16 100.172 159.473 97.2345 151.234 91.731C142.995 86.2274 136.573 78.4051 132.781 69.2531C128.989 60.1011 127.997 50.0304 129.93 40.3147C131.863 30.599 136.635 21.6745 143.642 14.6699C150.649 7.6652 159.576 2.89498 169.295 0.962397C179.014 -0.970182 189.088 0.0216829 198.242 3.81257C207.397 7.60346 215.222 14.0231 220.727 22.2597C226.233 30.4963 229.171 40.1799 229.171 50.086C229.156 63.365 223.873 76.0958 214.48 85.4855C205.087 94.8752 192.352 100.157 179.069 100.172ZM179.069 1.23933C169.405 1.23933 159.958 4.10414 151.923 9.47147C143.888 14.8388 137.625 22.4676 133.926 31.3932C130.228 40.3187 129.261 50.1402 131.146 59.6155C133.031 69.0908 137.685 77.7945 144.518 84.6258C151.352 91.4571 160.058 96.1093 169.537 97.9941C179.015 99.8788 188.84 98.9115 197.768 95.2144C206.696 91.5173 214.328 85.2565 219.697 77.2237C225.066 69.1909 227.931 59.7469 227.931 50.086C227.917 37.1356 222.764 24.7198 213.604 15.5624C204.444 6.40507 192.024 1.25402 179.069 1.23933Z" fill="#3F3D56"/>
<path d="M63.5749 177.63C90.9032 177.63 113.057 155.483 113.057 128.164C113.057 100.844 90.9032 78.6972 63.5749 78.6972C36.2467 78.6972 14.0928 100.844 14.0928 128.164C14.0928 155.483 36.2467 177.63 63.5749 177.63Z" fill="white"/>
<path d="M40.6403 112.072C42.6864 105.554 47.3392 99.5749 53.7739 97.3712C60.2091 95.1675 69.6317 98.5244 74.4695 103.344C83.3187 112.161 85.4782 142.449 79.3985 152.02C78.1892 151.956 74.0164 151.909 72.7925 151.863L71.0611 146.094V151.806C69.1111 151.746 67.146 151.704 65.1655 151.681C58.5256 151.599 52.1761 148.946 47.452 144.281C42.7279 139.616 39.9972 133.301 39.8338 126.665C39.6754 120.316 39.834 114.641 40.6403 112.072Z" fill="#2F2E41"/>
<path d="M62.8408 133.677C70.6292 133.677 76.9429 127.365 76.9429 119.579C76.9429 111.793 70.6292 105.481 62.8408 105.481C55.0525 105.481 48.7388 111.793 48.7388 119.579C48.7388 127.365 55.0525 133.677 62.8408 133.677Z" fill="#9E616A"/>
<path d="M50.6704 107.198L66.9076 99.0702C70.2272 100.566 73.0862 102.922 75.188 105.894C77.2898 108.866 78.5579 112.346 78.8608 115.974L79.2655 120.82L72.4662 119.09L71.7213 112.893L70.5666 118.606L67.4288 117.808L67.4586 108.187L64.3188 117.801L53.1118 115.227L50.6704 107.198Z" fill="#2F2E41"/>
<path d="M100.294 160.898C91.7211 170.65 79.6564 176.64 66.7042 177.575C53.7519 178.511 40.9511 174.318 31.0649 165.9L35.3091 154.061C36.2683 151.958 37.7818 150.156 39.6875 148.848C41.5933 147.54 43.8193 146.775 46.1268 146.635L48.8269 146.469L55.2651 140.918C55.2651 140.918 72.6127 140.299 72.3553 140.003L82.8633 146.321L82.8546 146.277L86.9854 146.53C89.2931 146.669 91.5193 147.434 93.4252 148.743C95.331 150.051 96.8444 151.853 97.8031 153.956L100.294 160.898Z" fill="#05A0DD"/>
<path d="M63.5751 178.25C53.6659 178.25 43.9792 175.312 35.74 169.809C27.5007 164.305 21.079 156.483 17.2869 147.331C13.4948 138.179 12.5027 128.108 14.4359 118.392C16.3691 108.677 21.1408 99.7521 28.1477 92.7475C35.1546 85.7428 44.0819 80.9726 53.8007 79.04C63.5195 77.1074 73.5934 78.0993 82.7483 81.8902C91.9032 85.6811 99.7281 92.1007 105.233 100.337C110.739 108.574 113.677 118.258 113.677 128.164C113.662 141.443 108.379 154.173 98.9859 163.563C89.5932 172.953 76.8584 178.234 63.5751 178.25ZM63.5751 79.3169C53.9111 79.3169 44.4641 82.1817 36.4287 87.5491C28.3934 92.9164 22.1306 100.545 18.4323 109.471C14.734 118.396 13.7664 128.218 15.6518 137.693C17.5371 147.168 22.1908 155.872 29.0243 162.703C35.8578 169.535 44.5642 174.187 54.0425 176.072C63.5209 177.956 73.3455 176.989 82.2739 173.292C91.2023 169.595 98.8335 163.334 104.203 155.301C109.572 147.269 112.437 137.825 112.437 128.164C112.423 115.213 107.27 102.797 98.1097 93.64C88.9494 84.4827 76.5297 79.3316 63.5751 79.3169Z" fill="#3F3D56"/>
<path d="M397.711 178.613L390.22 165.625C380.516 166.858 361.835 179.244 361.835 179.244L325.701 189.128C324.593 188.775 323.411 188.719 322.275 188.968C321.138 189.216 320.088 189.759 319.228 190.542C318.368 191.326 317.73 192.321 317.378 193.43C317.026 194.538 316.972 195.719 317.222 196.855C317.471 197.99 318.016 199.04 318.801 199.898C319.585 200.757 320.582 201.393 321.691 201.744C322.8 202.095 323.982 202.147 325.117 201.896C326.253 201.645 327.303 201.1 328.16 200.315L374.505 194.271L397.711 178.613Z" fill="#9E616A"/>
<path d="M395.132 180.967L411.904 166.923L414.344 155.619C414.815 153.399 414.655 151.09 413.882 148.955C413.11 146.821 411.755 144.944 409.972 143.538C407.542 141.649 404.485 140.753 401.419 141.031C398.353 141.308 395.507 142.74 393.456 145.035C387.243 152.002 380.253 161.623 382.24 167.896L382.261 167.96L395.132 180.967Z" fill="#3F3D56"/>
<path d="M138.072 229.753H75.0537C73.3648 229.751 71.7457 229.079 70.5515 227.885C69.3572 226.692 68.6855 225.073 68.6836 223.385V184.584C68.6855 182.895 69.3572 181.277 70.5515 180.083C71.7457 178.889 73.3648 178.217 75.0537 178.215H138.072C139.761 178.217 141.38 178.889 142.574 180.083C143.769 181.277 144.44 182.895 144.442 184.584V223.385C144.44 225.073 143.769 226.692 142.574 227.885C141.38 229.079 139.761 229.751 138.072 229.753Z" fill="#E6E6E6"/>
<path d="M113.034 224.755H79.4833C77.9015 224.753 76.385 224.124 75.2666 223.006C74.1481 221.888 73.5189 220.372 73.5171 218.791V189.177C73.5189 187.596 74.1481 186.08 75.2666 184.962C76.385 183.844 77.9015 183.215 79.4833 183.213H133.642C135.224 183.215 136.74 183.844 137.859 184.962C138.977 186.08 139.606 187.596 139.608 189.177V198.189C139.6 205.232 136.798 211.985 131.816 216.965C126.834 221.946 120.079 224.747 113.034 224.755Z" fill="white"/>
<path d="M128.24 199.429H84.8861C84.5111 199.429 84.1515 199.28 83.8863 199.015C83.6211 198.75 83.4722 198.39 83.4722 198.016C83.4722 197.641 83.6211 197.281 83.8863 197.016C84.1515 196.751 84.5111 196.602 84.8861 196.602H128.24C128.615 196.602 128.974 196.751 129.239 197.016C129.504 197.281 129.653 197.641 129.653 198.016C129.653 198.39 129.504 198.75 129.239 199.015C128.974 199.28 128.615 199.429 128.24 199.429Z" fill="#05A0DD"/>
<path d="M91.6677 205.014H84.8861C84.5111 205.014 84.1515 204.865 83.8863 204.6C83.6211 204.335 83.4722 203.976 83.4722 203.601C83.4722 203.226 83.6211 202.866 83.8863 202.601C84.1515 202.336 84.5111 202.187 84.8861 202.187H91.6677C92.0427 202.187 92.4024 202.336 92.6676 202.601C92.9327 202.866 93.0817 203.226 93.0817 203.601C93.0817 203.976 92.9327 204.335 92.6676 204.6C92.4024 204.865 92.0427 205.014 91.6677 205.014Z" fill="#05A0DD"/>
<path d="M103.679 210.6H84.8861C84.5116 210.599 84.1527 210.449 83.8882 210.184C83.6237 209.919 83.4751 209.56 83.4751 209.186C83.4751 208.812 83.6237 208.453 83.8882 208.188C84.1527 207.923 84.5116 207.773 84.8861 207.772H103.679C104.053 207.773 104.412 207.923 104.677 208.188C104.941 208.453 105.09 208.812 105.09 209.186C105.09 209.56 104.941 209.919 104.677 210.184C104.412 210.449 104.053 210.599 103.679 210.6Z" fill="#05A0DD"/>
<path d="M66.4842 190.769C73.8466 190.769 79.815 184.803 79.815 177.443C79.815 170.083 73.8466 164.116 66.4842 164.116C59.1217 164.116 53.1533 170.083 53.1533 177.443C53.1533 184.803 59.1217 190.769 66.4842 190.769Z" fill="#3F3D56"/>
<path d="M301.716 53.7682H238.697C237.008 53.7662 235.389 53.0947 234.195 51.9009C233.001 50.707 232.329 49.0884 232.327 47.4V8.59903C232.329 6.91068 233.001 5.29204 234.195 4.09819C235.389 2.90434 237.008 2.23279 238.697 2.23088H301.716C303.404 2.23279 305.024 2.90433 306.218 4.09818C307.412 5.29203 308.084 6.91068 308.086 8.59903V47.4C308.084 49.0883 307.412 50.707 306.218 51.9009C305.024 53.0947 303.404 53.7663 301.716 53.7682Z" fill="#E6E6E6"/>
<path d="M276.677 48.7703H243.127C241.545 48.7686 240.029 48.1397 238.91 47.0216C237.792 45.9035 237.162 44.3876 237.161 42.8064V13.1926C237.162 11.6114 237.792 10.0954 238.91 8.97737C240.029 7.85929 241.545 7.2304 243.127 7.22865H297.286C298.867 7.23041 300.384 7.85932 301.502 8.9774C302.621 10.0955 303.25 11.6114 303.252 13.1926V22.2047C303.244 29.2479 300.441 36.0004 295.459 40.9807C290.477 45.961 283.723 48.7624 276.677 48.7703Z" fill="white"/>
<path d="M291.883 23.4445H248.53C248.155 23.4445 247.795 23.2955 247.53 23.0305C247.265 22.7654 247.116 22.4059 247.116 22.031C247.116 21.6561 247.265 21.2966 247.53 21.0315C247.795 20.7665 248.155 20.6176 248.53 20.6176H291.883C292.258 20.6176 292.618 20.7665 292.883 21.0315C293.148 21.2966 293.297 21.6561 293.297 22.031C293.297 22.4059 293.148 22.7654 292.883 23.0305C292.618 23.2955 292.258 23.4445 291.883 23.4445Z" fill="#05A0DD"/>
<path d="M255.311 29.0297H248.53C248.155 29.0297 247.795 28.8808 247.53 28.6157C247.265 28.3506 247.116 27.9911 247.116 27.6162C247.116 27.2413 247.265 26.8818 247.53 26.6167C247.795 26.3516 248.155 26.2027 248.53 26.2027H255.311C255.686 26.2027 256.046 26.3516 256.311 26.6167C256.576 26.8818 256.725 27.2413 256.725 27.6162C256.725 27.9911 256.576 28.3506 256.311 28.6157C256.046 28.8808 255.686 29.0297 255.311 29.0297Z" fill="#05A0DD"/>
<path d="M267.322 34.6149H248.53C248.155 34.6142 247.796 34.4649 247.532 34.1999C247.267 33.9349 247.119 33.5758 247.119 33.2014C247.119 32.827 247.267 32.468 247.532 32.203C247.796 31.938 248.155 31.7887 248.53 31.7879H267.322C267.697 31.7879 268.057 31.9368 268.322 32.2019C268.587 32.467 268.736 32.8265 268.736 33.2014C268.736 33.5763 268.587 33.9358 268.322 34.2009C268.057 34.466 267.697 34.6149 267.322 34.6149Z" fill="#05A0DD"/>
<path d="M230.128 61.2595C237.49 61.2595 243.459 55.293 243.459 47.9329C243.459 40.5728 237.49 34.6063 230.128 34.6063C222.765 34.6063 216.797 40.5728 216.797 47.9329C216.797 55.293 222.765 61.2595 230.128 61.2595Z" fill="#3F3D56"/>
</g>
<defs>
<clipPath id="clip0_35_256">
<rect width="500" height="433" fill="white"/>
</clipPath>
</defs>
</svg>
