<svg width="553" height="341" viewBox="0 0 553 341" fill="none" xmlns="http://www.w3.org/2000/svg">
<g clip-path="url(#clip0_21_209)">
<path d="M547.045 223.833H162.119C160.54 223.832 159.027 223.203 157.91 222.086C156.794 220.969 156.166 219.454 156.164 217.874V5.95894C156.166 4.37908 156.794 2.86443 157.91 1.7473C159.027 0.630172 160.54 0.00178556 162.119 0H547.045C548.624 0.00178873 550.137 0.630182 551.254 1.74731C552.37 2.86444 552.998 4.37908 553 5.95894V217.874C552.998 219.454 552.37 220.969 551.254 222.086C550.137 223.203 548.624 223.831 547.045 223.833Z" fill="#E6E6E6"/>
<path d="M538.924 215.707H170.24C168.661 215.706 167.147 215.077 166.031 213.96C164.914 212.843 164.286 211.328 164.285 209.749V14.0848C164.286 12.5049 164.914 10.9903 166.031 9.87312C167.147 8.75599 168.661 8.1276 170.24 8.12582H538.924C540.503 8.12761 542.016 8.756 543.133 9.87313C544.249 10.9903 544.877 12.5049 544.879 14.0848V209.749C544.877 211.328 544.249 212.843 543.133 213.96C542.016 215.077 540.503 215.706 538.924 215.707Z" fill="white"/>
<path d="M273.406 128.854H204.044C203.278 128.853 202.544 128.548 202.002 128.006C201.46 127.464 201.155 126.729 201.154 125.962V53.6793C201.155 52.9126 201.46 52.1776 202.002 51.6355C202.544 51.0933 203.278 50.7884 204.044 50.7875H273.406C274.173 50.7884 274.907 51.0933 275.449 51.6355C275.991 52.1776 276.296 52.9126 276.296 53.6793V125.962C276.296 126.729 275.991 127.464 275.449 128.006C274.907 128.548 274.173 128.853 273.406 128.854ZM204.044 51.9442C203.585 51.9447 203.144 52.1277 202.819 52.453C202.494 52.7783 202.311 53.2193 202.31 53.6793V125.962C202.311 126.422 202.494 126.863 202.819 127.188C203.144 127.514 203.585 127.697 204.044 127.697H273.406C273.866 127.697 274.307 127.514 274.632 127.188C274.957 126.863 275.14 126.422 275.14 125.962V53.6793C275.14 53.2193 274.957 52.7782 274.632 52.453C274.307 52.1277 273.866 51.9447 273.406 51.9442H204.044Z" fill="#3F3D56"/>
<path d="M389.263 128.854H319.901C319.135 128.853 318.4 128.548 317.858 128.006C317.316 127.464 317.012 126.729 317.011 125.962V53.6793C317.012 52.9126 317.316 52.1776 317.858 51.6355C318.4 51.0933 319.135 50.7884 319.901 50.7875H389.263C390.029 50.7884 390.764 51.0933 391.305 51.6355C391.847 52.1776 392.152 52.9126 392.153 53.6793V125.962C392.152 126.729 391.847 127.464 391.305 128.006C390.764 128.548 390.029 128.853 389.263 128.854ZM319.901 51.9442C319.441 51.9447 319 52.1277 318.675 52.453C318.35 52.7783 318.167 53.2193 318.167 53.6793V125.962C318.167 126.422 318.35 126.863 318.675 127.188C319 127.514 319.441 127.697 319.901 127.697H389.263C389.723 127.697 390.163 127.514 390.488 127.188C390.813 126.863 390.996 126.422 390.997 125.962V53.6793C390.996 53.2193 390.813 52.7783 390.488 52.453C390.163 52.1277 389.723 51.9447 389.263 51.9442H319.901Z" fill="#3F3D56"/>
<path d="M505.12 128.854H435.758C434.992 128.853 434.257 128.548 433.715 128.006C433.173 127.464 432.869 126.729 432.868 125.962V53.6793C432.869 52.9126 433.173 52.1776 433.715 51.6355C434.257 51.0933 434.992 50.7884 435.758 50.7875H505.12C505.886 50.7884 506.621 51.0933 507.162 51.6355C507.704 52.1776 508.009 52.9126 508.01 53.6793V125.962C508.009 126.729 507.704 127.464 507.162 128.006C506.621 128.548 505.886 128.853 505.12 128.854ZM435.758 51.9442C435.298 51.9447 434.857 52.1277 434.532 52.453C434.207 52.7782 434.024 53.2193 434.024 53.6793V125.962C434.024 126.422 434.207 126.863 434.532 127.188C434.857 127.514 435.298 127.697 435.758 127.697H505.12C505.579 127.697 506.02 127.514 506.345 127.188C506.67 126.863 506.853 126.422 506.854 125.962V53.6793C506.853 53.2193 506.67 52.7782 506.345 52.453C506.02 52.1277 505.579 51.9447 505.12 51.9442H435.758Z" fill="#3F3D56"/>
<path d="M225.332 173.046C225.589 173.046 225.844 172.995 226.083 172.897C226.321 172.798 226.537 172.654 226.719 172.471C226.902 172.289 227.046 172.073 227.145 171.835C227.244 171.596 227.294 171.341 227.295 171.083C227.295 170.825 227.244 170.57 227.146 170.332C227.047 170.094 226.903 169.877 226.72 169.695C226.538 169.512 226.322 169.368 226.084 169.269C225.846 169.17 225.591 169.119 225.333 169.119H207.726C207.205 169.119 206.706 169.326 206.338 169.694C205.97 170.062 205.764 170.562 205.764 171.083C205.764 171.603 205.97 172.103 206.338 172.471C206.706 172.839 207.205 173.046 207.726 173.046H225.332Z" fill="#E6E6E6"/>
<path d="M269.725 161.478C270.246 161.479 270.745 161.273 271.114 160.906C271.482 160.538 271.69 160.039 271.691 159.519C271.692 158.998 271.486 158.498 271.119 158.129C270.752 157.76 270.253 157.553 269.732 157.552H207.726C207.206 157.553 206.708 157.76 206.341 158.128C205.973 158.496 205.767 158.995 205.767 159.515C205.767 160.035 205.973 160.534 206.341 160.902C206.708 161.27 207.206 161.477 207.726 161.478H269.725Z" fill="#E6E6E6"/>
<path d="M341.188 173.046C341.708 173.046 342.208 172.839 342.576 172.471C342.943 172.103 343.15 171.603 343.15 171.083C343.15 170.562 342.943 170.062 342.576 169.694C342.208 169.326 341.708 169.119 341.188 169.119H323.582C323.062 169.119 322.563 169.326 322.195 169.694C321.827 170.062 321.62 170.562 321.62 171.083C321.62 171.603 321.827 172.103 322.195 172.471C322.563 172.839 323.062 173.046 323.582 173.046H341.188Z" fill="#E6E6E6"/>
<path d="M385.582 161.478C386.102 161.477 386.6 161.27 386.967 160.902C387.334 160.534 387.54 160.035 387.54 159.515C387.54 158.995 387.334 158.496 386.967 158.128C386.6 157.76 386.102 157.553 385.582 157.552H323.582C323.062 157.553 322.564 157.76 322.197 158.128C321.83 158.496 321.624 158.995 321.624 159.515C321.624 160.035 321.83 160.534 322.197 160.902C322.564 161.27 323.062 161.477 323.582 161.478H385.582Z" fill="#E6E6E6"/>
<path d="M457.045 173.046C457.565 173.046 458.064 172.839 458.432 172.471C458.8 172.103 459.007 171.603 459.007 171.083C459.007 170.562 458.8 170.062 458.432 169.694C458.064 169.326 457.565 169.119 457.045 169.119H439.439C439.181 169.119 438.926 169.17 438.688 169.268C438.45 169.367 438.234 169.511 438.051 169.694C437.869 169.876 437.724 170.092 437.626 170.33C437.527 170.569 437.476 170.824 437.476 171.082C437.476 171.34 437.527 171.595 437.625 171.833C437.724 172.071 437.868 172.288 438.05 172.47C438.232 172.653 438.449 172.797 438.687 172.896C438.925 172.995 439.18 173.046 439.437 173.046H457.045Z" fill="#E6E6E6"/>
<path d="M501.438 161.478C501.958 161.477 502.456 161.27 502.824 160.902C503.191 160.534 503.397 160.035 503.397 159.515C503.397 158.995 503.191 158.496 502.824 158.128C502.456 157.76 501.958 157.553 501.438 157.552H439.439C439.181 157.551 438.926 157.602 438.688 157.7C438.449 157.798 438.233 157.942 438.05 158.124C437.868 158.306 437.723 158.522 437.624 158.76C437.525 158.998 437.474 159.254 437.473 159.511C437.473 159.769 437.523 160.025 437.621 160.263C437.719 160.501 437.863 160.718 438.045 160.901C438.227 161.083 438.443 161.228 438.681 161.328C438.919 161.427 439.174 161.478 439.432 161.478H501.438Z" fill="#E6E6E6"/>
<path d="M269.725 150.102C270.246 150.102 270.745 149.896 271.113 149.528C271.481 149.16 271.688 148.66 271.688 148.14C271.688 147.619 271.482 147.119 271.114 146.751C270.746 146.383 270.247 146.176 269.727 146.176H207.726C207.205 146.176 206.706 146.382 206.338 146.751C205.97 147.119 205.764 147.618 205.764 148.139C205.764 148.66 205.97 149.159 206.338 149.527C206.706 149.895 207.205 150.102 207.726 150.102H269.725Z" fill="#05A0DD"/>
<path d="M385.582 150.102C386.102 150.102 386.601 149.895 386.969 149.527C387.337 149.159 387.544 148.66 387.544 148.139C387.544 147.618 387.337 147.119 386.969 146.751C386.601 146.382 386.102 146.176 385.582 146.176H323.582C323.062 146.176 322.563 146.382 322.195 146.751C321.827 147.119 321.62 147.618 321.62 148.139C321.62 148.66 321.827 149.159 322.195 149.527C322.563 149.895 323.062 150.102 323.582 150.102H385.582Z" fill="#05A0DD"/>
<path d="M501.439 150.102C501.959 150.102 502.458 149.895 502.826 149.527C503.194 149.159 503.401 148.66 503.401 148.139C503.401 147.618 503.194 147.119 502.826 146.751C502.458 146.382 501.959 146.176 501.439 146.176H439.439C438.919 146.175 438.419 146.382 438.051 146.75C437.683 147.118 437.476 147.617 437.476 148.138C437.476 148.659 437.682 149.158 438.05 149.527C438.418 149.895 438.917 150.102 439.437 150.102H501.439Z" fill="#05A0DD"/>
<path d="M258.627 114.845C259.147 114.844 259.645 114.637 260.012 114.269C260.379 113.901 260.585 113.402 260.585 112.882C260.585 112.362 260.379 111.863 260.012 111.495C259.645 111.127 259.147 110.92 258.627 110.919H218.824C218.566 110.918 218.311 110.968 218.073 111.067C217.835 111.165 217.618 111.309 217.436 111.491C217.253 111.673 217.108 111.889 217.009 112.127C216.91 112.365 216.859 112.621 216.858 112.878C216.858 113.136 216.908 113.392 217.006 113.63C217.105 113.868 217.249 114.085 217.431 114.268C217.612 114.45 217.828 114.595 218.066 114.694C218.304 114.794 218.559 114.845 218.817 114.845H258.627Z" fill="#E6E6E6"/>
<path d="M258.627 103.278C259.147 103.277 259.645 103.07 260.012 102.702C260.379 102.333 260.585 101.835 260.585 101.314C260.585 100.794 260.379 100.295 260.012 99.9274C259.645 99.5593 259.147 99.3521 258.627 99.3511H218.824C218.566 99.3507 218.311 99.401 218.073 99.4992C217.835 99.5975 217.618 99.7417 217.436 99.9236C217.253 100.106 217.108 100.322 217.009 100.56C216.91 100.798 216.859 101.053 216.858 101.311C216.858 101.569 216.908 101.824 217.006 102.062C217.105 102.301 217.249 102.518 217.431 102.7C217.612 102.883 217.828 103.028 218.066 103.127C218.304 103.226 218.559 103.277 218.817 103.278H258.627Z" fill="#E6E6E6"/>
<path d="M238.725 89.7152C245.602 89.7152 251.177 84.1369 251.177 77.2556C251.177 70.3744 245.602 64.796 238.725 64.796C231.848 64.796 226.273 70.3744 226.273 77.2556C226.273 84.1369 231.848 89.7152 238.725 89.7152Z" fill="#05A0DD"/>
<path d="M374.484 114.845C375.003 114.844 375.502 114.637 375.869 114.269C376.236 113.901 376.442 113.402 376.442 112.882C376.442 112.362 376.236 111.863 375.869 111.495C375.502 111.127 375.003 110.92 374.484 110.919H334.681C334.161 110.92 333.663 111.127 333.296 111.495C332.928 111.863 332.722 112.362 332.722 112.882C332.722 113.402 332.928 113.901 333.296 114.269C333.663 114.637 334.161 114.844 334.681 114.845H374.484Z" fill="#E6E6E6"/>
<path d="M374.484 103.278C375.003 103.277 375.502 103.07 375.869 102.702C376.236 102.333 376.442 101.835 376.442 101.314C376.442 100.794 376.236 100.295 375.869 99.9274C375.502 99.5593 375.003 99.3521 374.484 99.3511H334.681C334.161 99.3521 333.663 99.5593 333.296 99.9274C332.928 100.295 332.722 100.794 332.722 101.314C332.722 101.835 332.928 102.333 333.296 102.702C333.663 103.07 334.161 103.277 334.681 103.278H374.484Z" fill="#E6E6E6"/>
<path d="M354.582 89.7152C361.459 89.7152 367.034 84.1369 367.034 77.2556C367.034 70.3744 361.459 64.796 354.582 64.796C347.705 64.796 342.13 70.3744 342.13 77.2556C342.13 84.1369 347.705 89.7152 354.582 89.7152Z" fill="#05A0DD"/>
<path d="M490.34 114.845C490.598 114.846 490.853 114.795 491.091 114.697C491.329 114.599 491.546 114.455 491.728 114.273C491.911 114.091 492.056 113.875 492.155 113.637C492.254 113.399 492.305 113.143 492.306 112.886C492.306 112.628 492.256 112.372 492.158 112.134C492.059 111.896 491.915 111.679 491.734 111.496C491.552 111.314 491.336 111.169 491.098 111.069C490.86 110.97 490.605 110.919 490.347 110.919H450.537C450.017 110.92 449.519 111.127 449.152 111.495C448.785 111.863 448.579 112.362 448.579 112.882C448.579 113.402 448.785 113.901 449.152 114.269C449.519 114.637 450.017 114.844 450.537 114.845H490.34Z" fill="#E6E6E6"/>
<path d="M490.34 103.278C490.598 103.278 490.853 103.228 491.091 103.13C491.329 103.031 491.546 102.887 491.728 102.705C491.911 102.523 492.056 102.307 492.155 102.069C492.254 101.831 492.305 101.576 492.306 101.318C492.306 101.06 492.256 100.805 492.158 100.566C492.059 100.328 491.915 100.111 491.734 99.9287C491.552 99.7461 491.336 99.6011 491.098 99.502C490.86 99.4029 490.605 99.3516 490.347 99.3511H450.537C450.017 99.3521 449.519 99.5593 449.152 99.9274C448.785 100.295 448.579 100.794 448.579 101.314C448.579 101.835 448.785 102.333 449.152 102.702C449.519 103.07 450.017 103.277 450.537 103.278H490.34Z" fill="#E6E6E6"/>
<path d="M470.439 89.7152C477.316 89.7152 482.891 84.1369 482.891 77.2556C482.891 70.3744 477.316 64.796 470.439 64.796C463.562 64.796 457.987 70.3744 457.987 77.2556C457.987 84.1369 463.562 89.7152 470.439 89.7152Z" fill="#05A0DD"/>
<path d="M41.7019 333.282H49.0688L52.5732 304.849L41.7007 304.849L41.7019 333.282Z" fill="#FFB6B6"/>
<path d="M39.8228 330.875L54.3307 330.875C56.7828 330.875 59.1349 331.849 60.8688 333.584C62.6027 335.319 63.5768 337.672 63.577 340.126V340.426L39.8232 340.427L39.8228 330.875Z" fill="#2F2E41"/>
<path d="M66.9394 333.282H74.3064L77.8108 304.849L66.9382 304.849L66.9394 333.282Z" fill="#FFB6B6"/>
<path d="M65.0601 330.875L79.568 330.875H79.5686C82.0207 330.875 84.3722 331.849 86.1061 333.584C87.84 335.319 88.8141 337.672 88.8143 340.126V340.426L65.0605 340.427L65.0601 330.875Z" fill="#2F2E41"/>
<path d="M94.9332 209.419L76.937 320.645L64.9192 320.043L65.2172 217.915L94.9332 209.419Z" fill="#2F2E41"/>
<path d="M46.4175 175.437L90.0818 176.044L94.9334 209.42L65.2174 223.377L52.3007 317.638L40.8837 317.037L36.7144 200.317L46.4175 175.437Z" fill="#2F2E41"/>
<path d="M72.4947 89.2682C79.8632 89.2682 85.8365 83.2911 85.8365 75.918C85.8365 68.5449 79.8632 62.5679 72.4947 62.5679C65.1262 62.5679 59.1528 68.5449 59.1528 75.918C59.1528 83.2911 65.1262 89.2682 72.4947 89.2682Z" fill="#FFB9B9"/>
<path d="M78.7399 96.9735L86.4433 106.866L82.8043 182.719L54.3016 182.112L49.45 115.969L55.5142 98.9775L57.7086 95.1697L78.7399 96.9735Z" fill="#E4E4E4"/>
<path d="M91.9011 135.387L98.572 160.874L91.9011 186.36L102.817 200.924L112.52 154.805C112.52 154.805 105.243 117.182 104.637 112.934C104.03 108.687 102.817 108.08 102.817 108.08L97.9656 108.687L91.9011 135.387Z" fill="#2F2E41"/>
<path d="M43.3858 145.096L39.1405 152.985L37.9273 166.335L40.3531 181.506L31.8631 195.463L23.373 157.232L32.4694 108.08H36.1084L43.3858 145.096Z" fill="#2F2E41"/>
<path d="M60.9566 79.3759L60.6405 84.7727C60.6405 84.7727 56.7273 75.918 56.1208 66.8156C55.5144 57.7133 65.824 55.8928 71.8885 55.286C77.9529 54.6791 88.2626 58.9269 88.2626 63.7815C88.2626 68.6361 77.3465 67.4225 73.1014 66.2088C68.8563 64.9952 67.0369 75.3112 67.0369 75.3112L64.6111 75.918L60.9566 79.3759Z" fill="#2F2E41"/>
<path d="M93.7206 143.882L91.2948 166.942L96.1464 180.899L99.1786 194.249C99.1786 194.249 99.1786 206.992 87.0497 207.599C74.9207 208.206 39.7468 206.992 39.7468 206.992C39.7468 206.992 34.8952 206.385 30.65 196.676C26.4049 186.967 39.1403 177.865 39.1403 177.865L42.779 165.121L41.5661 149.344L33.0758 108.08L58.2434 95.033L64.6111 157.233L78.2561 96.8534L82.8045 100.191L102.211 108.08L93.7206 143.882Z" fill="#2F2E41"/>
<path d="M154.873 341H0V339.734H155.103L154.873 341Z" fill="#3F3D56"/>
</g>
<defs>
<clipPath id="clip0_21_209">
<rect width="553" height="341" fill="white"/>
</clipPath>
</defs>
</svg>
