<svg width="15" height="15" viewBox="0 0 15 15" fill="none" xmlns="http://www.w3.org/2000/svg">
<g clip-path="url(#clip0_183_217)">
<path d="M7.4909 -0.00915908C7.51428 -0.00909594 7.53765 -0.0090328 7.56174 -0.00896775C7.90028 -0.0074991 8.22541 0.00307538 8.55475 0.0878868C8.57827 0.0935516 8.60179 0.0992165 8.62603 0.105053C9.52421 0.324147 10.2641 0.774146 10.9278 1.40625C10.9488 1.42573 10.9699 1.44522 10.9915 1.4653C11.7642 2.20235 12.3119 3.39017 12.3388 4.45952C12.3393 4.50343 12.3397 4.54734 12.34 4.59125C12.3402 4.6151 12.3403 4.63895 12.3405 4.66352C12.3408 4.71382 12.341 4.76412 12.3411 4.81442C12.3414 4.88963 12.3423 4.96482 12.3432 5.04003C12.3511 6.27365 11.7349 7.29731 11.0698 8.29662C10.9807 8.432 10.895 8.56946 10.8088 8.70666C10.6628 8.93773 10.5102 9.16285 10.3523 9.38588C10.2082 9.58981 10.0693 9.79687 9.93133 10.005C9.80105 10.2013 9.66982 10.3969 9.53779 10.5921C9.5208 10.6172 9.50382 10.6423 9.48632 10.6682C9.46894 10.6939 9.45157 10.7195 9.43367 10.746C9.05322 11.3084 8.67674 11.8733 8.30438 12.4412C8.22542 12.5616 8.14622 12.6818 8.06672 12.8019C8.04221 12.8389 8.01778 12.876 7.99347 12.9132C7.96593 12.9553 7.93798 12.9971 7.90999 13.0388C7.89612 13.0597 7.88226 13.0806 7.86797 13.1022C7.78946 13.1918 7.70812 13.2374 7.59081 13.2549C7.56147 13.2549 7.53212 13.255 7.50189 13.255C7.45799 13.2559 7.45799 13.2559 7.4132 13.2567C7.27511 13.2341 7.19089 13.1784 7.10348 13.0683C7.05119 12.9932 7.00172 12.9166 6.95257 12.8394C6.9221 12.7926 6.89162 12.7458 6.86107 12.6991C6.83848 12.6645 6.81593 12.6299 6.79341 12.5953C6.64764 12.3717 6.49771 12.1508 6.34809 11.9297C6.29653 11.8535 6.24501 11.7772 6.19351 11.701C5.99444 11.4062 5.79515 11.1116 5.59582 10.8171C5.4993 10.6744 5.40282 10.5318 5.30634 10.3891C5.24128 10.2929 5.17619 10.1967 5.1111 10.1005C3.6437 7.93168 3.6437 7.93168 3.22623 7.15118C3.20484 7.11118 3.18327 7.07128 3.16152 7.03148C3.03532 6.79978 2.93287 6.56503 2.84735 6.3153C2.8392 6.29195 2.83106 6.2686 2.82266 6.24454C2.68895 5.83511 2.65142 5.42658 2.65462 4.99853C2.65509 4.92384 2.65462 4.84921 2.65406 4.77453C2.65347 4.338 2.71006 3.91647 2.83453 3.49731C2.84578 3.45887 2.84578 3.45887 2.85726 3.41965C2.93028 3.17833 3.02386 2.95072 3.13482 2.72461C3.1435 2.70659 3.15217 2.68857 3.1611 2.67C3.39249 2.19411 3.70355 1.78351 4.07232 1.40625C4.09102 1.38574 4.10971 1.36523 4.12897 1.3441C4.976 0.436708 6.27411 -0.0150685 7.4909 -0.00915908ZM6.9861 2.23148C6.95024 2.2901 6.91466 2.34889 6.87933 2.40783C6.85997 2.4388 6.84061 2.46977 6.82066 2.50167C6.73038 2.64669 6.64474 2.79096 6.57057 2.9449C6.43838 3.20765 6.32363 3.35433 6.03825 3.45088C5.90598 3.48874 5.77309 3.52119 5.63879 3.55098C5.47361 3.58874 5.31159 3.63665 5.14898 3.68408C5.11989 3.692 5.09081 3.69992 5.06084 3.70808C4.87695 3.75961 4.73265 3.81218 4.60333 3.95874C4.55314 4.08699 4.54568 4.20035 4.57037 4.33593C4.61477 4.4269 4.67864 4.49549 4.74615 4.57031C4.78329 4.61452 4.82042 4.65874 4.85744 4.70305C4.92719 4.78625 4.99787 4.86865 5.06842 4.95117C5.12465 5.01702 5.18078 5.08295 5.23687 5.14892C5.2615 5.17777 5.28612 5.20663 5.31149 5.23635C5.32389 5.25158 5.33629 5.26681 5.34907 5.28249C5.37903 5.31816 5.41054 5.35254 5.44294 5.386C5.58473 5.5434 5.61805 5.65572 5.61152 5.86598C5.60946 5.89923 5.60739 5.93247 5.60526 5.96672C5.60404 6.00162 5.60282 6.03653 5.60157 6.07249C5.59759 6.1834 5.59221 6.29418 5.58661 6.40503C5.58148 6.51607 5.57667 6.6271 5.57259 6.73819C5.57001 6.80711 5.56681 6.87602 5.56291 6.94488C5.55511 7.13968 5.56486 7.25478 5.68365 7.41211C5.8041 7.52135 5.89227 7.54156 6.04816 7.53851C6.18882 7.52121 6.31213 7.4624 6.44079 7.40547C6.50148 7.37982 6.56217 7.35419 6.62287 7.32856C6.71747 7.28797 6.81196 7.24714 6.90635 7.20605C6.99811 7.16632 7.0902 7.12747 7.18237 7.0887C7.2103 7.07622 7.23823 7.06374 7.26701 7.05088C7.45484 6.97244 7.57246 6.96216 7.76373 7.03125C7.78589 7.03875 7.80804 7.04626 7.83087 7.054C7.90212 7.07908 7.97252 7.10587 8.04297 7.1331C8.09564 7.15295 8.14832 7.17279 8.20101 7.19261C8.28284 7.22361 8.36462 7.25475 8.4463 7.28616C8.52595 7.31671 8.60578 7.3467 8.68567 7.37663C8.70975 7.38606 8.73384 7.39549 8.75865 7.4052C8.91598 7.46364 9.06044 7.49351 9.22857 7.4707C9.35668 7.41027 9.43619 7.33503 9.50183 7.20795C9.56593 7.01442 9.51818 6.76977 9.50232 6.56925C9.50036 6.54335 9.49841 6.51745 9.4964 6.49077C9.49024 6.40908 9.48393 6.3274 9.4776 6.24572C9.47128 6.16352 9.46501 6.08132 9.45879 5.99911C9.45494 5.94824 9.45103 5.89737 9.44705 5.84651C9.42099 5.50454 9.42099 5.50454 9.50026 5.41076C9.51461 5.39337 9.52897 5.37597 9.54376 5.35805C9.55939 5.33979 9.57502 5.32154 9.59112 5.30273C9.62366 5.26347 9.65616 5.22417 9.68863 5.18486C9.70496 5.16527 9.72129 5.14567 9.73812 5.12549C9.83068 5.01319 9.9181 4.897 10.0061 4.78111C10.0559 4.71573 10.1071 4.65181 10.1594 4.58839C10.3659 4.3458 10.3659 4.3458 10.4297 4.04296C10.386 3.87877 10.3052 3.78435 10.1661 3.6914C10.0929 3.6631 10.0273 3.64201 9.95184 3.62365C9.91955 3.61523 9.91955 3.61523 9.88661 3.60664C9.80413 3.58543 9.72145 3.56516 9.63873 3.54492C9.59934 3.53516 9.55996 3.5254 9.52058 3.51562C9.30409 3.46195 9.08746 3.40885 8.8706 3.35666C8.83376 3.34778 8.79692 3.33889 8.75897 3.32973C8.67725 3.30844 8.67725 3.30844 8.61334 3.31054C8.6065 3.29057 8.59967 3.27059 8.59263 3.25C8.54613 3.14452 8.48367 3.05446 8.41742 2.96081C8.38851 2.91952 8.35963 2.8782 8.33078 2.83687C8.31513 2.81446 8.29947 2.79205 8.28333 2.76897C8.22763 2.68828 8.17305 2.60691 8.11861 2.52536C8.09924 2.49649 8.07988 2.46762 8.05992 2.43787C8.02173 2.38086 7.98369 2.32374 7.94584 2.26651C7.84418 2.11551 7.7548 1.98772 7.58795 1.90429C7.52353 1.894 7.52353 1.894 7.45062 1.89148C7.41419 1.88881 7.41419 1.88881 7.37703 1.8861C7.19013 1.92754 7.08601 2.07763 6.9861 2.23148Z" fill="#C76E31"/>
</g>
<defs>
<clipPath id="clip0_183_217">
<rect width="15" height="15" fill="white"/>
</clipPath>
</defs>
</svg>
