<svg width="512" height="486" viewBox="0 0 512 486" fill="none" xmlns="http://www.w3.org/2000/svg">
<path d="M445 36C462.16 36 479.32 36 497 36C497 168.66 497 301.32 497 438C479.84 438 462.68 438 445 438C445 305.34 445 172.68 445 36Z" fill="url(#paint0_linear_50_115)"/>
<path d="M0 448C168.96 448 337.92 448 512 448C512 460.54 512 473.08 512 486C343.04 486 174.08 486 0 486C0 473.46 0 460.92 0 448Z" fill="url(#paint1_linear_50_115)"/>
<path d="M405 0C406.666 7.75095 407.861 15.5315 408.945 23.3828C409.12 24.6371 409.295 25.8913 409.475 27.1836C409.841 29.8206 410.206 32.4577 410.569 35.0952C411.032 38.4557 411.502 41.8151 411.974 45.1743C412.428 48.4098 412.874 51.6464 413.32 54.8828C413.489 56.0788 413.658 57.2748 413.832 58.5071C416.148 75.5102 416.148 75.5102 412.344 81.4609C409.02 85.2673 404.012 87.6376 399.02 88.2383C392.425 88.46 387.343 87.1025 382.426 82.5391C377.631 77.1256 377.885 72.8797 378 66C377.34 66 376.68 66 376 66C375.642 66.8063 375.642 66.8063 375.277 67.6289C370.041 77.3483 361.631 85.9559 354.447 94.3101C352.94 96.0701 351.446 97.8406 349.953 99.6133C344.926 105.565 339.875 111.357 334.23 116.742C332.412 118.583 330.753 120.444 329.078 122.41C324.119 128.124 318.732 133.417 313.376 138.755C311.566 140.559 309.762 142.368 307.959 144.178C302.714 149.425 297.475 154.609 291.823 159.423C288.328 162.447 285.029 165.684 281.688 168.875C276.158 174.122 270.575 179.122 264.606 183.863C261.633 186.301 258.812 188.882 256 191.5C251.421 195.755 246.707 199.773 241.836 203.695C238.744 206.208 235.716 208.787 232.688 211.375C226.507 216.637 220.156 221.658 213.749 226.638C211.477 228.408 209.214 230.19 206.952 231.972C204.61 233.817 202.264 235.657 199.918 237.496C198.59 238.537 197.264 239.579 195.938 240.621C185.946 248.471 175.836 256.129 165.582 263.633C162.029 266.235 158.507 268.874 154.997 271.534C147.643 277.105 140.15 282.446 132.574 287.71C126.896 291.658 121.277 295.678 115.688 299.75C108.622 304.882 101.441 309.791 94.1416 314.583C91.6436 316.236 89.1615 317.912 86.6797 319.59C85.2862 320.529 85.2862 320.529 83.8645 321.487C82.0431 322.714 80.2238 323.945 78.407 325.179C63.1898 335.4 63.1898 335.4 55 335C49.53 333.88 44.9993 331.999 41 328C38.2745 323.502 38.3893 319.114 39 314C43.095 304.25 56.9012 297.991 65.3968 292.39C76.4085 285.125 87.2937 277.709 98 270C99.0628 269.238 99.0628 269.238 100.147 268.46C116.658 256.62 132.996 244.548 149.229 232.33C150.872 231.096 152.52 229.868 154.168 228.641C161.283 223.34 168.271 217.895 175.231 212.394C176.95 211.039 178.675 209.692 180.402 208.348C189.096 201.572 197.613 194.595 206.102 187.566C208.597 185.507 211.111 183.473 213.625 181.438C223.259 173.563 232.598 165.324 241.816 156.969C243.817 155.165 245.84 153.39 247.875 151.625C252.206 147.85 256.436 143.968 260.659 140.074C262.74 138.157 264.827 136.248 266.92 134.344C274.963 127.01 282.73 119.425 290.414 111.717C292.391 109.734 294.373 107.758 296.355 105.781C302.452 99.6882 308.424 93.5784 314 87C315.579 85.2873 317.162 83.5785 318.75 81.875C326.772 73.0831 333.925 63.5607 341 54C340.371 54.0954 339.742 54.1908 339.094 54.2891C330.437 55.4103 324.574 54.5534 317.445 49.4141C314.353 46.3886 313.691 43.3572 313.625 39.125C313.745 34.3084 314.641 31.6172 318 28C324.059 23.9807 330.538 22.0156 337.449 19.8828C338.657 19.5032 339.865 19.1235 341.109 18.7324C344.317 17.726 347.527 16.7268 350.738 15.731C353.935 14.7373 357.128 13.7332 360.322 12.7305C367.542 10.4678 374.769 8.22792 382 6C383.05 5.67592 384.1 5.35184 385.181 5.01794C388.001 4.14983 390.822 3.28816 393.645 2.42969C394.461 2.17857 395.277 1.92746 396.117 1.66873C399.178 0.745907 401.785 0 405 0Z" fill="url(#paint2_linear_50_115)"/>
<path d="M354 125C370.83 125 387.66 125 405 125C405 228.29 405 331.58 405 438C388.17 438 371.34 438 354 438C354 334.71 354 231.42 354 125Z" fill="url(#paint3_linear_50_115)"/>
<path d="M265 218C282.16 218 299.32 218 317 218C317 290.6 317 363.2 317 438C299.84 438 282.68 438 265 438C265 365.4 265 292.8 265 218Z" fill="url(#paint4_linear_50_115)"/>
<path d="M174 314C191.16 314 208.32 314 226 314C226 354.92 226 395.84 226 438C208.84 438 191.68 438 174 438C174 397.08 174 356.16 174 314Z" fill="url(#paint5_linear_50_115)"/>
<path d="M77 362C94.16 362 111.32 362 129 362C129 387.08 129 412.16 129 438C111.84 438 94.68 438 77 438C77 412.92 77 387.84 77 362Z" fill="url(#paint6_linear_50_115)"/>
<defs>
<linearGradient id="paint0_linear_50_115" x1="495.477" y1="36" x2="400.269" y2="48.0966" gradientUnits="userSpaceOnUse">
<stop stop-color="#05A0DD"/>
<stop offset="1" stop-color="#062146"/>
</linearGradient>
<linearGradient id="paint1_linear_50_115" x1="497" y1="448" x2="491.592" y2="519.568" gradientUnits="userSpaceOnUse">
<stop stop-color="#05A0DD"/>
<stop offset="1" stop-color="#062146"/>
</linearGradient>
<linearGradient id="paint2_linear_50_115" x1="404.379" y1="1.25655e-05" x2="88.5566" y2="348.77" gradientUnits="userSpaceOnUse">
<stop stop-color="#05A0DD"/>
<stop offset="1" stop-color="#062146"/>
</linearGradient>
<linearGradient id="paint3_linear_50_115" x1="403.506" y1="125" x2="310.992" y2="139.806" gradientUnits="userSpaceOnUse">
<stop stop-color="#05A0DD"/>
<stop offset="1" stop-color="#062146"/>
</linearGradient>
<linearGradient id="paint4_linear_50_115" x1="315.477" y1="218" x2="223.68" y2="239.312" gradientUnits="userSpaceOnUse">
<stop stop-color="#05A0DD"/>
<stop offset="1" stop-color="#062146"/>
</linearGradient>
<linearGradient id="paint5_linear_50_115" x1="224.477" y1="314" x2="141.766" y2="348.069" gradientUnits="userSpaceOnUse">
<stop stop-color="#05A0DD"/>
<stop offset="1" stop-color="#062146"/>
</linearGradient>
<linearGradient id="paint6_linear_50_115" x1="127.477" y1="362" x2="60.8328" y2="406.788" gradientUnits="userSpaceOnUse">
<stop stop-color="#05A0DD"/>
<stop offset="1" stop-color="#062146"/>
</linearGradient>
</defs>
</svg>
