<svg width="26" height="25" viewBox="0 0 26 25" fill="none" xmlns="http://www.w3.org/2000/svg">
<path d="M3.54295 2.62105C3.41179 2.74082 3.28285 2.86278 3.15442 2.98541C3.1104 3.02716 3.06638 3.06891 3.02102 3.11192C1.54478 4.54317 0.661652 6.42139 0.210619 8.39914C0.197206 8.45744 0.197206 8.45744 0.183523 8.51692C-0.0979137 9.81693 -0.0428181 11.3544 0.259682 12.6423C0.271524 12.6941 0.283367 12.7459 0.295568 12.7992C0.470404 13.5455 0.709066 14.245 1.04469 14.9346C1.06412 14.9747 1.08354 15.0147 1.10356 15.0559C1.48388 15.8285 1.94993 16.5276 2.51659 17.1781C2.55119 17.2179 2.58578 17.2577 2.62143 17.2987C3.07085 17.8049 3.54506 18.2812 4.08662 18.6901C4.1299 18.7229 4.1299 18.7229 4.17406 18.7563C6.38987 20.4176 9.20463 21.1303 11.953 20.7585C13.1225 20.5847 14.3886 20.2782 15.4055 19.6524C15.5512 19.5582 15.5512 19.5582 15.663 19.5755C15.794 19.6292 15.8669 19.702 15.9665 19.8021C16.0065 19.842 16.0466 19.8818 16.0878 19.9229C16.1313 19.967 16.1748 20.011 16.2196 20.0564C16.2661 20.1031 16.3127 20.1497 16.3594 20.1963C16.4598 20.2967 16.5599 20.3973 16.6599 20.4981C16.8183 20.6578 16.9773 20.8169 17.1364 20.976C17.5318 21.3713 17.9264 21.7673 18.3207 22.1635C18.6268 22.4711 18.9331 22.7784 19.2401 23.085C19.398 23.2427 19.5554 23.4009 19.7124 23.5594C19.8107 23.6585 19.9095 23.7571 20.0084 23.8557C20.0752 23.9225 20.1416 23.9899 20.2079 24.0573C20.7971 24.6421 21.4858 24.9718 22.3198 25C23.1561 24.9855 23.8655 24.683 24.4611 24.0994C25.0277 23.4992 25.2204 22.8102 25.2095 22.0066C25.1957 21.641 25.1372 21.3189 24.9876 20.9824C24.9606 20.9172 24.9606 20.9172 24.9331 20.8507C24.7988 20.5683 24.6152 20.3498 24.4012 20.1254C24.3715 20.094 24.3417 20.0626 24.3111 20.0303C23.8847 19.5831 23.4443 19.1496 23.0055 18.7147C22.9108 18.6206 22.816 18.5265 22.7213 18.4324C22.4996 18.2121 22.2777 17.9919 22.0557 17.7718C21.8025 17.5206 21.5495 17.2693 21.2964 17.018C20.777 16.5022 20.2575 15.9866 19.7378 15.4711C19.8006 15.2772 19.8726 15.0976 19.9642 14.9151C20.4268 13.9885 20.6994 13.0268 20.8663 12.0083C20.8727 11.9702 20.8791 11.9321 20.8858 11.8929C21.2108 9.89082 20.8642 7.65782 19.9307 5.854C19.8814 5.7585 19.8338 5.66226 19.7861 5.56596C18.8399 3.69055 17.2389 2.14084 15.3712 1.18084C15.3362 1.16269 15.3012 1.14453 15.2651 1.12583C11.492 -0.808072 6.69399 -0.212726 3.54295 2.62105ZM15.6521 4.56708C15.7416 4.65533 15.827 4.7453 15.9109 4.83876C16.1562 5.08262 16.1562 5.08262 16.2376 5.15502C17.3876 6.216 18.1057 7.93995 18.2659 9.47213C18.274 9.54276 18.274 9.54276 18.2822 9.61482C18.4925 11.7192 17.8425 13.7544 16.5147 15.3936C15.192 16.9919 13.2742 17.9657 11.21 18.1688C9.18719 18.3414 7.14754 17.7513 5.58094 16.454C4.19553 15.2476 3.29963 13.8381 2.86003 12.0571C2.85117 12.0218 2.84229 11.9865 2.83316 11.9502C2.5749 10.8743 2.63943 9.65949 2.9091 8.59423C2.92409 8.53314 2.92409 8.53314 2.93938 8.47082C3.15473 7.61682 3.51733 6.77384 4.03755 6.05807C4.0731 6.00897 4.10864 5.95986 4.14526 5.90927C5.41017 4.20372 7.21573 3.09336 9.31799 2.72631C11.5831 2.43786 13.9282 3.03993 15.6521 4.56708Z" fill="#C76E31"/>
</svg>
