<svg width="473" height="473" viewBox="0 0 473 473" fill="none" xmlns="http://www.w3.org/2000/svg">
<path d="M219.181 0.0245361C220.577 0.0218337 221.974 0.0179452 223.371 0.0129394C226.282 0.00707928 229.193 0.0154931 232.105 0.0343018C235.81 0.0570902 239.514 0.0439481 243.219 0.0200119C246.098 0.00545842 248.977 0.0102031 251.857 0.0205231C253.878 0.0244347 255.9 0.0124291 257.922 0C270.284 0.12487 279.396 3.51155 288.243 12.2159C296.367 21.1322 298.465 30.8719 298.685 42.7511C298.707 43.6751 298.729 44.5991 298.752 45.5511C298.787 47.3944 298.796 49.2384 298.775 51.0819C298.878 56.9062 299.957 60.0245 303.977 64.285C306.711 66.4857 309.479 66.7571 312.868 66.8683C313.607 66.9057 314.346 66.9431 315.107 66.9816C321.195 65.9232 325.265 60.9881 329.306 56.6808C337.357 48.3728 346.079 42.4084 357.977 42.1759C359.13 42.1783 359.13 42.1783 360.306 42.1808C361.103 42.1824 361.9 42.184 362.721 42.1857C376.518 42.4723 385.103 49.7943 394.497 59.1261C395.342 59.9624 396.188 60.7986 397.059 61.6602C398.841 63.4277 400.62 65.198 402.396 66.9708C405.1 69.6631 407.823 72.3361 410.546 75.0089C412.281 76.7343 414.015 78.4608 415.747 80.1886C416.556 80.9775 417.364 81.7664 418.197 82.5793C426.565 91.0146 431.459 100.478 431.587 112.501C430.806 127.767 423.32 137.198 412.694 147.344C408.595 151.304 406.283 154.103 406.181 159.868C406.321 164.878 407.464 167.592 410.556 171.556C417.509 175.53 424.576 174.99 432.4 174.995C444.849 175.224 455.074 179.388 463.814 188.36C469.688 195.763 472.652 203.924 472.717 213.289C472.727 214.417 472.736 215.546 472.746 216.709C472.752 218.526 472.752 218.526 472.759 220.38C472.765 221.637 472.77 222.893 472.776 224.188C472.786 226.847 472.793 229.505 472.796 232.164C472.801 235.545 472.825 238.926 472.854 242.307C472.877 245.56 472.879 248.814 472.884 252.068C472.896 253.269 472.909 254.47 472.921 255.708C472.89 267.684 470.099 278.227 461.962 287.341C452.718 295.866 441.802 298.334 429.556 298.751C428.671 298.783 427.786 298.815 426.874 298.848C425.111 298.902 423.349 298.937 421.586 298.951C416.12 299.095 412.859 299.86 408.556 303.556C405.996 307.849 404.899 311.501 405.79 316.517C407.611 321.366 411.709 324.777 415.364 328.298C424.658 337.281 430.665 347.446 430.993 360.618C430.457 375.973 422.96 385.618 412.384 396.196C411.621 396.967 410.858 397.738 410.072 398.532C408.469 400.146 406.862 401.755 405.251 403.361C402.812 405.8 400.394 408.259 397.978 410.72C396.406 412.297 394.833 413.872 393.259 415.446C392.55 416.172 391.841 416.897 391.111 417.644C382.166 426.469 372.198 431.468 359.548 431.583C342.796 430.748 332.763 421.148 321.552 409.525C318.629 406.641 316.817 406.359 312.806 406.243C307.94 406.299 305.253 407.22 301.556 410.556C297.434 415.417 298.161 421.019 298.118 427.056C297.757 441.226 295.884 451.998 285.708 462.454C278.571 469.18 270.543 472.652 260.753 472.717C259.584 472.727 258.415 472.736 257.211 472.746C255.321 472.752 255.321 472.752 253.392 472.759C252.089 472.765 250.787 472.77 249.445 472.776C246.686 472.787 243.927 472.793 241.169 472.796C237.659 472.801 234.149 472.825 230.639 472.854C227.265 472.877 223.891 472.879 220.517 472.884C219.268 472.896 218.02 472.909 216.734 472.921C204.74 472.891 195.725 470.492 186.556 462.556C175.22 450.874 174.428 437.514 174.126 422.069C173.955 417.132 173.808 413.536 170.556 409.556C167.032 406.889 163.975 405.729 159.556 405.556C153.081 407.428 149.595 409.934 145.118 414.868C136.311 424.085 127.905 430.405 114.777 430.958C100.695 431.194 91.4103 426.271 81.4222 416.713C79.9677 415.285 78.5189 413.85 77.0753 412.411C76.2994 411.642 75.5236 410.873 74.7242 410.08C73.0955 408.462 71.4695 406.84 69.8461 405.217C67.3753 402.75 64.8889 400.3 62.4015 397.851C60.8126 396.268 59.2247 394.684 57.6378 393.099C56.9013 392.377 56.1647 391.654 55.4058 390.91C46.8985 382.328 41.8165 372.473 41.4581 360.216C42.1659 345.422 49.6658 336.223 59.5988 325.946C60.2059 325.31 60.8131 324.673 61.4386 324.017C61.9892 323.447 62.5398 322.878 63.1071 322.292C66.1732 318.618 67.0177 315.485 66.8644 310.65C66.3403 307.094 65.1224 304.097 62.5558 301.556C55.4732 297.454 48.0483 298.121 40.0675 298.116C28.3745 297.91 19.0872 294.704 10.5558 286.556C1.58076 276.92 -0.0543001 266.753 0.0245361 253.931C0.0218338 252.534 0.0179452 251.137 0.0129395 249.741C0.00707928 246.829 0.0154931 243.918 0.0343018 241.007C0.0570902 237.302 0.0439558 233.598 0.0200195 229.893C0.00546605 227.013 0.0102031 224.134 0.0205231 221.255C0.0244347 219.233 0.0124291 217.212 0 215.19C0.12487 202.828 3.51155 193.716 12.2159 184.868C23.4255 174.655 36.7362 174.312 51.2577 174.073C56.1428 173.933 59.609 173.763 63.5558 170.556C66.2223 167.032 67.3825 163.975 67.5558 159.556C65.6887 153.107 63.2364 149.678 58.3058 145.243C49.7864 137.153 43.2902 128.857 42.2198 116.759C42.0597 100.547 47.177 90.8428 58.4422 79.3145C59.1642 78.5872 59.8861 77.8599 60.63 77.1105C61.3945 76.337 62.159 75.5635 62.9466 74.7665C64.5567 73.142 66.1696 71.5202 67.785 69.901C70.2313 67.4429 72.6582 64.9666 75.0851 62.4894C76.6614 60.9036 78.2388 59.3189 79.8175 57.7355C80.5294 57.0041 81.2412 56.2727 81.9747 55.5191C90.4782 47.0893 100.38 41.5317 112.532 41.5636C128.138 42.4723 136.515 49.135 146.988 60.0612C150.971 64.1731 153.91 66.825 159.868 66.9308C164.878 66.7905 167.592 65.6472 171.556 62.5558C175.652 55.4669 174.99 48.0523 174.995 40.0675C175.201 28.3745 178.408 19.0872 186.556 10.5558C196.192 1.58076 206.358 -0.0543001 219.181 0.0245361ZM182.556 144.556C181.57 145.1 180.584 145.644 179.568 146.204C155.703 160.364 139.562 184.849 132.56 211.321C131.045 218.019 129.934 224.697 129.556 231.556C129.515 232.221 129.473 232.886 129.431 233.571C128.524 263.26 140.569 289.194 159.763 311.071C178.801 331.275 206.5 342.145 233.845 343.685C254.248 344.196 272.921 338.408 290.556 328.556C291.542 328.012 292.528 327.468 293.544 326.907C317.426 312.737 333.487 288.285 340.552 261.825C342.158 254.777 343.194 247.775 343.556 240.556C343.597 239.857 343.638 239.158 343.681 238.439C344.284 218.469 338.184 199.79 328.556 182.556C328.012 181.57 327.468 180.584 326.907 179.568C312.737 155.686 288.285 139.625 261.825 132.56C254.777 130.953 247.775 129.918 240.556 129.556C239.857 129.515 239.158 129.473 238.439 129.431C218.469 128.828 199.79 134.928 182.556 144.556Z" fill="black"/>
</svg>
