<svg width="1679" height="716" viewBox="0 0 1679 716" fill="none" xmlns="http://www.w3.org/2000/svg">
<g filter="url(#filter0_bd_98_42)">
<mask id="path-1-inside-1_98_42" fill="white">
<path fill-rule="evenodd" clip-rule="evenodd" d="M407.5 10H72C37.7583 10 10 37.7583 10 72V644C10 678.242 37.7584 706 72 706H1607C1641.24 706 1669 678.242 1669 644V72C1669 37.7583 1641.24 10 1607 10H1169.5C1133.1 13.2 1121.33 45.3333 1120 61V54C1120 88.2417 1092.24 116 1058 116H519C484.758 116 457 88.2417 457 54V61C455.667 45.3333 443.9 13.2 407.5 10Z"/>
</mask>
<path fill-rule="evenodd" clip-rule="evenodd" d="M407.5 10H72C37.7583 10 10 37.7583 10 72V644C10 678.242 37.7584 706 72 706H1607C1641.24 706 1669 678.242 1669 644V72C1669 37.7583 1641.24 10 1607 10H1169.5C1133.1 13.2 1121.33 45.3333 1120 61V54C1120 88.2417 1092.24 116 1058 116H519C484.758 116 457 88.2417 457 54V61C455.667 45.3333 443.9 13.2 407.5 10Z" fill="white" fill-opacity="0.13" shape-rendering="crispEdges"/>
<path d="M407.5 10L407.588 9.00384L407.544 9H407.5V10ZM1169.5 10V9H1169.46L1169.41 9.00384L1169.5 10ZM1120 61H1119L1121 61.0848L1120 61ZM457 61L456.004 61.0848L458 61H457ZM72 11H407.5V9H72V11ZM11 72C11 38.3106 38.3106 11 72 11V9C37.2061 9 9 37.2061 9 72H11ZM11 644V72H9V644H11ZM72 705C38.3107 705 11 677.689 11 644H9C9 678.794 37.2061 707 72 707V705ZM1607 705H72V707H1607V705ZM1668 644C1668 677.689 1640.69 705 1607 705V707C1641.79 707 1670 678.794 1670 644H1668ZM1668 72V644H1670V72H1668ZM1607 11C1640.69 11 1668 38.3106 1668 72H1670C1670 37.2061 1641.79 9 1607 9V11ZM1169.5 11H1607V9H1169.5V11ZM1169.41 9.00384C1150.89 10.632 1138.6 19.6383 1130.79 30.2317C1123.01 40.7941 1119.68 52.9274 1119 60.9152L1121 61.0848C1121.65 53.406 1124.87 41.6393 1132.41 31.4183C1139.91 21.2284 1151.71 12.568 1169.59 10.9962L1169.41 9.00384ZM1121 61V54H1119V61H1121ZM1058 117C1092.79 117 1121 88.7939 1121 54H1119C1119 87.6894 1091.69 115 1058 115V117ZM519 117H1058V115H519V117ZM456 54C456 88.7939 484.206 117 519 117V115C485.311 115 458 87.6894 458 54H456ZM458 61V54H456V61H458ZM407.412 10.9962C425.292 12.568 437.085 21.2284 444.595 31.4183C452.128 41.6393 455.35 53.406 456.004 61.0848L457.996 60.9152C457.317 52.9274 453.989 40.7941 446.205 30.2317C438.398 19.6383 426.108 10.632 407.588 9.00384L407.412 10.9962Z" fill="white" fill-opacity="0.01" mask="url(#path-1-inside-1_98_42)"/>
</g>
<defs>
<filter id="filter0_bd_98_42" x="-50" y="-50" width="1779" height="816" filterUnits="userSpaceOnUse" color-interpolation-filters="sRGB">
<feFlood flood-opacity="0" result="BackgroundImageFix"/>
<feGaussianBlur in="BackgroundImageFix" stdDeviation="30"/>
<feComposite in2="SourceAlpha" operator="in" result="effect1_backgroundBlur_98_42"/>
<feColorMatrix in="SourceAlpha" type="matrix" values="0 0 0 0 0 0 0 0 0 0 0 0 0 0 0 0 0 0 127 0" result="hardAlpha"/>
<feOffset/>
<feGaussianBlur stdDeviation="5"/>
<feComposite in2="hardAlpha" operator="out"/>
<feColorMatrix type="matrix" values="0 0 0 0 0.494118 0 0 0 0 0.505882 0 0 0 0 0.517647 0 0 0 0.25 0"/>
<feBlend mode="normal" in2="effect1_backgroundBlur_98_42" result="effect2_dropShadow_98_42"/>
<feBlend mode="normal" in="SourceGraphic" in2="effect2_dropShadow_98_42" result="shape"/>
</filter>
</defs>
</svg>
