<svg width="514" height="513" viewBox="0 0 514 513" fill="none" xmlns="http://www.w3.org/2000/svg">
<path d="M390.101 0.0559082C391.287 0.0374585 392.472 0.0190088 393.693 0C403.897 0.0729899 411.068 2.51822 418.476 9.55591C420.031 12.6654 419.763 15.1186 419.476 18.5559C416.089 24.8334 410.761 29.528 405.726 34.4934C404.423 35.7957 404.423 35.7957 403.093 37.1243C398.604 41.5831 394.056 45.9144 389.244 50.0244C383.588 54.9235 378.68 60.328 374.039 66.1809C373.601 66.7193 373.164 67.2576 372.713 67.8123C369.93 71.4135 368.843 74.0465 368.476 78.5559C369.12 81.6488 369.12 81.6488 370.32 84.7747C370.739 85.9484 371.158 87.1222 371.589 88.3315C372.047 89.5606 372.505 90.7896 372.976 92.0559C373.439 93.3227 373.902 94.5896 374.365 95.8564C379.5 110.83 379.5 110.83 388.476 123.556C388.476 124.216 388.476 124.876 388.476 125.556C389.06 125.836 389.645 126.117 390.246 126.406C392.325 127.478 394.208 128.663 396.152 129.958C400.46 132.674 404.872 134.44 409.664 136.118C410.492 136.414 411.319 136.71 412.172 137.015C414.602 137.876 417.038 138.72 419.476 139.556C420.145 139.788 420.815 140.019 421.504 140.258C430.316 143.497 430.316 143.497 439.476 143.556C446.782 139.647 452.418 133.986 458.148 128.107C459.034 127.212 459.919 126.318 460.831 125.396C463.162 123.04 465.487 120.678 467.809 118.313C471.088 114.972 474.372 111.637 477.664 108.308C479.411 106.542 481.153 104.77 482.889 102.993C483.681 102.192 484.472 101.39 485.288 100.565C485.978 99.8613 486.668 99.1577 487.379 98.4328C490.739 95.4257 493.426 93.7087 497.914 93.0559C502.293 93.6705 504.716 95.2209 507.476 98.5559C516.284 112.973 514.079 134.188 510.31 150.088C509.743 152.26 509.128 154.408 508.476 156.556C508.163 157.59 508.163 157.59 507.843 158.645C498.086 189.525 475.835 214.799 447.421 229.907C425.916 240.875 402.323 245.599 378.414 242.181C377.472 242.055 376.53 241.928 375.56 241.798C371.322 241.208 367.189 240.541 363.05 239.447C358.443 238.299 356.082 238.516 351.476 239.556C347.425 241.995 344.085 244.699 340.755 248.042C339.855 248.941 338.954 249.84 338.026 250.766C337.042 251.759 336.057 252.753 335.072 253.747C334.015 254.806 332.958 255.864 331.9 256.922C329 259.825 326.106 262.735 323.214 265.645C320.09 268.785 316.961 271.919 313.833 275.054C308.413 280.487 302.997 285.922 297.583 291.36C289.745 299.232 281.9 307.096 274.052 314.959C261.307 327.728 248.565 340.5 235.826 353.275C235.063 354.04 234.301 354.804 233.516 355.592C222.703 366.436 211.893 377.283 201.084 388.131C200.323 388.895 199.563 389.659 198.779 390.445C198.019 391.208 197.259 391.971 196.476 392.756C183.794 405.484 171.105 418.205 158.409 430.918C150.582 438.756 142.763 446.601 134.952 454.453C129.595 459.837 124.231 465.214 118.862 470.585C115.767 473.682 112.675 476.781 109.592 479.89C106.765 482.74 103.929 485.581 101.085 488.415C100.062 489.437 99.0434 490.463 98.0282 491.492C85.2935 504.394 71.7982 512.739 53.4762 512.868C38.2692 512.88 26.44 508.33 15.2262 497.806C4.36026 486.205 -0.180777 473.304 0.00549252 457.583C1.08865 428.868 26.9116 409.977 45.7917 391.183C48.8221 388.165 51.8495 385.144 54.8772 382.124C60.1107 376.903 65.3458 371.685 70.5818 366.467C78.8589 358.218 87.1301 349.963 95.4003 341.708C98.2356 338.878 101.071 336.047 103.906 333.217C104.615 332.51 105.323 331.803 106.053 331.075C114.092 323.05 122.133 315.026 130.174 307.003C130.908 306.27 131.642 305.538 132.398 304.783C144.322 292.886 156.251 280.994 168.182 269.104C180.449 256.879 192.709 244.646 204.962 232.406C212.512 224.865 220.068 217.329 227.632 209.802C232.808 204.65 237.977 199.491 243.14 194.327C246.119 191.347 249.1 188.372 252.091 185.404C254.829 182.688 257.557 179.963 260.278 177.23C261.264 176.243 262.252 175.26 263.245 174.281C271.382 166.584 271.382 166.584 274.605 156.213C274.435 155.202 274.435 155.202 274.261 154.169C274.143 153.407 274.024 152.645 273.902 151.859C273.762 151.099 273.621 150.339 273.476 149.556C273.352 148.838 273.228 148.121 273.101 147.382C272.846 145.929 272.586 144.477 272.32 143.026C266.876 112.47 272.458 79.7839 290.148 53.8945C294.798 47.3691 299.943 41.3519 305.476 35.5559C306.001 34.9681 306.525 34.3803 307.066 33.7747C317.099 22.9503 330.127 15.4895 343.476 9.55591C345.075 8.83274 345.075 8.83274 346.707 8.09497C360.818 2.19299 374.877 0.19594 390.101 0.0559082Z" fill="url(#paint0_linear_50_102)"/>
<path d="M89.4761 15.5559C91.2421 16.6495 91.2421 16.6495 92.9213 18.2152C93.6113 18.8562 94.3013 19.4971 95.0122 20.1575C100.587 25.5844 106.109 31.0602 111.603 36.5694C113.023 37.9893 114.443 39.409 115.863 40.8286C119.699 44.6646 123.532 48.5038 127.365 52.3435C131.378 56.3625 135.393 60.3786 139.409 64.3951C147.003 71.9931 154.596 79.5937 162.187 87.1952C170.833 95.8525 179.483 104.507 188.132 113.161C205.916 130.956 223.697 148.755 241.476 166.556C240.526 167.672 239.574 168.787 238.622 169.902C237.828 170.833 237.828 170.833 237.017 171.784C235.057 174.038 232.994 176.165 230.883 178.279C230.028 179.136 229.174 179.994 228.293 180.878C226.933 182.234 226.933 182.234 225.546 183.618C224.587 184.578 223.629 185.538 222.67 186.498C220.67 188.499 218.668 190.5 216.664 192.498C214.117 195.04 211.574 197.586 209.033 200.133C207.056 202.113 205.077 204.091 203.097 206.068C201.709 207.456 200.323 208.845 198.937 210.234C194.477 214.678 189.956 218.973 185.18 223.076C183.021 224.951 180.989 226.929 178.976 228.958C178.235 229.703 177.494 230.447 176.73 231.214C175.986 231.966 175.242 232.718 174.476 233.493C173.314 234.662 173.314 234.662 172.128 235.855C170.242 237.753 168.358 239.654 166.476 241.556C159.744 236.899 154.069 231.426 148.316 225.626C147.358 224.667 146.4 223.708 145.441 222.75C143.444 220.751 141.45 218.749 139.458 216.744C136.926 214.195 134.388 211.653 131.847 209.113C129.871 207.136 127.897 205.157 125.925 203.177C124.542 201.79 123.157 200.403 121.772 199.017C120.491 197.725 120.491 197.725 119.183 196.408C118.441 195.662 117.699 194.916 116.934 194.148C114.972 192.079 113.104 189.981 111.245 187.821C107.19 183.159 102.853 178.815 98.4673 174.465C97.5933 173.594 96.7192 172.723 95.8187 171.826C93.9336 169.948 92.0476 168.071 90.16 166.195C87.173 163.227 84.1904 160.254 81.2086 157.28C72.7344 148.83 64.2543 140.386 55.77 131.946C51.0719 127.272 46.3773 122.595 41.6866 117.914C38.7252 114.959 35.7594 112.009 32.7902 109.062C30.5118 106.798 28.2401 104.528 25.9673 102.258C25.1475 101.447 24.3277 100.636 23.4831 99.8007C22.7318 99.0481 21.9805 98.2955 21.2065 97.5201C20.5546 96.8714 19.9028 96.2227 19.2312 95.5544C16.3198 92.2394 14.6095 89.5854 14.0386 85.1809C14.8895 78.1302 19.1907 73.3957 24.0991 68.5606C24.6492 68.0068 25.1993 67.453 25.7661 66.8825C27.5684 65.0722 29.3812 63.2729 31.1948 61.4739C32.458 60.2113 33.7206 58.9481 34.9828 57.6844C37.6209 55.0464 40.264 52.4136 42.9111 49.7847C46.3025 46.4161 49.6826 43.0365 53.0592 39.6531C55.6616 37.0474 58.2689 34.4466 60.8779 31.8475C62.1264 30.6029 63.3735 29.3569 64.6192 28.1096C66.359 26.3695 68.105 24.6361 69.853 22.9043C70.6215 22.1321 70.6215 22.1321 71.4055 21.3443C77.0169 15.8159 81.6802 14.2357 89.4761 15.5559Z" fill="url(#paint1_linear_50_102)"/>
<path d="M343.476 273.556C346.867 275.024 349.076 276.909 351.678 279.517C352.508 280.344 353.338 281.172 354.193 282.024C355.095 282.933 355.997 283.842 356.926 284.779C357.892 285.745 358.858 286.711 359.825 287.676C362.445 290.296 365.058 292.921 367.671 295.548C370.403 298.293 373.141 301.032 375.879 303.772C381.06 308.96 386.237 314.153 391.412 319.347C397.304 325.262 403.202 331.171 409.1 337.079C421.232 349.232 433.356 361.391 445.476 373.556C444.193 376.367 442.853 378.433 440.681 380.625C440.112 381.204 439.543 381.783 438.956 382.38C438.334 383.003 437.712 383.626 437.07 384.268C436.413 384.933 435.756 385.599 435.079 386.285C432.907 388.481 430.727 390.669 428.547 392.857C427.034 394.378 425.522 395.899 424.01 397.42C420.841 400.606 417.668 403.787 414.492 406.965C410.416 411.047 406.356 415.145 402.299 419.247C399.183 422.393 396.056 425.527 392.926 428.658C391.424 430.165 389.925 431.676 388.431 433.191C386.346 435.303 384.246 437.398 382.141 439.491C381.522 440.124 380.904 440.757 380.267 441.409C378.525 443.122 378.525 443.122 375.476 445.556C371.708 445.345 369.851 443.302 367.275 440.715C366.03 439.476 366.03 439.476 364.759 438.212C363.857 437.3 362.955 436.387 362.026 435.446C361.061 434.48 360.094 433.514 359.128 432.549C356.506 429.928 353.893 427.298 351.282 424.665C348.551 421.916 345.812 419.175 343.074 416.433C337.89 411.24 332.714 406.04 327.541 400.836C321.651 394.913 315.752 388.998 309.853 383.083C297.718 370.917 285.593 358.74 273.476 346.556C275.302 342.644 277.822 339.769 280.762 336.651C281.559 335.798 281.559 335.798 282.372 334.927C288.412 328.496 294.646 322.26 300.898 316.036C302.137 314.8 303.375 313.563 304.613 312.326C307.826 309.116 311.043 305.91 314.26 302.704C317.56 299.414 320.858 296.12 324.156 292.827C330.593 286.401 337.034 279.977 343.476 273.556Z" fill="url(#paint2_linear_50_102)"/>
<path d="M460.476 392.556C463.476 393.556 463.476 393.556 465.281 396.755C465.983 398.246 466.672 399.742 467.351 401.243C467.735 402.072 468.119 402.901 468.514 403.755C473.533 414.698 478.25 425.778 483.006 436.838C486.294 444.473 489.664 452.072 493.05 459.664C496.745 468.001 499.916 475.272 498.476 484.556C496.379 489.63 493.403 493.404 488.601 496.118C475.882 501.273 460.636 492.366 448.826 487.391C447.334 486.758 445.843 486.126 444.351 485.493C442.784 484.834 441.217 484.175 439.65 483.516C437.263 482.513 434.877 481.51 432.491 480.505C427.278 478.308 422.057 476.134 416.828 473.978C415.819 473.562 415.819 473.562 414.789 473.137C411.631 471.836 408.471 470.536 405.312 469.237C404.201 468.779 403.09 468.321 401.945 467.849C400.98 467.452 400.015 467.055 399.021 466.646C396.792 465.691 394.63 464.669 392.476 463.556C393.055 460.413 393.881 458.778 396.14 456.531C396.705 455.962 397.27 455.393 397.853 454.806C398.787 453.888 398.787 453.888 399.74 452.951C400.394 452.297 401.047 451.643 401.721 450.969C403.884 448.809 406.057 446.659 408.23 444.509C409.731 443.013 411.232 441.517 412.732 440.02C416.683 436.081 420.642 432.151 424.604 428.223C428.644 424.213 432.676 420.195 436.709 416.177C444.623 408.295 452.547 400.422 460.476 392.556Z" fill="url(#paint3_linear_50_102)"/>
<defs>
<linearGradient id="paint0_linear_50_102" x1="256.806" y1="0" x2="256.806" y2="512.868" gradientUnits="userSpaceOnUse">
<stop stop-color="#062146"/>
<stop offset="1" stop-color="#05A0DD"/>
</linearGradient>
<linearGradient id="paint1_linear_50_102" x1="127.757" y1="15.1169" x2="127.757" y2="241.556" gradientUnits="userSpaceOnUse">
<stop stop-color="#062146"/>
<stop offset="1" stop-color="#05A0DD"/>
</linearGradient>
<linearGradient id="paint2_linear_50_102" x1="359.476" y1="273.556" x2="359.476" y2="445.556" gradientUnits="userSpaceOnUse">
<stop stop-color="#062146"/>
<stop offset="1" stop-color="#05A0DD"/>
</linearGradient>
<linearGradient id="paint3_linear_50_102" x1="445.654" y1="392.556" x2="445.654" y2="497.672" gradientUnits="userSpaceOnUse">
<stop stop-color="#062146"/>
<stop offset="1" stop-color="#05A0DD"/>
</linearGradient>
</defs>
</svg>
