<svg width="42" height="30" viewBox="0 0 42 30" fill="none" xmlns="http://www.w3.org/2000/svg">
<path d="M9.79151 0.00260225C10.0628 0.00218672 10.3341 0.00165212 10.6053 0.000976234C11.2625 -0.000377566 11.9196 -9.47882e-05 12.5767 0.000796378C13.1113 0.00149103 13.6459 0.00158038 14.1805 0.00124841C14.2569 0.00120148 14.3333 0.00115456 14.412 0.00110622C14.5673 0.0010083 14.7225 0.000909024 14.8778 0.000808397C16.33 -6.24961e-05 17.7822 0.000935581 19.2344 0.00258455C20.4774 0.00395242 21.7205 0.00371473 22.9636 0.00230321C24.411 0.000660445 25.8583 2.15872e-05 27.3057 0.000959625C27.4604 0.00105716 27.615 0.00115342 27.7697 0.00124841C27.8458 0.00129565 27.9218 0.00134289 28.0002 0.00139156C28.5335 0.00165474 29.0668 0.00121232 29.6 0.000489132C30.2509 -0.000374202 30.9017 -0.000127886 31.5526 0.00149374C31.8839 0.00229247 32.2153 0.00245615 32.5467 0.00160117C35.0968 -0.00436886 37.2441 0.257872 39.2458 1.98158C39.3274 2.05171 39.409 2.12184 39.493 2.19409C40.8813 3.48418 41.7851 5.37135 41.9282 7.25727C41.9399 7.67345 41.9423 8.0886 41.9409 8.50489C41.9415 8.66333 41.9422 8.82178 41.943 8.98022C41.9449 9.40667 41.9448 9.83309 41.9442 10.2595C41.9439 10.6174 41.9445 10.9752 41.9451 11.3331C41.9465 12.1784 41.9464 13.0236 41.9452 13.8689C41.944 14.7367 41.9455 15.6045 41.9482 16.4723C41.9505 17.2212 41.9511 17.9701 41.9506 18.719C41.9502 19.1646 41.9504 19.6102 41.9522 20.0558C41.9538 20.4753 41.9534 20.8947 41.9515 21.3143C41.9511 21.4668 41.9514 21.6194 41.9525 21.7719C41.9613 23.1281 41.7627 24.483 41.115 25.694C41.0801 25.7611 41.0452 25.8282 41.0093 25.8974C39.9462 27.8701 38.2027 29.0952 36.1099 29.7541C35.6526 29.8811 35.2354 29.9618 34.7602 29.9628C34.6606 29.9632 34.5609 29.9637 34.4583 29.9642C34.2953 29.9641 34.2953 29.9641 34.129 29.9641C34.0129 29.9645 33.8969 29.9649 33.7773 29.9652C33.3875 29.9664 32.9977 29.9668 32.6079 29.9671C32.3287 29.9677 32.0495 29.9685 31.7704 29.9692C30.9319 29.9712 30.0934 29.9722 29.255 29.9731C28.8596 29.9736 28.4643 29.9741 28.0689 29.9747C26.7537 29.9764 25.4386 29.9779 24.1234 29.9786C23.7823 29.9788 23.4411 29.979 23.1 29.9792C23.0152 29.9793 22.9304 29.9793 22.8431 29.9794C21.4712 29.9802 20.0994 29.9828 18.7276 29.9861C17.3175 29.9895 15.9074 29.9913 14.4974 29.9916C13.7063 29.9919 12.9153 29.9928 12.1243 29.9954C11.4503 29.9976 10.7762 29.9984 10.1022 29.9974C9.75883 29.997 9.41552 29.9974 9.07215 29.9991C7.37442 30.0074 5.84609 29.9734 4.31196 29.1644C4.24439 29.1295 4.17682 29.0946 4.1072 29.0587C2.13377 28.0025 0.909127 26.257 0.245465 24.1693C0.0961756 23.6157 0.0375779 23.0982 0.0354711 22.5252C0.0349081 22.4253 0.0349084 22.4253 0.0343341 22.3235C0.0332156 22.1019 0.0328163 21.8802 0.0324262 21.6586C0.0317861 21.4991 0.0311076 21.3396 0.0303937 21.1801C0.0282525 20.6573 0.0271887 20.1344 0.0261713 19.6116C0.0257579 19.4309 0.0253375 19.2503 0.0249106 19.0697C0.022967 18.2204 0.0215146 17.3711 0.0206633 16.5219C0.0196676 15.5449 0.0169854 14.5679 0.0128549 13.5909C0.00976457 12.8337 0.00826393 12.0764 0.00792698 11.3192C0.00768831 10.868 0.0067902 10.4167 0.00420538 9.96549C0.00180813 9.54013 0.0014049 9.11481 0.00244542 8.68944C0.0024955 8.53454 0.00186516 8.37963 0.000449508 8.22474C-0.0112339 6.86894 0.203091 5.60211 0.847924 4.39301C0.883335 4.32484 0.918745 4.25666 0.955229 4.18642C1.24613 3.64061 1.57229 3.15418 1.98985 2.69608C2.06405 2.61252 2.13826 2.52897 2.21472 2.44289C4.31366 0.205156 6.91719 -0.00481373 9.79151 0.00260225ZM15.5653 8.71828C15.5653 12.895 15.5653 17.0718 15.5653 21.3751C17.5079 20.2651 19.4461 19.1508 21.3689 18.007C22.3924 17.3991 23.4225 16.8035 24.4547 16.2105C24.5529 16.1538 24.6512 16.0971 24.7525 16.0386C24.9699 15.9138 25.1882 15.7902 25.4069 15.6675C25.5192 15.6038 25.6316 15.5401 25.7473 15.4745C25.8499 15.417 25.9525 15.3594 26.0581 15.3001C26.1693 15.2252 26.1693 15.2252 26.2828 15.1488C26.2828 15.0814 26.2828 15.014 26.2828 14.9446C26.208 14.9021 26.1332 14.8596 26.0561 14.8158C24.6193 13.9985 23.1865 13.176 21.7653 12.3318C21.3351 12.0764 20.9038 11.8228 20.4719 11.5703C20.4105 11.5344 20.3491 11.4985 20.2858 11.4615C20.1599 11.3879 20.034 11.3143 19.9081 11.2407C19.8142 11.1857 19.8142 11.1857 19.7183 11.1297C19.6563 11.0935 19.5943 11.0572 19.5304 11.0198C18.8404 10.6162 18.1518 10.2105 17.4668 9.7984C17.407 9.76244 17.3473 9.72649 17.2857 9.68945C17.0013 9.51821 16.7171 9.34654 16.4332 9.17446C16.3336 9.11431 16.2341 9.05416 16.1315 8.99219C16.044 8.93909 15.9564 8.88599 15.8662 8.83129C15.6907 8.70987 15.6907 8.70987 15.5653 8.71828Z" fill="white"/>
</svg>
